<?xml version="1.0" standalone="no"?><!DOCTYPE svg PUBLIC "-//W3C//DTD SVG 1.1//EN" "http://www.w3.org/Graphics/SVG/1.1/DTD/svg11.dtd"><svg class="icon" width="200px" height="200.00px" viewBox="0 0 1024 1024" version="1.1" xmlns="http://www.w3.org/2000/svg"><path d="M502.5 173.5c-24.9 24.9-38.6 58-38.6 93.1v98l-18.2-1.1-27-1.6v-95.4c0-47.2 18.4-91.7 51.8-125.2 8.5-8.5 22-8.8 30.8-1.1 0.4 0.3 0.8 0.7 1.1 1.1 8.9 9.1 8.9 23.4 0.1 32.2z" fill="#4F4F56" /><path d="M502.5 173.5c-24.9 24.9-38.6 58-38.6 93.1v98l-18.2-1.1v-94.9c0-47.2 18.4-91.7 51.8-125.2 1.2-1.2 2.5-2.2 3.8-3.1 0.4 0.3 0.8 0.7 1.1 1.1 8.9 9 8.9 23.3 0.1 32.1z" fill="#383842" /><path d="M331.3 66.5c87.3 32.9 124 150.1 124 150.1S350.4 280.3 263 247.2 139 97.1 139 97.1s105-63.6 192.3-30.6z" fill="#52DBC0" /><path d="M455.2 216.6S350.3 280.3 263 247.2C175.7 214.3 139 97.1 139 97.1s12.5-7.6 32.3-16.1c17.5 37.1 53 96 110.9 117.9 57.2 21.6 122 1.7 159.8-14.6 9 18.9 13.2 32.3 13.2 32.3z" fill="#0DC6A5" /><path d="M444.3 967c-27.4-32.4-62.2-58-101.2-74.8l-5.6-2.4c-111.8-47.9-197.1-142-234-257.9-23.4-73.7-15.1-153.9 23.1-221.2 62.8-110.8 192.8-164.8 315.7-131l1.9 0.5H443l1.9-0.5c122.8-33.8 252.8 20.2 315.7 131 38.1 67.3 46.5 147.4 23.1 221.2-36.8 115.9-122.2 210-233.9 257.9l-5.6 2.4C505.1 909 470.4 934.6 443 967" fill="#FFA9D9" /><path d="M796.8 547.8c0 28.2-4.3 56.7-13.1 84.1-18.4 57.9-48.9 110.4-88.8 154.4s-89.2 79.6-145 103.5l-5.6 2.4c-38.8 16.7-73.3 42-100.6 74.1-14.8-17.4-31.6-32.7-50.1-45.8 15.8-11.2 32.6-20.7 50.5-28.3l5.6-2.4c55.9-24 105.1-59.5 145-103.5s70.5-96.5 88.8-154.4c8.7-27.4 13.1-55.9 13.1-84.1 0-47.6-12.2-94.8-36.1-137-41.7-73.3-112.9-121.8-191.8-136.3 115.5-21.5 233.2 32.5 292 136.2 23.8 42.3 36.1 89.6 36.1 137.1z" fill="#FF75C1" /><path d="M342.8 280.3l0.6-0.2 0.6 0.2zM444.3 280.3h-1.2l0.6-0.2zM443.1 967c0.2-0.2 0.4-0.5 0.6-0.7 0.2 0.2 0.4 0.5 0.6 0.7h-1.2z" fill="#FF5A5A" /><path d="M343.4 280.1l0.6 0.2h-1.2zM443.1 280.3l0.6-0.2 0.6 0.2z" fill="#FF5A5A" /><path d="M626.3 966.3c-4.8-23.5-15-45.6-29.8-64.4l-2.1-2.7c-42.3-54-59-123.6-45.8-190.9 8.4-42.8 34.3-80.1 71.4-103.1 61.1-37.8 140-29.2 191.6 20.7l0.8 0.8-0.6-0.4 1.1 0.3c69.9 16.5 119.6 78.5 120.6 150.3 0.6 43.6-17 85.5-48.6 115.6-49.6 47.3-117.3 70.7-185.5 64.1l-3.4-0.4c-23.8-2.1-47.3 1.5-69.7 10.1z" fill="#F8F1A6" /><path d="M933.6 779.2c0 42.8-17.5 83.8-48.6 113.4-44.1 42.1-102.5 65.2-162.8 65.2-7.6 0-15.1-0.4-22.7-1.1l-3.4-0.4c-23.9-2.3-47.3 1.3-69.7 9.8-2.7-13.4-7.2-26.3-13.3-38.4 14.8-3.1 30.1-4.1 45.4-2.6l3.4 0.4c7.6 0.7 15.2 1.1 22.7 1.1 60.3 0 118.7-23.2 162.8-65.2 31-29.6 48.6-70.6 48.6-113.4v-2.2c-0.6-38.4-15-74.1-39.1-101.4 45.9 27.2 75.9 77 76.7 132.6v2.2z" fill="#FCD770" /><path d="M814.1 811.6c-29.7 51.3-121.8 53.6-121.8 53.6s-44.1-81-14.5-132.3c29.7-51.3 121.8-53.6 121.8-53.6s44.2 81 14.5 132.3z" fill="#F59E18" /><path d="M814.1 811.6c-29.7 51.3-121.8 53.6-121.8 53.6s-4.3-8.1-9.5-20.7c29.6-4.6 76.5-17 96.1-51 20.3-35.1 6-84.3-5.1-111.7 15.2-2.4 25.7-2.6 25.7-2.6s44.2 81.1 14.6 132.4z" fill="#DA6844" /><path d="M941.5 776.8c-1-75.2-52.5-139.8-125.4-157.6-5.5-5.2-11.2-9.9-17.2-14.2 3.8-18.8 5.8-38 5.8-57.1 0-49.3-12.8-98.1-37.2-141-30-52.9-75.2-94.2-130.5-119.3-52.1-23.7-109-31.2-165.2-21.8 0.3-32.6 13.1-63.3 36.2-86.4 11.7-11.7 11.8-31 0.3-43.1-0.6-0.7-1.3-1.4-2-2-12-10.4-30.2-9.7-41.5 1.6-8.8 8.9-16.7 18.6-23.6 28.9-2.6-4.8-5.3-9.7-8.4-14.8-27.2-45.3-61.4-76.7-98.8-90.7-37.4-14.1-83.8-13.2-134.1 2.8-37.6 11.9-64 27.8-65.1 28.5-3.1 1.9-4.6 5.7-3.5 9.2 0.4 1.2 9.7 30.6 30 64.4 27.2 45.2 61.4 76.6 98.8 90.8 17.6 6.7 37.1 10 58.1 10 3.9 0 7.9-0.1 11.9-0.4-87.7 11.9-166.2 64.2-210.5 142.4-24.3 42.9-37.2 91.6-37.2 141 0 29.4 4.5 58.6 13.4 86.6 37.6 118.2 124.6 214 238.5 262.8l5.6 2.4c36.5 15.7 69.4 39.6 95.3 69.2 0.4 1.6 1.2 3.1 2.5 4.3 1.5 1.3 3.4 2 5.3 2h1.3c0.4 0 0.7 0 1.1-0.1h0.2c0.3-0.1 0.7-0.1 1-0.2h0.1c0.3-0.1 0.6-0.2 0.9-0.4 0.1 0 0.1-0.1 0.2-0.1 0.3-0.2 0.6-0.3 0.9-0.5 0.3-0.2 0.5-0.4 0.8-0.6l0.2-0.2 0.2-0.2c0.2-0.2 0.3-0.4 0.5-0.5l0.6-0.9c0-0.1 0.1-0.1 0.1-0.2 0.4-0.6 0.6-1.3 0.8-2 0-0.1 0-0.1 0.1-0.2v-0.1c26-29.6 58.8-53.5 95.2-69.2l5.6-2.4c7.6-3.3 15.2-6.8 22.7-10.5 3.9 6 8 11.8 12.5 17.5l2.1 2.7c13.9 17.7 23.7 38.8 28.2 61.1 0.5 2.3 1.9 4.3 4 5.4 1.2 0.7 2.5 1 3.8 1 1 0 1.9-0.2 2.9-0.5 21.7-8.3 43.9-11.5 66-9.6l3.3 0.4h0.2c70.6 6.8 140.5-17.3 191.8-66.3 33.2-31.9 51.8-76.2 51.2-121.9zM476.2 147c5.4-5.4 14.2-5.7 19.9-0.7l0.2 0.2c0.1 0.2 0.3 0.3 0.5 0.5 5.9 6 5.9 15.2 0.2 20.9-26.4 26.4-40.9 61.5-40.9 98.8v2.1c-4.1 0.9-8.3 1.9-12.3 3-5.6-1.5-11.2-2.9-16.9-4v-1.2c0-9.3 0.8-18.6 2.2-27.7 18.3-8.1 29.8-15 30.5-15.4 3.1-1.9 4.6-5.7 3.5-9.2-0.3-0.8-4.5-14.1-13.3-32.9 7.2-12.5 16-24.1 26.4-34.4z m-210.4 92.7c-71.5-27.1-108.2-115-117.1-138.9C171.3 88.7 257.1 47 328.5 74c71.4 26.9 108.2 114.9 117.1 138.9-22.6 12.2-108.3 53.9-179.8 26.8z m128.5 12.2c6.2-2 12-4 17.5-6.1-0.7 6.3-1.1 12.7-1.1 19-14-2.1-28.1-3.2-42.2-3.2-6.3 0-12.6 0.2-18.9 0.6 14.5-1.9 29.4-5.4 44.7-10.3z m152.3 630.5l-5.6 2.4c-37 15.9-70.4 39.8-97.4 69.3-26.9-29.5-60.4-53.4-97.4-69.3l-5.6-2.4c-109.6-47-193.3-139.2-229.5-253-8.4-26.5-12.7-54-12.7-81.8 0-46.6 12.1-92.6 35.1-133.1 47.9-84.5 137.9-136.9 234.9-136.9 16.3 0 32.7 1.5 48.8 4.5 7.2 1.3 14.4 3 21.5 4.9 1.2 0.8 2.7 1.3 4.3 1.3h1.2c1.6 0 3.2-0.5 4.4-1.3 5.5-1.5 11.1-2.8 16.7-3.9h0.1c55.9-11.2 112.9-4.7 164.9 19 52.2 23.8 94.8 62.7 123.2 112.7 23 40.5 35.1 86.6 35.1 133.1 0 16-1.5 32-4.3 47.8-51.6-29.6-116.3-29.5-168.7 2.9-38.9 24.1-66.3 63.6-75 108.4-11.2 57.2-1.5 116 26.6 166.1-6.7 3.2-13.6 6.4-20.6 9.3z m332.8 4.3c-47.9 45.7-113.2 68.3-179.1 61.9l-3.3-0.4h-0.2c-21.7-1.9-43.4 0.6-64.7 7.5-5.6-21.4-15.7-41.5-29.2-58.8l-2.1-2.7c-40.9-52.2-57-119.4-44.2-184.4 7.9-40.4 32.6-76.1 67.8-97.8 24.2-15 51.3-22.3 78.3-22.3 29.1 0 58 8.5 82.8 25.2 0.1 0.1 0.2 0.1 0.3 0.2 6.9 4.6 13.5 9.9 19.6 15.8 0.6 0.8 1.3 1.5 2.1 2.1l0.6 0.4c1.4 0.9 2.9 1.3 4.4 1.3 65.7 16.1 112.2 74.5 113.1 142.3 0.5 41.3-16.3 81.2-46.2 109.7z" fill="#333333" /><path d="M806.6 675.5c-1.4-2.6-4.2-4.3-7.2-4.2-1 0-24.3 0.7-51.6 7.8-37.6 9.8-63.5 26.6-76.9 49.8-13.4 23.2-14.9 54-4.6 91.5 7.5 27.2 18.6 47.8 19 48.6 1.4 2.6 4.1 4.2 7 4.2h0.2c1 0 24.3-0.7 51.6-7.8 37.6-9.8 63.5-26.6 76.9-49.8 13.4-23.2 15-54 4.7-91.5-7.5-27.3-18.6-47.8-19.1-48.6z m0.6 132.1c-23.3 40.3-91.1 48-110.1 49.3-8.3-17.1-35.6-79.7-12.4-120 23.3-40.3 91.1-48 110.1-49.3 8.4 17.1 35.7 79.6 12.4 120z" fill="#333333" /></svg>