<?xml version="1.0" standalone="no"?><!DOCTYPE svg PUBLIC "-//W3C//DTD SVG 1.1//EN" "http://www.w3.org/Graphics/SVG/1.1/DTD/svg11.dtd"><svg class="icon" width="200px" height="200.00px" viewBox="0 0 1024 1024" version="1.1" xmlns="http://www.w3.org/2000/svg"><path d="M566.7 100.1c-9.6 29.8-14.1 85.1-16.1 123.1-0.6 11.2-5.6 21.3-13.2 28.5-7.7 7.2-17.9 11.7-29.2 11.7-4.8 0-9.3-0.8-13.7-2.2-19.2-6.6-32-26.3-28.1-47.7 7.8-43.4 21.3-104.8 40.3-139.4 3.6-6.4 8.9-11.2 15.1-14.1 4.3-2 8.9-3 13.7-3 6.2 0 12.6 1.8 18.2 5.6 12.3 8.2 17.6 23.5 13 37.5z" fill="#AA7341" /><path d="M539.5 100.1c-9.6 29.8-14.1 85.1-16.1 123.1-0.6 11.2-5.6 21.3-13.2 28.5-4.4 4.2-9.7 7.4-15.6 9.4-19.2-6.6-32-26.3-28.1-47.7 7.8-43.4 21.3-104.8 40.3-139.4 3.6-6.4 8.9-11.2 15.1-14.1 1.6 0.7 3.1 1.6 4.7 2.6 12.2 8.3 17.4 23.6 12.9 37.6z" fill="#C18E5C" /><path d="M512.1 966.2l36.7-46.3 33.3 33.3 49.9-66.5 83.2 16.7v-83.2h83.2L765 753.6l116.4-16.7-16.7-83.2 83.2-16.7-49.9-49.9 66.5-66.5-83.2-49.9 49.9-66.5-99.9-33.3 33.3-66.5-99.9-33.3v-83.2L665 221.2l-33.3-99.9-119.9 86.8L392 121.3l-33.3 99.9-99.9-33.3v83.2l-99.9 33.3 33.3 66.5-99.9 33.3 49.9 66.5-82.9 49.9 66.5 66.5-47.5 78h78.5l-3.7 100.2L259 753.5 225.7 820H309v83.2l83.2-16.7 49.9 66.5 33.3-33.3c-0.1 0.3 36.7 46.5 36.7 46.5z" fill="#F73F62" /><path d="M153.7 753.8l2-0.2-2.2 4.4z" fill="#FFEC40" /><path d="M947.9 637.2l-83 16.5 16.5 83.2L765 753.6l33.3 66.5h-83.2v83.2l-83.2-16.6-49.9 66.5-33.3-33.2-36.6 46.2-22.3-27.9 38.8-51.6 83.2 16.6v-83.2H695l-33.3-66.5 116.4-16.7-16.6-83.2 83.1-16.5-49.8-50 66.5-66.5-83.2-49.9 50-66.6-99.9-33.3 33.3-66.5-99.8-33.2-29.8-149.8 33.2 99.8L765 188v83.2l99.9 33.2-33.4 66.5 99.9 33.3-50 66.6 83.2 49.9-66.5 66.5z" fill="#C4124D" /><path d="M734.4 967l17.4-22 15.8 15.8 23.7-31.6 39.6 7.9v-39.6h39.6l-15.8-31.6L910 858l-7.9-39.6 39.6-7.9-23.7-23.7 31.6-31.6-39.6-23.8 23.7-31.6-47.5-15.8 15.8-31.6-47.5-15.8V597L807 612.8l-15.8-47.5-57 41.3-57-41.3-15.8 47.5-47.5-15.8v39.6l-47.5 15.8 15.8 31.6-47.5 15.8 23.7 31.6-39.4 23.7 31.6 31.6-22.6 37.1h37.3l-1.7 47.6 50.3-5.6-15.8 31.6h39.6V937l39.6-7.9 23.7 31.6 15.8-15.8c0.1 0.1 17.6 22.1 17.6 22.1z" fill="#FF849B" /><path d="M564 866l0.9-0.1-1 2.1z" fill="#FFEC40" /><path d="M941.7 810.5l-39.6 7.9L910 858l-55.3 7.9 15.8 31.6h-39.6v39.6l-39.5-7.9-23.7 31.6-15.9-15.8-17.4 22-10.6-13.3 18.4-24.5 39.6 7.9v-39.6h39.6l-15.9-31.6 55.4-7.9-7.9-39.6 39.5-7.9-23.7-23.7 31.6-31.7-39.5-23.7 23.8-31.6-47.5-15.9 15.8-31.6-47.5-15.8-14.1-71.2 15.8 47.4 47.5-15.8v39.6l47.4 15.8-15.8 31.6 47.5 15.9-23.8 31.6 39.6 23.7-31.7 31.7z" fill="#F46786" /><path d="M734.3 766.1m-93.2 0a93.2 93.2 0 1 0 186.4 0 93.2 93.2 0 1 0-186.4 0Z" fill="#FFFFFF" /><path d="M972.4 519.6c-0.3-2.4-1.7-4.6-3.8-5.9L893 468.4l44.6-59.4c1.5-2.1 2-4.7 1.2-7.2s-2.7-4.4-5.1-5.2l-91.1-30.4 29.2-58.2c1-2.1 1.1-4.5 0.2-6.6-0.9-2.1-2.7-3.8-4.9-4.5l-94.4-31.5V188c0-2.6-1.2-5-3.3-6.5-2.1-1.5-4.8-1.9-7.2-1.1l-92.1 30.8-30.8-92.3c-0.8-2.4-2.7-4.3-5.1-5.1-2.4-0.8-5.1-0.4-7.1 1.1l-63.4 45.9c2.9-25.5 6.5-45.1 10.7-58.1 5.7-17.3-1-36.5-16.1-46.6-6.7-4.6-14.6-7-22.7-7-6 0-11.7 1.3-17.1 3.8-7.9 3.7-14.3 9.7-18.7 17.5-11.5 20.9-22.2 53.2-31.9 96.1L396.8 115c-2.1-1.5-4.7-1.9-7.1-1.1-2.4 0.8-4.3 2.7-5.1 5.1l-30.8 92.3-92.3-30.8c-2.4-0.8-5.1-0.4-7.2 1.1-2.1 1.5-3.3 3.9-3.3 6.5v77.4L156.6 297c-2.2 0.7-4 2.4-4.9 4.5s-0.8 4.6 0.2 6.6l29.2 58.2L90 396.7c-2.4 0.8-4.3 2.8-5.1 5.2-0.8 2.5-0.3 5.1 1.2 7.2l44.6 59.4-75.3 45.3c-2.1 1.3-3.5 3.4-3.8 5.9-0.3 2.4 0.5 4.9 2.3 6.6l62.1 62.1L71.8 661c-1.5 2.5-1.6 5.6-0.1 8.1 1.4 2.5 4.1 4.1 7 4.1h70.2l-3.4 91.9c-0.1 2.3 0.8 4.6 2.6 6.2 1.7 1.6 4 2.3 6.3 2.1l91.3-10.2-26.7 53.3c-1.2 2.5-1.1 5.4 0.3 7.8 1.5 2.4 4 3.8 6.8 3.8H301v75.2c0 2.4 1.1 4.7 2.9 6.2 1.9 1.5 4.3 2.1 6.6 1.7l78.3-15.7 46.9 62.5c1.4 1.9 3.5 3 5.8 3.2 2.3 0.2 4.6-0.7 6.2-2.3l26.9-26.9c0.1 0.1 0.2 0.2 0.2 0.3 3.4 4.4 8 10.2 12.6 16 9.2 11.6 18.4 23.1 18.4 23.1 1.5 1.9 3.8 3 6.3 3 2.4 0 4.7-1.1 6.3-3l31.1-39.3 27 27c1.6 1.6 3.9 2.5 6.2 2.3 2.3-0.2 4.4-1.3 5.8-3.2l39.5-52.6h1.7V937c0 2.4 1.1 4.7 2.9 6.2 1.9 1.5 4.3 2.1 6.6 1.7l34.7-6.9 20.7 27.6c1.4 1.9 3.5 3 5.8 3.2 2.3 0.2 4.6-0.7 6.2-2.3l9.5-9.5c3.6 4.5 8.3 10.5 12 15.1 1.5 1.9 3.8 3 6.3 3 2.4 0 4.7-1.1 6.3-3l11.8-15 9.4 9.4c1.6 1.6 3.9 2.5 6.2 2.3 2.3-0.2 4.4-1.3 5.8-3.2l20.7-27.6 34.7 6.9c2.4 0.5 4.8-0.1 6.6-1.7 1.9-1.5 2.9-3.8 2.9-6.2v-31.6h31.6c2.8 0 5.3-1.4 6.8-3.8s1.6-5.3 0.3-7.8l-10.8-21.7 44.3-6.3c2.2-0.3 4.1-1.5 5.4-3.3 1.3-1.8 1.7-4 1.3-6.2l-6.3-31.8 31.8-6.3c2.9-0.6 5.2-2.7 6.1-5.5s0.1-5.9-2-8l-18-18 25.9-25.9c1.7-1.7 2.6-4.2 2.3-6.6s-1.7-4.6-3.8-5.9l-32-19.2 18.4-24.5c1.5-2.1 2-4.7 1.2-7.2s-2.7-4.4-5.1-5.2l-38.7-12.9 11.7-23.3c0.5-1 0.8-2.1 0.8-3.2l39.5-7.9c2.9-0.6 5.2-2.7 6.1-5.5 0.9-2.8 0.1-5.9-2-8l-44.2-44.2 60.8-60.8c1.7-1.9 2.5-4.3 2.2-6.8zM513.7 78c2.7-4.8 6.7-8.5 11.5-10.8 3.2-1.5 6.7-2.3 10.3-2.3 4.9 0 9.6 1.5 13.8 4.3 9.2 6.2 13.3 17.8 9.8 28.4-5.3 16.5-9.6 42-12.9 75.7l-34.4 24.9-29.9-21.7c9.7-44.7 20.5-77.9 31.8-98.5z m406.9 625.9l-17 22.7c-1.4 1.8-1.9 4.1-1.5 6.3s1.8 4.2 3.7 5.3l30.8 18.5-24.4 24.4c-3.1 3.1-3.1 8.2 0 11.3l13.1 13.1-24.9 5c-2.1 0.4-3.9 1.6-5.1 3.4-1.2 1.8-1.6 3.9-1.2 6l6.2 31.3-46.9 6.7c-2.5 0.4-4.8 1.9-6 4.2-1.2 2.3-1.2 5-0.1 7.3l10 20h-26.7c-4.4 0-8 3.6-8 8v29.8l-30-6c-3-0.6-6.1 0.6-8 3l-18.2 24.2-9.3-9.3c-1.6-1.6-3.8-2.5-6.1-2.3-2.3 0.1-4.4 1.2-5.8 3l-11.1 14.1c-11.5-14.5-11.6-14.5-12-14.9-1.6-1.5-3.6-2.3-5.6-2.3-2 0-4.1 0.8-5.7 2.3l-9.3 9.3-18.2-24.2c-1.8-2.5-4.9-3.6-8-3l-30 6v-29.8c0-4.4-3.6-8-8-8H611l10-20c1.3-2.6 1.1-5.8-0.6-8.2-1.7-2.4-4.5-3.7-7.4-3.4l-40.9 4.6c0-0.1-0.1-0.2-0.1-0.3l1.4-38c0.1-2.2-0.7-4.3-2.2-5.8s-3.6-2.4-5.8-2.4h-23.1l15.2-24.9c1.9-3.2 1.4-7.2-1.2-9.8l-24.4-24.4 30.6-18.4c1.9-1.2 3.3-3.1 3.7-5.3 0.4-2.2-0.1-4.5-1.5-6.3l-17-22.7 37-12.3c2.2-0.7 4-2.4 4.9-4.5 0.9-2.1 0.8-4.6-0.2-6.6l-11.7-23.3 38.7-12.9c3.3-1.1 5.5-4.1 5.5-7.6v-28.5l37 12.3c4.2 1.4 8.7-0.9 10.1-5.1l12.4-37.1 48.2 34.9c2.8 2 6.6 2 9.4 0l48.2-34.9 12.4 37.1c1.4 4.2 5.9 6.5 10.1 5.1l37-12.3v28.5c0 3.4 2.2 6.5 5.5 7.6l38.7 12.9-11.9 23.1c-1 2.1-1.1 4.5-0.2 6.6 0.9 2.1 2.7 3.8 4.9 4.5l36.9 12.4z m-28.3-122.5c-3.1 3.1-3.1 8.2 0 11.3l39.3 39.3-40.8 8.2-28.4-9.4V597c0-2.6-1.2-5-3.3-6.5-2.1-1.5-4.8-1.9-7.2-1.1L812 602.7l-13.3-39.9c-0.8-2.4-2.7-4.3-5.1-5.1-2.4-0.8-5.1-0.4-7.1 1.1l-52.3 37.9-52.3-37.9c-2.1-1.5-4.7-1.9-7.1-1.1-2.4 0.8-4.3 2.7-5.1 5.1l-13.3 39.9-39.9-13.3c-2.4-0.8-5.1-0.4-7.2 1.1-2.1 1.5-3.3 3.9-3.3 6.5v33.8l-42 14c-2.2 0.7-4 2.4-4.9 4.5-0.9 2.1-0.8 4.6 0.2 6.6l11.7 23.3-38.7 12.9c-2.4 0.8-4.3 2.7-5.1 5.2-0.8 2.5-0.3 5.1 1.2 7.2l18.4 24.5-31.8 19.1c-2.1 1.3-3.5 3.4-3.8 5.9-0.3 2.4 0.5 4.9 2.3 6.6l27.2 27.2-19.3 31.7c-1.5 2.5-1.6 5.6-0.1 8.1 1.4 2.5 4.1 4.1 7 4.1h29l-1.4 39.3c-0.1 2.3 0.8 4.6 2.6 6.2 1.7 1.6 4 2.3 6.3 2.1l35.7-4-9.2 18.4c-1.2 2.5-1.1 5.4 0.3 7.8 1.5 2.4 4 3.8 6.8 3.8h9.9L581.2 941l-26.8-26.8c-1.6-1.6-3.9-2.5-6.1-2.3-2.3 0.1-4.4 1.2-5.8 3l-30.4 38.4c-12.5-15.8-28-35.3-29.9-37.9-0.9-1.4-2.1-2.5-3.7-3.1-3-1.2-6.4-0.6-8.7 1.7L443 940.8l-44.4-59.1c-1.8-2.5-5-3.6-8-3L317 893.4V820c0-4.4-3.6-8-8-8h-70.3l27.5-54.9c1.3-2.6 1.1-5.8-0.6-8.2-1.7-2.4-4.5-3.7-7.4-3.4l-94.8 10.6c0.8-2.4 0.4-5-1-7.1-0.2-0.2-0.4-0.5-0.6-0.7l3.1-83c0.1-2.2-0.7-4.3-2.2-5.8s-3.6-2.4-5.8-2.4H92.5l40.1-65.8c1.9-3.2 1.4-7.2-1.2-9.8l-59.3-59.3 74.1-44.6c1.9-1.2 3.3-3.1 3.7-5.3s-0.1-4.5-1.5-6.3l-43.2-57.6 89.4-29.8c2.2-0.7 4-2.4 4.9-4.5 0.9-2.1 0.8-4.6-0.2-6.6l-29.2-58.2 91.1-30.4c3.3-1.1 5.5-4.1 5.5-7.6V199l89.4 29.8c2 0.7 4.2 0.5 6.1-0.4 1.9-0.9 3.3-2.6 4-4.6l29.9-89.6 111 80.4c2.8 2 6.6 2 9.4 0l111.1-80.4 29.9 89.6c0.7 2 2.1 3.7 4 4.6 1.9 0.9 4.1 1.1 6.1 0.4l89.2-29.8v72.1c0 3.4 2.2 6.5 5.5 7.6l91.1 30.4-29.2 58.2c-1 2.1-1.1 4.5-0.2 6.6 0.9 2.1 2.7 3.8 4.9 4.5l89.4 29.8-43.2 57.6c-1.4 1.8-1.9 4.1-1.5 6.3 0.4 2.2 1.8 4.2 3.7 5.3l74.4 44.6-59.4 59.4z" fill="#333333" /><path d="M734.3 664.9c-55.8 0-101.2 45.4-101.2 101.2s45.4 101.2 101.2 101.2 101.2-45.4 101.2-101.2-45.4-101.2-101.2-101.2z m0 186.4c-47 0-85.2-38.2-85.2-85.2s38.2-85.2 85.2-85.2 85.2 38.2 85.2 85.2-38.2 85.2-85.2 85.2z" fill="#333333" /></svg>