<?xml version="1.0" standalone="no"?><!DOCTYPE svg PUBLIC "-//W3C//DTD SVG 1.1//EN" "http://www.w3.org/Graphics/SVG/1.1/DTD/svg11.dtd"><svg class="icon" width="200px" height="200.00px" viewBox="0 0 1024 1024" version="1.1" xmlns="http://www.w3.org/2000/svg"><path d="M257.8 146.9c8.1 35.8 27.5 91.6 72.1 125 44.5 33.5 103.5 36.5 140.1 34.5 18.8-1.1 31-15.1 29.5-33-0.1-1.7-0.4-3.5-0.8-5.2-8.1-35.8-27.5-91.6-72.1-125-44.5-33.5-103.5-36.5-140.2-34.6-0.8 0-1.6 0.1-2.3 0.2-19.3 2.4-30.7 18.6-26.3 38.1z" fill="#0DC6A5" /><path d="M285 114.2c8.2 35.9 27.5 91.6 72.2 125.1s103.5 36.5 140.1 34.5c0.8 0 1.6-0.1 2.3-0.2-0.1-1.7-0.4-3.5-0.8-5.2-8.1-35.8-27.5-91.6-72.1-125-44.5-33.5-103.5-36.5-140.2-34.6-0.8 0-1.6 0.1-2.3 0.2 0.1 1.7 0.3 3.5 0.8 5.2z" fill="#52DBC0" /><path d="M749.9 169.2c-0.6-0.3-1.4-0.6-2.1-0.8-34.8-12-92.3-25.3-144.3-5.4-52 19.8-86 68.1-103.7 100.3-0.9 1.6-1.6 3.2-2.3 4.8-6.4 16.8 1.4 33.6 19.2 39.8 34.7 12.1 92.2 25.4 144.2 5.4 52-19.8 86-68.1 103.7-100.3 9.6-17.5 3.2-36.2-14.7-43.8z" fill="#0DC6A5" /><path d="M749.8 169.3c-0.6-0.3-1.4-0.6-2.1-0.8-34.8-12-92.3-25.3-144.3-5.4-52 19.8-86 68.1-103.7 100.3-0.9 1.6-1.6 3.2-2.3 4.8 0.6 0.3 1.4 0.6 2.1 0.8 34.7 12.1 92.1 25.3 144.2 5.4s86-68.1 103.8-100.4c0.9-1.4 1.7-3.1 2.3-4.7z" fill="#52DBC0" /><path d="M582.3 109.4c-33.5 33.5-52.1 78.3-52.1 125.7v132.3l-24.5-1.5-36.5-2.1V234.9c0-63.7 24.8-123.8 69.9-169 11.5-11.5 29.7-11.9 41.7-1.5 0.5 0.4 1.1 0.9 1.5 1.5 11.8 12.4 11.8 31.7 0 43.5z" fill="#4F4F56" /><path d="M582.3 109.4c-33.5 33.5-52.1 78.3-52.1 125.7v132.3l-24.5-1.5V237.8c0-63.7 24.8-123.8 69.9-169 1.6-1.6 3.3-2.9 5.1-4.1 0.5 0.4 1.1 0.9 1.5 1.5 11.9 12.1 11.9 31.4 0.1 43.2z" fill="#383842" /><path d="M599.6 622.4a95.2 95.2 0 1 0 190.4 0 95.2 95.2 0 1 0-190.4 0Z" fill="#89063C" /><path d="M753.6 697.4c-23 18.1-51.7 23.8-78.4 18.3 13.8-2.9 27.1-9 39-18.3 41.5-32.5 48.7-92.3 16.2-133.7-14.4-18.4-34.2-30.1-55.4-34.5 34.4-7.3 71.5 4.9 94.7 34.5 32.5 41.4 25.3 101.3-16.1 133.7z" fill="#6D0333" /><path d="M286.7 783.1a95.2 95.2 0 1 0 190.4 0 95.2 95.2 0 1 0-190.4 0Z" fill="#89063C" /><path d="M440.7 858.1c-23 18.1-51.7 23.8-78.4 18.3 13.8-2.9 27.1-9 39-18.3 41.5-32.5 48.7-92.3 16.2-133.7-14.4-18.4-34.2-30.1-55.4-34.5 34.4-7.3 71.5 4.9 94.7 34.5 32.5 41.4 25.2 101.3-16.1 133.7z" fill="#6D0333" /><path d="M522.6 776.5a95.2 95.2 0 1 0 190.4 0 95.2 95.2 0 1 0-190.4 0Z" fill="#89063C" /><path d="M676.6 851.4c-23 18.1-51.7 23.8-78.4 18.3 13.8-2.9 27.1-9 39-18.3 41.5-32.5 48.7-92.3 16.2-133.7-14.4-18.4-34.2-30.1-55.4-34.5 34.4-7.3 71.5 4.9 94.7 34.5 32.5 41.4 25.3 101.3-16.1 133.7z" fill="#6D0333" /><path d="M191.5 499.8a95.2 95.2 0 1 0 190.4 0 95.2 95.2 0 1 0-190.4 0Z" fill="#89063C" /><path d="M345.4 574.8c-23 18.1-51.7 23.8-78.4 18.3 13.8-2.9 27.1-9 39-18.3 41.5-32.5 48.7-92.3 16.2-133.7-14.4-18.4-34.2-30.1-55.4-34.5 34.4-7.3 71.5 4.9 94.7 34.5 32.6 41.4 25.3 101.3-16.1 133.7z" fill="#6D0333" /><path d="M424.2 871.7a95.2 95.2 0 1 0 190.4 0 95.2 95.2 0 1 0-190.4 0Z" fill="#A30A45" /><path d="M578.1 946.7c-23 18.1-51.7 23.8-78.4 18.3 13.8-2.9 27.1-9 39-18.3 41.5-32.5 48.7-92.3 16.2-133.7-14.4-18.4-34.2-30.1-55.4-34.5 34.4-7.3 71.5 4.9 94.7 34.5 32.6 41.4 25.4 101.2-16.1 133.7z" fill="#89063C" /><path d="M295 548.6a95.2 95.2 0 1 0 190.4 0 95.2 95.2 0 1 0-190.4 0Z" fill="#A30A45" /><path d="M449 623.5c-23 18.1-51.7 23.8-78.4 18.3 13.8-2.9 27.1-9 39-18.3 41.5-32.5 48.7-92.3 16.2-133.7-14.4-18.4-34.2-30.1-55.4-34.5 34.4-7.3 71.5 4.9 94.7 34.5 32.6 41.4 25.2 101.3-16.1 133.7z" fill="#89063C" /><path d="M642.1 443.9a95.2 95.2 0 1 0 190.4 0 95.2 95.2 0 1 0-190.4 0Z" fill="#A30A45" /><path d="M796.1 518.8c-23 18.1-51.7 23.8-78.4 18.3 13.8-2.9 27.1-9 39-18.3 41.5-32.5 48.7-92.3 16.2-133.7-14.4-18.4-34.2-30.1-55.4-34.5 34.4-7.3 71.5 4.9 94.7 34.5 32.5 41.4 25.2 101.4-16.1 133.7z" fill="#89063C" /><path d="M555.581639 440.430569a95.2 95.2 0 1 0 134.630781-134.635481 95.2 95.2 0 1 0-134.630781 134.635481Z" fill="#89063C" /><path d="M681.6 448.1c-23 18.1-51.7 23.8-78.4 18.3 13.8-2.9 27.1-9 39-18.3 41.5-32.5 48.7-92.3 16.2-133.7-14.4-18.4-34.2-30.1-55.4-34.5 34.4-7.3 71.5 4.9 94.7 34.5 32.6 41.3 25.4 101.3-16.1 133.7z" fill="#6D0333" /><path d="M537 539.1a95.2 95.2 0 1 0 190.4 0 95.2 95.2 0 1 0-190.4 0Z" fill="#CE1D50" /><path d="M690.9 614.1c-23 18.1-51.7 23.8-78.4 18.3 13.8-2.9 27.1-9 39-18.3 41.5-32.4 48.7-92.3 16.2-133.6-14.4-18.4-34.2-30.1-55.4-34.5 34.4-7.3 71.5 4.9 94.7 34.5 32.6 41.3 25.3 101.2-16.1 133.6z" fill="#B50F46" /><path d="M248.9 377.3a95.2 95.2 0 1 0 190.4 0 95.2 95.2 0 1 0-190.4 0Z" fill="#A30A45" /><path d="M402.9 452.4c-23 18.1-51.7 23.8-78.4 18.3 13.8-2.9 27.1-9 39-18.3 41.5-32.5 48.7-92.3 16.2-133.7-14.4-18.4-34.2-30.1-55.4-34.5 34.4-7.3 71.5 4.9 94.7 34.5 32.5 41.3 25.3 101.2-16.1 133.7z" fill="#89063C" /><path d="M397.5 319.4a95.2 95.2 0 1 0 190.4 0 95.2 95.2 0 1 0-190.4 0Z" fill="#CE1D50" /><path d="M551.4 394.5c-23 18.1-51.7 23.8-78.4 18.3 13.8-2.9 27.1-9 39-18.3 41.5-32.5 48.7-92.3 16.2-133.7-14.4-18.4-34.2-30.1-55.4-34.5 34.4-7.3 71.5 4.9 94.7 34.5 32.6 41.3 25.3 101.2-16.1 133.7z" fill="#B50F46" /><path d="M262.6 645.3a95.2 95.2 0 1 0 190.4 0 95.2 95.2 0 1 0-190.4 0Z" fill="#F73F62" /><path d="M416.5 720.4c-23 18.1-51.7 23.8-78.4 18.3 13.8-2.9 27.1-9 39-18.3 41.5-32.5 48.7-92.3 16.2-133.7-14.4-18.4-34.2-30.1-55.4-34.5 34.4-7.3 71.5 4.9 94.7 34.5 32.6 41.3 25.4 101.2-16.1 133.7z" fill="#D81946" /><path d="M390.3 468.3a95.2 95.2 0 1 0 190.4 0 95.2 95.2 0 1 0-190.4 0Z" fill="#F73F62" /><path d="M544.2 543.3c-23 18.1-51.7 23.8-78.4 18.3 13.8-2.9 27.1-9 39-18.3 41.5-32.5 48.7-92.3 16.2-133.7-14.4-18.4-34.2-30.1-55.4-34.5 34.4-7.3 71.5 4.9 94.7 34.5 32.6 41.5 25.4 101.3-16.1 133.7z" fill="#D81946" /><path d="M499.6 735.3a95.2 95.2 0 1 0 190.4 0 95.2 95.2 0 1 0-190.4 0Z" fill="#CE1D50" /><path d="M653.6 810.2c-23 18.1-51.7 23.8-78.4 18.3 13.8-2.9 27.1-9 39-18.3 41.5-32.5 48.7-92.3 16.2-133.7-14.4-18.4-34.2-30.1-55.4-34.5 34.4-7.3 71.5 4.9 94.7 34.5 32.5 41.4 25.2 101.4-16.1 133.7z" fill="#B50F46" /><path d="M357.8 740.6a95.2 95.2 0 1 0 190.4 0 95.2 95.2 0 1 0-190.4 0Z" fill="#CE1D50" /><path d="M511.8 815.6c-23 18.1-51.7 23.8-78.4 18.3 13.8-2.9 27.1-9 39-18.3 41.5-32.5 48.7-92.3 16.2-133.7-14.4-18.4-34.2-30.1-55.4-34.5 34.4-7.3 71.5 4.9 94.7 34.5 32.6 41.3 25.3 101.2-16.1 133.7z" fill="#B50F46" /><path d="M451.6 622.4a95.2 95.2 0 1 0 190.4 0 95.2 95.2 0 1 0-190.4 0Z" fill="#F73F62" /><path d="M605.5 697.4c-23 18.1-51.7 23.8-78.4 18.3 13.8-2.9 27.1-9 39-18.3 41.5-32.5 48.7-92.3 16.2-133.7-14.4-18.4-34.2-30.1-55.4-34.5 34.4-7.3 71.5 4.9 94.7 34.5 32.7 41.4 25.3 101.3-16.1 133.7z" fill="#D81946" /><path d="M737.3 340.7c-5.4 0-10.7 0.4-16 1.2-4.6-14.7-12.5-28.2-23.2-39.5 35-24.2 59.1-59.4 73.5-85.6 5.8-10.5 7-22 3.4-32.3-3.5-10-11.2-18.1-21.8-22.6-0.9-0.4-2-0.8-3-1.1-39.3-13.5-97-25.4-149.6-5.3-20.2 7.7-39.3 20-57 36.7 7.6-29 22.8-55.7 44.3-77.1 14.9-14.9 15-38.6 0.5-54.3-0.8-1.1-1.7-1.9-2.5-2.5-15.2-13.1-38.3-12.2-52.5 2-32.2 32.3-54.5 71.9-65.1 115.4-10.8-15.5-23.1-28.5-36.9-38.8-44.9-33.8-103.7-38.3-145.2-36.2-1.2 0-2.2 0.1-3.1 0.3-11.5 1.5-21.3 7.1-27.4 15.8-6.3 8.9-8.3 20.3-5.6 32 5.4 23.7 13.1 45.6 23 65.2 13.2 26 29.9 47 49.6 62.4-46.6 9.9-81.7 51.4-81.7 100.9 0 9.6 1.3 19 3.9 28.2-37 16.4-61.3 53.4-61.3 94.3 0 25.8 9.6 50.5 26.9 69.5 14.5 16 33.5 26.8 54.4 31.3-6.7 13.9-10.2 29.1-10.2 44.7 0 32.4 15 62.5 40.5 82-10.8 16.6-16.4 35.8-16.4 55.8 0 56.9 46.3 103.2 103.2 103.2 12 0 23.6-2 34.7-6 4.4 52.9 48.8 94.6 102.8 94.6 54.2 0 98.8-42 102.9-95.3 54.8-2.4 98.7-47.7 98.7-103.1 0-18.4-4.8-36-13.8-51.6 51.1-6.1 90.8-49.7 90.8-102.5 0-30.4-13.4-58.9-36-78.3 18.7-4.6 35.8-14.3 49.5-28.5 18.7-19.3 29-44.8 29-71.7-0.1-56.9-46.4-103.2-103.3-103.2z m-18.1 192.7c0.1 1.7 0.2 3.5 0.2 5.2v0.5c0 21.8-8.1 42.7-22.8 58.8-12.5 13.6-28.8 22.9-46.6 26.5v-2.1c0-4.4-0.3-8.8-0.9-13.2-2.4-18.9-10.1-36.9-22.1-51.7-13.9-17.2-32.7-29.3-53.8-34.9 10-16.2 15.5-35.1 15.5-54.3 0-1.6 0-3.2-0.1-4.7 13.2-7.6 28.2-11.7 43.6-11.7 3.1 0 6.1 0.2 9.1 0.5 10.2 1.1 19.9 3.9 29.1 8.3 28.1 13.8 46.8 41.7 48.8 72.8zM679.1 713c0.5 2 1 3.9 1.3 5.9 1 5.4 1.5 10.9 1.5 16.4 0 44.7-33.5 82-77.9 86.7-3 0.3-6.2 0.5-9.3 0.5-21.6 0-41.9-7.8-57.8-21.9 4.2-5.8 7.7-12 10.6-18.6 5.7-13.1 8.7-27 8.7-41.4 0-5.2-0.4-10.3-1.1-15.3 28.1-2.2 54-15.8 71.9-37.9 0.3-0.4 0.6-0.7 0.8-1 5.9-7.5 10.7-15.6 14.3-24.3 18.2 11.7 31.5 29.8 37 50.9zM433.9 825.7c-19-4.2-36.3-15-48.7-30.2a87.627 87.627 0 0 1-19.4-55c0-17.1 5-33.6 14.3-47.8 15.4-23.3 40.6-37.7 68.3-39.2 8.3 26.3 26.9 48.3 51.8 60.9 12.1 6.2 25.1 9.8 38.7 10.8 0.9 5 1.3 10.2 1.3 15.3 0 12.2-2.5 23.9-7.3 35-2.8 6.4-6.4 12.5-10.7 18.1-0.1 0.1-0.2 0.1-0.3 0.2-0.1 0.1-0.2 0.1-0.3 0.2-0.1 0.1-0.2 0.1-0.3 0.2-0.1 0.1-0.2 0.2-0.4 0.3-0.1 0.1-0.2 0.1-0.3 0.2-0.1 0.1-0.2 0.2-0.4 0.3l-0.1 0.1-0.1 0.1-0.3 0.3c-0.1 0.1-0.2 0.2-0.2 0.3-0.1 0.1-0.2 0.2-0.2 0.3-0.1 0.1-0.2 0.2-0.2 0.4-0.1 0.1-0.1 0.2-0.2 0.3-0.1 0.1-0.2 0.3-0.2 0.4 0 0.1-0.1 0.2-0.1 0.3-0.1 0.1-0.1 0.3-0.2 0.4 0 0.1-0.1 0.2-0.1 0.3 0 0.1-0.1 0.2-0.1 0.3-14.9 16.7-35.1 26.9-57.4 28.8-2.5 0.2-5 0.3-7.7 0.3-6.5 0.2-13-0.5-19.2-1.9zM303.5 557.6c-0.3-3-0.5-6-0.5-9 0-26.6 12.3-51.9 33.1-68.4 2.6 0.2 5.3 0.3 8 0.3 11.9 0 23.6-2 34.7-6 1.2-0.4 2.4-0.9 3.7-1.4 2.1 45.1 33.6 83.5 76.6 94.9-5.1 8.2-9 17-11.6 26.1-18-31.6-51.8-52.1-89.7-52.1-19.2 0.1-38.1 5.5-54.3 15.6zM407 303.2s0-0.1 0 0c0.1-0.7 0.2-1.2 0.3-1.7 7.9-37.7 40.1-66.1 78.5-69h0.1c11.5-0.9 22.9 0.5 33.6 3.9 2.5 0.8 5.1 1.8 7.6 2.8 22.1 9.5 39.5 27.9 47.6 50.5 3.4 9.5 5.2 19.4 5.2 29.7 0 1.2 0 2.3-0.1 3.4-0.9 25-12.3 47.9-31.4 63.7-5.2-4-10.7-7.5-16.5-10.4-14.5-7.3-30.1-11-46.4-11-17.7 0-35.1 4.5-50.4 13.2-1.3 0.7-2.6 1.5-3.9 2.3-0.1 0.1-0.3 0.2-0.4 0.2-16.1-16.3-25.3-38.3-25.3-61.4 0-5.5 0.5-10.9 1.5-16.2z m27.6 94.3c2.6-1.9 5.4-3.6 8.3-5.3 13-7.3 27.7-11.1 42.6-11.1 13.8 0 27 3.1 39.2 9.3 6.6 3.3 12.7 7.5 18.3 12.3 16.6 14.5 26.9 34.5 29.2 56.3V459.3c0 0.2 0 0.4 0.1 0.5V460.1c0.3 2.7 0.4 5.4 0.4 8.2 0 18.7-5.8 36.4-16.7 51.3h-0.4c-1.4-0.1-2.7-0.2-4.1-0.3h-0.8c-1.2 0-2.5-0.1-3.7-0.1h-0.8c-1.4 0-2.7 0-4.1 0.1h-0.9l-4.2 0.3c-20.9 2-40.6 10.2-56.7 23.9-3.8 3.2-7.4 6.7-10.7 10.5-40.9-7.6-71.2-43.7-71.2-85.7 0-2.4 0.1-4.9 0.3-7.3 0.2-2.1 0.4-4.2 0.8-6.3 3.4-22.8 16.3-43.7 35.1-57.2z m180 170c12.5 15.4 19.4 34.9 19.4 54.9 0 3.5-0.2 7.1-0.6 10.5-0.6 5.1-1.7 10.2-3.2 15.1-3.2 10.3-8.2 19.9-15 28.5-0.2 0.2-0.4 0.5-0.6 0.7 0 0 0 0.1-0.1 0.1-16.7 20.6-41.4 32.3-67.8 32.3h-1.1c-0.8 0-1.5 0-2.2-0.1h-0.1c-12.6-0.5-24.7-3.6-36-9.3-22.6-11.5-39.1-32.2-45.2-56.7-0.7-2.8-1.3-5.8-1.7-8.8 0-0.1 0-0.3-0.1-0.4v-0.2c-0.1-0.8-0.2-1.5-0.3-2.3v-0.5c-0.3-2.9-0.4-5.9-0.4-8.8v-0.8-0.1c0.2-19.7 6.8-38.2 19.1-53.5 0.1-0.1 0.2-0.2 0.2-0.3 3.5-4.3 7.4-8.3 11.6-11.9 13.6-11.5 30.2-18.5 47.9-20.2 5.6-0.5 11.3-0.5 16.8 0 0.3 0 0.5 0 0.8 0.1 0.3 0 0.6 0.1 1 0.1 0.5 0.1 1 0.1 1.5 0.2 22.1 2.8 42 14 56.1 31.4z m58.6-123.1c-9.6-4.2-19.8-6.8-30.2-7.9-3.5-0.4-7.1-0.6-10.7-0.6-16 0-31.6 3.7-45.8 10.7-3.9-18.5-12.9-35.5-26-49.3 21.5-18.7 34.3-45.1 35.4-73.9 0.1-1.3 0.1-2.6 0.1-4 0-9.5-1.3-18.9-3.8-27.9 29.8-11.3 63.7-5.4 88.1 15.8a87.038 87.038 0 0 1 27.6 45.7c7 29.7-1.7 60.2-23.2 81.7-3.7 3.6-7.5 6.8-11.5 9.7z m-66.8-273.9c26.6-10.2 72.2-17.5 138.8 5.5 0.1 0 0.3 0.1 0.4 0.1 0.3 0.1 0.6 0.2 0.7 0.3 0.1 0.1 0.3 0.1 0.5 0.2 6.5 2.8 11.2 7.4 13.2 13.2 2.1 6 1.2 12.8-2.3 19.4-14 25.4-37.6 59.8-71.7 82.3-28.3-21.9-66-27.5-99.4-14.9-10.4-22.7-28.8-41-51.7-51.3 0.8-1 1.5-1.9 2.3-2.8 21-25.1 44.2-42.5 69.2-52z m-61.6-98.9c8.4-8.4 21.9-8.8 30.8-1.1 0.1 0.1 0.2 0.1 0.2 0.2l0.1 0.1c0.2 0.2 0.4 0.4 0.6 0.7 8.9 9.3 8.9 23.5 0.1 32.3-29.7 29.7-48.5 68.8-53.3 110.2-1.5 1.8-3 3.7-4.5 5.6-9.2-2.4-18.8-3.6-28.5-3.3-3.1-7.2-6.4-14.1-9.9-20.7 8.1-47.1 30.3-89.9 64.4-124z m-279.2 73.5c-1.6-7.2-0.5-14.1 3.1-19.2 3.5-5 9.4-8.3 16.4-9.2h0.1c0.3 0 0.8-0.1 1.2-0.1h0.4c38.9-2 93.9 2.1 135 33 16.9 12.6 31.5 29.9 43.4 51.3 3 5.4 5.9 11.1 8.6 17.1-38.5 7.2-70.2 36.1-80.6 74.2-16.1-4-30.8-9.6-43.7-17-0.1-0.1-0.3-0.2-0.4-0.2-5-2.8-9.8-6-14.4-9.5-43.9-32.8-62.1-89.5-69.1-120.4z m77.8 145c13.9 7.7 29.6 13.7 46.8 17.8-0.4 3.8-0.7 7.6-0.7 11.5 0 26.5 10.2 51.9 28.3 71-18.2 15.9-30.5 37.9-34.3 61.8-0.2 1-0.3 2.1-0.4 3.1-3.2 1.6-6.4 3-9.7 4.2-9.4 3.4-19.2 5.1-29.3 5.1-3.2 0-6.4-0.2-9.5-0.5-32.6-3.5-61.1-25.7-72.4-56.6-3.5-9.6-5.3-19.7-5.3-30.1 0-47.9 38.7-86.9 86.5-87.3zM222.2 558.5c-14.7-16.1-22.7-36.9-22.7-58.7 0-34.2 20.2-65.2 50.9-79.3 12.7 27.4 37.1 48 65.9 56.1-18.5 19.1-29.3 45-29.3 71.9 0 6.7 0.7 13.4 1.9 19.9-5.8 5.2-11.1 11.1-15.6 17.5-19.6-2.9-37.6-12.6-51.1-27.4z m48.4 86.8c0-16.4 4.6-32.4 13.2-46.2 0.1-0.1 0.1-0.2 0.2-0.3 5.1-8.1 11.4-15.2 18.8-21.2 15.5-12.6 35-19.5 55-19.5 40.3 0 75.1 27.3 84.7 66.3 0.7 2.8 1.3 5.7 1.7 8.7v0.1c0.1 0.8 0.2 1.9 0.4 2.9 0 0.2 0 0.4 0.1 0.6 0 0.4 0 0.7 0.1 1.1-31.6 2.5-60.2 19.4-77.9 46.1-9.6 14.5-15.2 31-16.6 48.3-14.1-1.2-27.7-5.8-39.6-13.5-25.2-16.2-40.1-43.6-40.1-73.4z m24.1 137.8c0-16.9 4.8-33.1 13.8-47.1 12.8 7 27 11.1 41.6 12.2 1.6 20.9 9.5 41 22.7 57.4 12.5 15.5 29.4 27 48.1 33.1-2.8 8.4-3.9 18.3-4.4 24.4-10.9 4.8-22.6 7.2-34.7 7.2-48 0-87.1-39.1-87.1-87.2z m224.7 175.8c-48.1 0-87.2-39.1-87.2-87.2 0-1 0-2 0.1-3 0.3-7.6 1.8-19.2 4.3-26.1 5.4 0.9 10.9 1.3 16.5 1.3 3.2 0 6.2-0.1 9.1-0.4 24.7-2.2 47.3-12.9 64.6-30.5 18.8 16.6 42.7 25.7 68.1 25.7 1.7 0 3.5 0 5.2-0.1 4.4 10.5 6.6 21.7 6.6 33.3-0.1 47.9-39.2 87-87.3 87z m102.9-95.3c-0.7-9.4-2.7-18.5-5.9-27.3 45.2-9.5 78.6-48.1 81.5-94.6 4.7 10.9 7.2 22.6 7.2 34.8-0.1 46.6-36.8 84.7-82.8 87.1zM782 622.4c0 47.6-38.3 86.3-85.6 87.2-0.8-0.9-1.5-1.8-2.3-2.6-7.3-25.5-24.1-47.1-46.9-60.6 0.4-1.8 0.8-3.6 1.1-5.4 23-3.6 44.2-14.9 60.1-32.3 15.6-17.1 24.9-38.7 26.7-61.7h3.7c26.7 15.7 43.2 44.4 43.2 75.4z m18-117.9c-15.3 15.8-35.6 25.1-57.5 26.4-2.6-1.3-5.2-2.6-7.8-3.7-3.5-30.5-20.6-57.8-46.1-74.5 2.5-2.1 5-4.3 7.3-6.6 23.5-23.5 34-56.1 29.1-88.5 4.1-0.6 8.2-0.9 12.4-0.9 48.1 0 87.2 39.1 87.2 87.2-0.1 22.7-8.8 44.3-24.6 60.6z" fill="#333333" /></svg>