<?xml version="1.0" standalone="no"?><!DOCTYPE svg PUBLIC "-//W3C//DTD SVG 1.1//EN" "http://www.w3.org/Graphics/SVG/1.1/DTD/svg11.dtd"><svg class="icon" width="200px" height="200.00px" viewBox="0 0 1024 1024" version="1.1" xmlns="http://www.w3.org/2000/svg"><path d="M460.3 169.3c-23.5 23.5-36.6 54.9-36.6 88.3v92.9l-17.2-1-25.7-1.5v-90.5c0-44.7 17.4-86.9 49.1-118.6 8-8 20.8-8.3 29.3-1 0.4 0.3 0.8 0.7 1 1 8.5 8.4 8.5 21.9 0.1 30.4z" fill="#4F4F56" /><path d="M460.3 169.3c-23.5 23.5-36.6 54.9-36.6 88.3v92.9l-17.2-1v-90c0-44.7 17.4-86.9 49.1-118.6 1.1-1.1 2.4-2.1 3.6-2.9 0.4 0.3 0.8 0.7 1 1 8.5 8.3 8.5 21.8 0.1 30.3z" fill="#383842" /><path d="M294.8 68.2c81.4 34.5 111.7 146.7 111.7 146.7s-101.7 56.4-183.2 21.9S111.6 90.1 111.6 90.1s101.8-56.4 183.2-21.9z" fill="#52DBC0" /><path d="M406.5 214.8s-101.7 56.3-183.2 21.9S111.6 90.1 111.6 90.1s12-6.7 31.2-14c15.1 35.9 46.6 92.8 100.6 115.7 53.3 22.5 115.4 6.1 151.8-7.8 7.9 18.1 11.3 30.8 11.3 30.8z" fill="#0DC6A5" /><path d="M637.1 795.8c36.4-111.1 53.7-225.4 23.1-342.7-20.9-80-90.7-165.9-176.3-189.4 0 0-47.7-10.9-96.2-7.6-49.3 3.3-99.4 20.9-104 22.8-110.3 44.8-177.1 200.4-133 357.3 53 188.7 185.9 296.4 305.6 323.3 86 19.3 192.4-0.1 208-35.2 19.5-43.5-57.8-35-27.2-128.5z" fill="#FFEC40" /><path d="M664.4 924.2C650.1 956.1 561 975 480.2 963.7c44-6.2 78.9-20.5 87.4-39.5 19.4-43.4-57.9-34.9-27.2-128.4 36.4-111.1 53.7-225.4 23.1-342.7-20.9-80-90.7-165.9-176.3-189.4 0 0-10.3-2.4-26.2-4.6 8.8-1.4 17.8-2.5 26.8-3.1 48.4-3.3 96.2 7.6 96.2 7.6C569.5 287.1 639.3 373 660.2 453c30.6 117.4 13.3 231.6-23.1 342.7-30.6 93.6 46.7 85.1 27.3 128.5z" fill="#FFCE43" /><path d="M903.9 763.2c-32.7 116.2-114.5 182.6-188.2 199.1-22.1 5-46.5 5.8-68 3.4-30-3.2-54.5-12.5-60.2-25.1-12-26.8 35.7-21.5 16.8-79.1-22.4-68.4-33.1-138.8-14.2-211.1C603 601.1 646 548.2 698.7 533.7c0 0 9.4-2.1 22.9-3.6 10.4-1.2 23.3-1.9 36.3-1.1 30.4 2.1 61.2 12.9 64.1 14 67.9 27.7 109.1 123.6 81.9 220.2z" fill="#F79E00" /><path d="M857 763.2c-32.7 116.2-114.5 182.6-188.2 199.1-6.9 1.5-13.9 2.7-21.1 3.4-30-3.2-54.5-12.5-60.2-25.1-12-26.8 35.7-21.5 16.8-79.1-22.4-68.4-33.1-138.8-14.2-211.1C603 601.1 646 548.2 698.7 533.7c0 0 9.4-2.1 22.9-3.6 26.6 3.4 51 12 53.5 13C843 570.7 884.2 666.6 857 763.2z" fill="#FFBA0D" /><path d="M819.2 759.8c-15.8 78-63.3 134.3-106 125.6-3.6-0.7-7-1.9-10.3-3.5-35.8-17.1-52.9-82-38.5-153.5 12.3-60.6 43.6-108 77-122.1 9.6-4.1 19.4-5.4 29-3.5 42.7 8.7 64.6 79 48.8 157z" fill="#AA5B43" /><path d="M779.9 759.8c-12.3 60.6-43.6 108-77 122.2-35.8-17.1-52.9-82-38.5-153.5 12.3-60.6 43.6-108 77-122.1 35.8 17 52.9 81.9 38.5 153.4z" fill="#BC6F53" /><path d="M906.1 624.4c-16.4-42.1-45.9-74.4-81-88.8l-0.2-0.1c-0.3-0.1-33.5-12.2-66.4-14.5-15-0.9-28.8 0.1-37.7 1.1-13.8 1.5-23.4 3.7-23.8 3.7l-0.4 0.1c-5 1.4-9.9 3.1-14.7 5-2.5-27.1-7.1-53.9-13.9-80-20.4-77.5-89.4-169.5-182-194.9l-0.3-0.1c-1-0.2-23.6-5.3-53.6-7.5 2.1-27.7 14-53.6 33.9-73.5 5.6-5.6 8.6-13 8.6-20.9 0-7.7-3-14.9-8.4-20.4-0.7-0.8-1.4-1.5-2-1.9-11.7-9.9-29.2-9.2-40 1.6-10.6 10.6-19.6 22.3-27.1 34.9-2.6-5.6-5.6-11.5-8.9-17.5-24.1-43.9-55.3-75-90.3-89.8-35-14.8-79-15.6-127.4-2.3-36.1 9.9-61.8 24-62.8 24.6l-5.5 3 1.6 6c0.3 1.2 8 29.4 26 62.2 24.1 43.9 55.3 75 90.3 89.8 18.5 7.8 39.5 11.7 62.3 11.7 20.4 0 42.3-3.1 65.1-9.4 9.6-2.6 18.4-5.6 26.3-8.5-0.4 3.8-0.7 7.6-0.9 11.4-43.9 5.1-86.1 19.5-92.3 22.1-28.3 11.5-54 29.9-76.4 54.7-21.9 24.2-39.5 53.3-52.4 86.4-27.1 69.5-30.2 149.7-8.8 225.8 24.9 88.7 69.8 166.9 129.9 225.9 52.9 52 117.5 88.6 181.7 103.1 23.4 5.2 49 7.9 74.3 7.9 28.2 0 56.1-3.2 80.6-9.6 10.4 3.8 23 6.5 37.4 8.1 8.1 0.9 16.4 1.4 24.7 1.4 15.9 0 31.6-1.7 46-4.9 40.1-9 80.3-31.8 113.3-64.3 37.3-36.7 65.3-85.3 80.8-140.5 13.3-47.6 11.3-97.7-5.6-141.1z m-679.7-395c-66.2-28-97.6-111.8-105.2-135.3 22.2-10.8 104.4-46.6 170.5-18.6s97.6 111.8 105.2 135.3c-22.2 10.9-104.3 46.7-170.5 18.6z m184-7.5l5.5-3-1.6-6c-0.2-0.7-3-10.9-9-26 7.7-15.6 17.9-29.8 30.4-42.2 4.9-4.9 13-5.2 18.4-0.6l0.6 0.7c2.6 2.5 4 5.9 4 9.5 0 3.6-1.4 7-3.9 9.6-22.7 22.7-36.2 52.3-38.6 84-9.3-0.3-18.4-0.1-27 0.4 0.3-5.6 1-11.2 1.9-16.8 11.6-5.4 18.7-9.3 19.3-9.6z m47.7 729.8c-61.3-13.8-123.1-48.9-174-98.9-58.1-57-101.5-132.7-125.7-218.8-20.4-72.7-17.5-149.3 8.4-215.6 12.2-31.3 28.8-58.7 49.4-81.5 20.8-23 44.5-40 70.6-50.6 0.4-0.2 46.1-17.2 94.8-21.7 2.3-0.2 4.5-0.4 6.7-0.5 11-0.7 22.9-0.8 35.1-0.2 31.2 1.6 56.4 7.1 58.6 7.6 38.9 10.7 76.4 35.3 108.4 71.1 29.8 33.3 51.9 73.3 62.1 112.6 7.1 27.1 11.8 55.2 14 83.4-42.7 24.1-73.7 70-84.1 109.8-17 65.2-12.5 133.7 14.3 215.6 9.5 29.1 0.6 38.4-8 47.4-7 7.3-15.7 16.4-8.4 32.5 1.6 3.6 4.3 6.9 7.9 10-40.9 7.5-89.8 6.9-130.1-2.2zM896.2 761c-14.8 52.5-41.3 98.6-76.6 133.4-30.9 30.4-68.4 51.7-105.6 60.1-20.1 4.6-43.3 5.7-65.4 3.2-32.1-3.4-50.4-13-53.7-20.4-2.7-6-1.2-7.9 5.4-14.8 9.6-10.1 24.2-25.3 11.7-63.5-25.8-78.9-30.3-144.5-14.1-206.6 6.2-23.7 19.6-47.9 37.6-68.1 19.3-21.6 41.8-36.4 65.2-42.9 1.3-0.3 10-2.1 21.9-3.4 8.3-1 21-1.9 34.8-1.1 30 2.1 60.1 12.9 61.7 13.5 31 12.7 57.3 41.7 72.1 79.7 15.6 40.3 17.4 86.8 5 130.9z" fill="#333333" /><path d="M772 595c-11-2.2-22.4-0.8-33.7 4-37.1 15.6-69.1 65.8-81.7 127.9-15.1 75 2.9 143.2 42.9 162.3 4.1 2 8.1 3.3 12.2 4.1 3.4 0.7 6.9 1 10.4 1 12 0 24.3-4 36.2-11.9 31.6-20.9 58-67.3 68.9-121 7.9-39 7-77.5-2.7-108.5-10.3-32.5-28.9-53.1-52.5-57.9z m39.4 163.2c-10.1 49.7-33.8 92.1-62 110.8-11.9 7.9-23.6 10.8-34.6 8.5-2.8-0.5-5.5-1.5-8.4-2.9-15.2-7.3-27.2-25.4-33.8-51.1-6.9-27.1-7-60.4-0.3-93.6 11.4-56.1 40.4-102.9 72.3-116.3 5.8-2.5 11.5-3.7 17.1-3.7 2.4 0 4.8 0.2 7.1 0.7 17.7 3.6 32 20.3 40.3 47 8.8 28.5 9.6 64.2 2.3 100.6z" fill="#333333" /></svg>