<?xml version="1.0" standalone="no"?><!DOCTYPE svg PUBLIC "-//W3C//DTD SVG 1.1//EN" "http://www.w3.org/Graphics/SVG/1.1/DTD/svg11.dtd"><svg class="icon" width="200px" height="200.00px" viewBox="0 0 1024 1024" version="1.1" xmlns="http://www.w3.org/2000/svg"><path d="M489.8 203.3c-24.6 24.6-38.3 57.3-38.3 92.2v97l-17.9-1-26.7-1.6v-94.5c0-46.8 18.1-90.8 51.3-123.8 8.4-8.4 21.7-8.7 30.5-1 0.4 0.3 0.8 0.7 1 1 8.8 8.7 8.8 22.9 0.1 31.7z" fill="#4F4F56" /><path d="M489.8 203.3c-24.6 24.6-38.3 57.3-38.3 92.2v97l-17.9-1v-93.9c0-46.8 18.1-90.8 51.3-123.8 1.2-1.2 2.5-2.2 3.8-3 0.4 0.3 0.8 0.7 1 1 8.8 8.5 8.8 22.7 0.1 31.5z" fill="#383842" /><path d="M378.7 99.6c69.3 60.9 62.5 182.1 62.5 182.1s-119.3 22.4-188.7-38.5S190 61 190 61s119.3-22.3 188.7 38.6z" fill="#52DBC0" /><path d="M441.2 281.7s-119.3 22.4-188.7-38.5S190 61 190 61s14.2-2.6 35.5-3.7c3.1 40.5 15.7 107.4 61.6 147.7 45.4 39.9 112.4 44 153.1 42.1 1.8 20.8 1 34.6 1 34.6z" fill="#0DC6A5" /><path d="M771.5 623.7c0 189.6-151 343.3-343.8 343.3S84.1 813.3 84.1 623.7c0-150.6 85.9-320.3 230.5-324.9 76.3-2.4 115.8 37.8 115.8 37.8s61.7-38 130.9-30.3C697 321.4 771.5 480.6 771.5 623.7z" fill="#FFB255" /><path d="M771.5 623.7c0 189.6-151 343.3-343.8 343.3-21.5 0-42.5-1.9-62.9-5.6 162.7-29.1 286.1-169.3 286.1-337.8 0-127.7-63.4-268.1-173.5-307.6 23.2-7.4 52.7-13.2 83.9-9.7C697 321.4 771.5 480.6 771.5 623.7z" fill="#FF960B" /><path d="M939.9 765.8c0 111.1-91.5 201.2-204.4 201.2s-204.4-90.1-204.4-201.2c0-88.2 53.4-187.6 138.1-190.3 44.7-1.4 67.9 22.2 67.9 22.2s36.1-22.3 76.7-17.8c79.5 9 126.1 102.1 126.1 185.9z" fill="#F98923" /><path d="M822.8 777.5c0.9 62.1-80.9 113.7-80.9 113.7s-83.3-49.2-84.1-111.3c-0.9-62.1 80.9-113.7 80.9-113.7s83.1 49.2 84.1 111.3z" fill="#994D33" /><path d="M822.8 777.5c0.9 62.1-80.9 113.7-80.9 113.7s-8.3-4.9-19.7-13.5c24.2-20 59.7-56.5 59.1-97.6-0.6-42.5-39.8-79-64.5-97.8 12.4-10.3 21.7-16.2 21.7-16.2s83.3 49.4 84.3 111.4z" fill="#823722" /><path d="M939.9 765.8c0 111.1-91.5 201.2-204.4 201.2-10.1 0-20.1-0.8-29.8-2.1 98.9-14.2 174.8-97.8 174.8-199.1 0-77.4-39.8-162.7-108.4-182.3 12.2-3.2 26.6-5.2 41.7-3.6 79.5 9 126.1 102.1 126.1 185.9z" fill="#E87003" /><path d="M913.5 640.6c-24.7-39.8-59.7-64.2-98.8-68.6-13.6-1.5-26.6-0.3-38 2.2-7.6-66.4-29.8-129.2-62.9-177.6-39.4-57.6-91.8-91.5-151.5-98.2-39.3-4.4-76 5.1-102.7 15.5v-18.4c0-32.6 12.8-63.4 36-86.6 5.7-5.8 8.8-13.4 8.8-21.5 0-8-3.1-15.4-8.6-21.1-0.7-0.8-1.4-1.5-1.9-1.9-12-10.3-30-9.7-41.2 1.5-5.5 5.5-10.7 11.4-15.5 17.5-11.1-38.1-29.1-68.8-53.1-89.8-29.7-26.1-73-41.4-125.2-44.1-39-2.1-69 3.4-70.2 3.7-3.6 0.7-6.3 3.7-6.5 7.4-0.1 1.3-1.7 31.7 5.3 70.2 9.4 51.4 30.1 92.4 59.9 118.5 29.7 26.1 73 41.3 125.2 44.1 6.1 0.3 11.9 0.5 17.5 0.5 3.1 0 6.1 0 9-0.1v13.3c-19.8-9-48.2-17.2-84.6-16.1-36.1 1.1-70.2 12.2-101.2 32.9-28.4 18.9-53.5 45.3-74.8 78.5C98.9 464.3 76.2 545 76.2 623.9c0 94.2 36.2 182.4 101.8 248.4 66 66.4 154.7 102.9 249.8 102.9 62 0 122.4-15.8 175.2-45.9 36.4 28.7 82.5 45.9 132.6 45.9C852.7 975.2 948 881.4 948 766c-0.1-44.4-12.7-90.1-34.5-125.4zM463.9 177.3c5.3-5.3 13.9-5.6 19.6-0.6l0.1 0.1c0.2 0.2 0.3 0.4 0.5 0.6 2.7 2.7 4.2 6.3 4.2 10.1 0 3.9-1.5 7.5-4.2 10.2-16.8 16.8-28.7 37.1-35.2 59.2-0.6-12.1-2-27.6-5.2-44.8-0.5-2.8-1.1-5.5-1.6-8.3 6.3-9.5 13.6-18.4 21.8-26.5z m-90.6 100c-61.3-3.2-96.7-23.6-115.5-40.1-34-29.9-48.5-75.8-54.6-109-4.9-26.6-5.4-49.6-5.3-60.3 10.6-1.5 33.5-3.9 60.4-2.4 61.1 3.3 96.4 23.7 115.1 40.1 34 29.9 48.4 75.7 54.6 109 4.9 26.6 5.4 49.5 5.4 60.3-10.6 1.4-33.2 3.8-60.1 2.4z m69.4 12.3c0.3-0.1 0.7-0.2 1-0.3-0.1 2.1-0.1 4.1-0.1 6.2v25.2c-5.1 2.4-9.2 4.5-12.1 6.1-3.5-2.9-9.1-7.1-16.5-11.6v-19.9-2.6c16.4-1.1 26.9-3 27.7-3.1z m-15 669.4c-90.8 0-175.4-34.9-238.4-98.2-62.7-63-97.2-147.2-97.2-237.1 0-75.9 21.8-153.5 59.8-212.9 20-31.3 43.6-56.2 70.2-73.8 28.5-19 59.7-29.1 92.8-30.2 40.8-1.3 70.5 10.2 88.2 20.1h0.1c14.2 7.9 21.5 15.2 21.6 15.3 2.6 2.7 6.7 3.2 9.9 1.2 0.1 0 7.6-4.6 20-10.2 0 0 0.1 0 0.1-0.1 20.7-9.2 61.9-23.8 105.7-19 54.9 6.1 103.3 37.7 140.1 91.3 32.1 46.9 53.5 108 60.5 172.8-10.1 3.3-18.1 7.1-23 9.6-9.4-7.3-32.7-21.6-69.1-20.5-41.6 1.3-79.7 25-107.2 66.7-24.5 37.1-38.6 85.1-38.6 131.6 0 59.9 25.7 114.1 66.9 152.2-49.3 27.1-105.2 41.2-162.4 41.2z m307.8 0c-108.3 0-196.4-86.7-196.4-193.2 0-43.5 13.1-88.2 36-122.8 24.6-37.2 58.1-58.3 94.4-59.5 1.2 0 2.3-0.1 3.5-0.1 38.1 0 58.3 19.7 58.4 19.9 2.6 2.7 6.7 3.2 9.9 1.2 0.3-0.2 34.2-20.8 71.6-16.7 74.5 8.4 119 97.1 119 178 0 106.5-88.1 193.2-196.4 193.2z"  /><path d="M785.9 692.8c-21.3-20.5-42.3-33-43.1-33.5-2.6-1.5-5.8-1.5-8.3 0.1-0.9 0.5-21.5 13.6-42.2 34.7-28.5 29-42.8 57.9-42.4 85.9 0.4 28 15.4 56.4 44.8 84.6 21.3 20.5 42.3 33 43.2 33.5 1.3 0.7 2.7 1.1 4.1 1.1 1.5 0 3-0.4 4.3-1.2 0.9-0.5 21.5-13.6 42.2-34.7 28.5-29 42.8-57.9 42.4-85.9-0.6-28-15.7-56.5-45-84.6z m-44.1 188.9c-8.6-5.6-28.9-19.8-46.3-39.1l-0.6-0.6c-15.6-17.4-28.8-39-29.1-62.2-0.7-49.1 56.9-92.8 73-104 16.4 10.8 75.2 52.7 76 101.9 0.7 49.1-56.9 92.7-73 104z"  /></svg>