<?xml version="1.0" standalone="no"?><!DOCTYPE svg PUBLIC "-//W3C//DTD SVG 1.1//EN" "http://www.w3.org/Graphics/SVG/1.1/DTD/svg11.dtd"><svg class="icon" width="200px" height="200.00px" viewBox="0 0 1024 1024" version="1.1" xmlns="http://www.w3.org/2000/svg"><path d="M475.5 90.4c-21.5 21.5-33.3 50-33.3 80.3v84.5l-15.6-0.9-23.3-1.4v-82.3c0-40.7 15.8-79.1 44.7-107.9 7.3-7.3 18.9-7.6 26.6-0.9 0.4 0.3 0.7 0.6 0.9 0.9 7.6 7.7 7.6 20 0 27.7z" fill="#4F4F56" /><path d="M475.5 90.4c-21.5 21.5-33.3 50-33.3 80.3v84.5l-15.6-0.9v-81.8c0-40.7 15.8-79.1 44.7-107.9 1-1 2.2-1.9 3.3-2.6 0.4 0.3 0.7 0.6 0.9 0.9 7.6 7.5 7.6 19.8 0 27.5z" fill="#383842" /><path d="M429.5 156.1c234.6 0 347.5 181.5 347.5 405.4S664 966.9 429.5 966.9 82 785.4 82 561.5s112.9-405.4 347.5-405.4z" fill="#B75330" /><path d="M777.1 561.5c0 223.9-112.9 405.4-347.5 405.4-22.7 0-44.4-1.7-64.9-5 190.6-30.6 282.6-198.2 282.6-400.4s-92-369.8-282.6-400.4c20.5-3.3 42.1-5 64.9-5 234.4 0 347.5 181.5 347.5 405.4z" fill="#A33C1C" /><path d="M747 771.9m-195 0a195 195 0 1 0 390 0 195 195 0 1 0-390 0Z" fill="#EA877A" /><path d="M942 771.9c0 107.8-87.3 195-195 195-12.3 0-24.3-1.2-35.9-3.3 90.6-16.8 159.2-96.2 159.2-191.7S801.8 597 711.1 580.2c11.6-2.2 23.6-3.3 35.9-3.3 107.8 0 195 87.3 195 195z" fill="#DD6F66" /><path d="M919.8 771.9c0 88.2-66.1 161-151.5 171.5-7 0.8-14.1 1.3-21.3 1.3-95.4 0-172.8-77.4-172.8-172.8S651.6 599.2 747 599.2c7.2 0 14.4 0.4 21.3 1.3 85.4 10.4 151.5 83.2 151.5 171.4z" fill="#FFFFFF" /><path d="M919.8 771.9c0 88.2-66.1 161-151.5 171.5 60.8-33 102-97.4 102-171.5s-41.2-138.5-102-171.5c85.4 10.5 151.5 83.3 151.5 171.5z" fill="#F7D3D0" /><path d="M897.6 771.9c0 57.3-32 107.2-79.1 132.5-21.2 11.5-45.5 18-71.4 18-83.1 0-150.5-67.4-150.5-150.5S664 621.4 747.1 621.4c25.9 0 50.1 6.5 71.4 18 47 25.4 79.1 75.2 79.1 132.5z" fill="#FFB255" /><path d="M897.6 771.9c0 57.3-32 107.2-79.1 132.5 32.3-34.8 52-81.4 52-132.5s-19.8-97.8-52.1-132.5c47.1 25.4 79.2 75.2 79.2 132.5z" fill="#FC9729" /><path d="MNaN NaNaNaN NaN NaN 1 0 NaN NaN NaN NaN NaN 1 0 NaN NaNZ" fill="#383842" /><path d="M678.271202 887.295965a6.5 11.6 0.162 1 0 0.065596-23.199907 6.5 11.6 0.162 1 0-0.065596 23.199907Z" fill="#383842" /><path d="M791.912179 687.671058a6.5 11.6 0.162 1 0 0.065596-23.199907 6.5 11.6 0.162 1 0-0.065596 23.199907Z" fill="#383842" /><path d="MNaN NaNaNaN NaN NaN 1 0 NaN NaN NaN NaN NaN 1 0 NaN NaNZ" fill="#383842" /><path d="M648.573275 728.442044a6.5 11.6 0.162 1 0 0.065597-23.199907 6.5 11.6 0.162 1 0-0.065597 23.199907Z" fill="#383842" /><path d="M704.305145 776.702004a6.5 11.6 0.162 1 0 0.065597-23.199907 6.5 11.6 0.162 1 0-0.065597 23.199907Z" fill="#383842" /><path d="M838.938326 860.640996a6.5 11.6 0.162 1 0 0.065597-23.199907 6.5 11.6 0.162 1 0-0.065597 23.199907Z" fill="#383842" /><path d="M642.130352 807.430999a6.5 11.6 0.162 1 0 0.065596-23.199907 6.5 11.6 0.162 1 0-0.065596 23.199907Z" fill="#383842" /><path d="M709.800205 846.96505a6.5 11.6 0.162 1 0 0.065596-23.199907 6.5 11.6 0.162 1 0-0.065596 23.199907Z" fill="#383842" /><path d="M793.101083 827.149931a6.5 11.6 0.162 1 0 0.065596-23.199907 6.5 11.6 0.162 1 0-0.065596 23.199907Z" fill="#383842" /><path d="M765.244083 883.907052a6.5 11.6 0.162 1 0 0.065596-23.199907 6.5 11.6 0.162 1 0-0.065596 23.199907Z" fill="#383842" /><path d="M853.422335 785.050959a6.5 11.6 0.162 1 0 0.065596-23.199907 6.5 11.6 0.162 1 0-0.065596 23.199907Z" fill="#383842" /><path d="M710.156295 695.845016a6.5 11.6 0.162 1 0 0.065596-23.199907 6.5 11.6 0.162 1 0-0.065596 23.199907Z" fill="#383842" /><path d="M784.9 572.5c0.1-3.6 0.1-7.3 0.1-11 0-115.3-29.1-214.6-84.1-287.2-29.1-38.4-65.1-68.7-107-89.8-41.7-21.1-89.3-33.1-141.5-35.8 4.2-19.9 14-38 28.7-52.7 10.5-10.6 10.6-27.8 0.4-38.5-0.5-0.7-1.2-1.3-1.9-1.9-10.9-9.3-27.2-8.7-37.3 1.4-25 24.9-41.1 57.5-45.7 92.3-51.2 3.8-97.7 16.9-138.5 38.8-40.4 21.7-75.1 52.1-103.1 90.3-53 72.2-81 170.1-81 283.1 0 57.3 7.3 111.2 21.6 160.1 14.8 50.5 37 94.8 65.9 131.5 30.3 38.7 67.8 68.7 111.3 89.2 46 21.6 98.7 32.6 156.6 32.6 70.9 0 133.5-16.3 186-48.5 35.4 30.2 81.4 48.5 131.5 48.5 111.9 0 203-91.1 203-203 0.1-99-71.1-181.6-165-199.4zM453.7 68.4c4.2-4.2 11-4.5 15.6-0.6l0.6 0.6c4.6 4.6 4.6 11.8 0 16.4-17.6 17.6-29.1 39.4-33.5 63.4-2.2 0-4.5-0.1-6.8-0.1-5.5 0-11.1 0.1-16.5 0.3 4.5-30.2 18.8-58.3 40.6-80z m-24.3 890.4c-55.5 0.1-105.9-10.4-149.7-31-41.3-19.4-76.8-47.9-105.6-84.6C146.5 808 125.3 765.6 111 717c-13.9-47.4-21-99.7-21-155.5 0-109.6 27-204.2 77.9-273.7 26.6-36.3 59.5-65.1 97.8-85.7 40.5-21.8 87.1-34.3 138.6-37.4 8.2-0.5 16.6-0.7 25.1-0.7 4.6 0 9.1 0.1 13.4 0.2 53.4 1.6 101.8 13.2 143.9 34.5 39.7 20 73.8 48.7 101.4 85.2 52.9 69.8 80.8 165.7 80.8 277.5 0 2.9 0 5.7-0.1 8.6-7.2-0.8-14.5-1.2-21.9-1.2-111.9 0-203 91.1-203 203 0 55.8 22.7 106.5 59.3 143.2-49.2 29.1-107.6 43.8-173.8 43.8z m317.6 0.1c-103.1 0-187-83.9-187-187s83.9-187 187-187 187 83.9 187 187-83.9 187-187 187z" fill="#333333" /><path d="M822.3 632.4c-23.3-12.6-48.6-19-75.2-19-87.4 0-158.5 71.1-158.5 158.5s71.1 158.5 158.5 158.5c26.3 0 52.3-6.6 75.2-19 51.4-27.6 83.3-81.1 83.3-139.5 0-58.3-31.9-111.8-83.3-139.5z m-7.6 265c-20.5 11.1-43.9 17-67.6 17-78.6 0-142.5-63.9-142.5-142.5s63.9-142.5 142.5-142.5c23.9 0 46.7 5.7 67.6 17 46.2 25 74.9 73 74.9 125.5 0 52.6-28.7 100.6-74.9 125.5z" fill="#333333" /></svg>