<?xml version="1.0" standalone="no"?><!DOCTYPE svg PUBLIC "-//W3C//DTD SVG 1.1//EN" "http://www.w3.org/Graphics/SVG/1.1/DTD/svg11.dtd"><svg class="icon" width="200px" height="200.00px" viewBox="0 0 1024 1024" version="1.1" xmlns="http://www.w3.org/2000/svg"><path d="M504.8 207.8c-25.4 25.4-39.4 59.2-39.4 95v100l-18.5-1.1-27.6-1.6v-97.4c0-48.2 18.7-93.6 52.9-127.7 8.7-8.7 22.4-9 31.5-1.1 0.4 0.3 0.8 0.7 1.1 1.1 9.1 9.2 9.1 23.8 0 32.8z" fill="#4F4F56" /><path d="M504.8 207.8c-25.4 25.4-39.4 59.2-39.4 95v100l-18.5-1.1v-96.9c0-48.2 18.7-93.6 52.9-127.7 1.2-1.2 2.5-2.2 3.9-3.2 0.4 0.3 0.8 0.7 1.1 1.1 9.1 9.2 9.1 23.8 0 32.8z" fill="#383842" /><path d="M616.6 292.9c113.5 0 192.5 127.5 192.5 259.6 0 155.2-110.3 414.4-258.3 414.4-8.4 0-47.2-13.6-59.8-22-15.2-10.1-32.8-14.1-50-12.1-17.2-1.9-34.8 2-50 12.1-12.6 8.4-51.4 22-59.8 22-148 0.1-258.3-259-258.3-414.3 0-110.5 55.2-217.4 139.7-249.8 16.6-6.3 34.2-9.9 52.9-9.9 52.7-0.2 89.3 47.7 114.9 60.5 38.9 19.5 83.5 19 121.5 0 25.3-12.8 62.1-60.5 114.7-60.5z" fill="#F73F62" /><path d="M390.2 100.9c71.5 62.8 64.5 187.8 64.5 187.8S331.6 311.8 260 249 195.5 61.2 195.5 61.2 318.7 38 390.2 100.9z" fill="#52DBC0" /><path d="M809.2 552.6c0 155.2-110.3 414.4-258.3 414.4-5.6 0-25.3-6.2-41.3-12.9C628 899.9 711.1 687.2 711.1 552.5c0-109.5-54.3-215.8-137.5-249 13-6.3 27.4-10.6 43.2-10.6 113.3 0 192.4 127.5 192.4 259.7z" fill="#E2204E" /><path d="M454.7 288.7S331.7 311.8 260 249 195.5 61.2 195.5 61.2s14.6-2.8 36.7-3.8c3.3 41.8 16.2 110.7 63.6 152.4 46.9 41.2 115.9 45.4 157.9 43.5 1.8 21.3 1 35.4 1 35.4z" fill="#0DC6A5" /><path d="M721.3 967c-33.4 0-65-6.3-93.9-18.7-27.8-12-52.3-29.2-72.9-51.3-40.7-43.5-63.1-102.9-63.1-166.9 0-43.3 16-83.8 45-114 26.1-27.3 60.1-44 93.5-46.1 2.2-0.2 4.5-0.2 6.4-0.2 43.8 0 66.5 17.6 80 28 1.5 1.1 3.3 2.5 4.8 3.6 1.5-1.1 3.3-2.5 4.7-3.6 9.7-7.6 24.4-18.9 48.4-24.6 10.1-2.4 20.5-3.5 31.6-3.5 33.6 0 70 16.3 97.4 43.5 30.7 30.6 47.6 72.1 47.6 116.7 0 64.1-22.4 123.3-63.1 166.9-20.7 22.1-45.2 39.3-72.9 51.3-28.5 12.6-60.1 18.9-93.5 18.9z" fill="#E2204E" /><path d="M806.1 587.6c-10.6 0-19.7 1.2-27.6 3.1-34.4 8.1-45.8 29.8-57.2 29.8-14.2 0-28.3-32.9-84.8-32.9-1.8 0-3.7 0-5.4 0.1-55.6 3.4-121.8 57.4-121.8 142.3 0 120.5 84.8 219.2 212 219.2s212-98.6 212-219.2c0-87.6-70.6-142.4-127.2-142.4z" fill="#F8F1A6" /><path d="M763.7 708.1c-28.3 0-42.4 21.9-42.4 21.9s-14.2-21.9-42.4-21.9c-28.3 0-42.4 21.9-42.4 43.9 0 32.9 28.3 65.8 56.5 65.8s28.3-21.9 28.3-21.9 0 21.9 28.3 21.9 56.5-32.9 56.5-65.8c0-21.9-14.1-43.9-42.4-43.9z" fill="#FCD770" /><path d="M673.2 766a13.6 19.1 0 1 0 27.2 0 13.6 19.1 0 1 0-27.2 0Z" fill="#383842" /><path d="M742.3 766a13.6 19.1 0 1 0 27.2 0 13.6 19.1 0 1 0-27.2 0Z" fill="#383842" /><path d="M933.3 730.1c0 120.5-84.8 219.2-212 219.2-8.2 0-16.3-0.4-24.1-1.2 113.8-11.7 188-105.3 188-218 0-76.4-53.7-127.8-104.9-139.8 7.5-1.7 16-2.6 25.8-2.6 56.6-0.1 127.2 54.7 127.2 142.4z" fill="#FCD770" /><path d="M908.8 607.5c-25.9-25.7-59.5-42.1-91.9-45.3 0.1-3.3 0.1-6.5 0.1-9.8 0-66.9-20.1-134-55.1-183.9-37.8-54-89.5-83.7-145.4-83.7-39.8 0-71.1 25.3-94 43.7-9.4 7.6-17.6 14.2-24.3 17.6-8 4-16.3 7.1-24.9 9.4v-52.8c0-33.7 13.2-65.4 37-89.3 5.9-5.9 9.2-13.7 9.2-22 0-8.1-3.1-15.9-8.8-21.8-0.6-0.7-1.3-1.4-2-2-12.3-10.5-30.8-9.8-42.2 1.6-5.8 5.8-11.2 12-16.2 18.5-11.4-39.4-30.1-71.2-54.8-92.9-30.6-26.9-75.2-42.6-129-45.4-40.2-2.1-71.1 3.6-72.4 3.9-3.6 0.7-6.3 3.7-6.5 7.4-0.1 1.3-1.7 32.7 5.5 72.2 9.7 52.9 31 95.1 61.7 122 30.6 26.9 75.3 42.6 129.1 45.4 6.3 0.3 12.3 0.5 18 0.5 3.3 0 6.5 0 9.5-0.1v55.6c-9.4-2.3-18.6-5.6-27.3-10-6.9-3.5-15.2-10.1-24.7-17.8-22.7-18.4-53.9-43.5-93.4-43.5-18.9-0.1-37.8 3.5-56.1 10.4-42.6 16.3-79.1 50.7-105.7 99.2-25.2 46.2-39.1 102.3-39.1 158 0 80.7 29.3 186.4 74.6 269.3 54 98.7 122.1 153 191.6 153h0.1c10.9 0 51.1-14.6 64.2-23.3 13.3-8.8 28.8-12.6 44.7-10.8 0.6 0.1 1.2 0.1 1.8 0 15.8-1.8 31.2 1.9 44.6 10.8 13.1 8.7 53.3 23.3 64.2 23.3 24.3 0 48.7-6.7 72.3-19.8 0.4 0.2 0.8 0.3 1.1 0.5 29.9 12.8 62.6 19.3 97.1 19.3 34.8 0 67.3-6.6 96.7-19.6 28.8-12.5 54.2-30.3 75.6-53.2C935.8 857 959 795.8 959 729.7c-0.2-46.6-17.9-90.1-50.2-122.2zM477.9 180.7c5.7-5.7 14.5-6 20.6-0.7 0.1 0 0.1 0.1 0.2 0.1 0.2 0.2 0.3 0.4 0.5 0.5 2.9 2.9 4.5 6.8 4.5 10.8 0 4-1.6 7.8-4.5 10.7-17.7 17.7-30.1 39.1-36.6 62.5-0.6-12.7-2-29.3-5.4-47.8-0.5-2.9-1.1-5.8-1.7-8.7 6.4-9.8 13.9-19 22.4-27.4zM265.3 243c-35.2-30.8-50.1-78.2-56.4-112.5-5.1-27.6-5.6-51.4-5.5-62.4C229 64.6 326.2 55.2 385 106.9c35.1 30.8 50.1 78.2 56.4 112.5 5.1 27.6 5.6 51.4 5.5 62.4-25.7 3.5-122.8 12.8-181.6-38.8z m190.9 53.6c0.5-0.1 0.9-0.2 1.4-0.4-0.1 2.2-0.2 4.4-0.2 6.6v56c-10 1.3-20.1 1.4-30.1 0.3v-56.4-2.8c17.1-1.2 28.1-3.2 28.9-3.3z m94.6 662.3c-5.9 0-42.9-12.3-55.4-20.7-16.1-10.7-35.4-15.5-54.5-13.5-19.1-1.9-38.4 2.9-54.4 13.5-12.5 8.3-49.5 20.6-55.4 20.7h-0.1c-33 0-65.8-13.8-97.5-40.9-28.6-24.5-56.3-60.4-80-103.8-44.1-80.6-72.7-183.3-72.7-261.6 0-53.1 13.2-106.5 37.2-150.4 24.7-45.2 58.4-77 97.4-92 16.4-6.2 33.2-9.4 50.1-9.4h0.3c33.9 0 61.3 22.1 83.4 40 10.3 8.3 19.2 15.5 27.6 19.7 12.9 6.5 26.7 11 40.9 13.3h0.4c16.2 2.7 32.7 2.5 48.8-0.5h0.2c13.3-2.5 26.2-6.8 38.5-12.9 8.3-4.2 17-11.3 27.2-19.4 22.2-17.9 49.8-40.2 83.9-40.2 50.5 0 97.5 27.3 132.3 76.9 33.2 47.3 52.2 111 52.2 174.7 0 3.1-0.1 6.2-0.1 9.3-10.1 0.3-19.5 1.5-28.6 3.6-25.9 6.2-41.8 18.5-51.3 25.9-14.4-11.1-38.4-29.6-84.7-29.6-2 0-4.5 0-7 0.2-35.4 2.3-71.3 19.9-98.7 48.5-30.5 31.7-47.2 74.2-47.2 119.5 0 66.2 23.2 127.4 65.2 172.4 16.5 17.7 35.4 32.3 56.5 43.9-18.1 8.6-36.3 12.8-54.5 12.8z m331.1-67.6c-19.9 21.2-43.5 37.8-70.3 49.5-27.3 12.1-57.7 18.2-90.3 18.2-32.3 0-62.8-6.1-90.7-18-26.8-11.6-50.5-28.2-70.2-49.4-39.3-42-60.9-99.3-60.9-161.4 0-41.2 15.2-79.7 42.8-108.5 24.6-25.8 56.8-41.7 88.2-43.6h0.2c1.8-0.2 3.9-0.2 5.7-0.2 40.9 0 62.2 16.4 75 26.2l0.1 0.1 0.1 0.1c0.7 0.5 1.5 1.1 2.3 1.7 0.9 0.7 1.7 1.3 2.5 1.9 2.8 2.1 6.6 2.1 9.5 0 1.3-0.9 2.9-2.2 4.9-3.8 9-7.1 22.6-17.7 45.3-23.1 9.3-2.2 19-3.3 29.8-3.3 31.5 0 65.8 15.4 91.8 41.2 29.2 29.1 45.2 68.5 45.2 111-0.1 62-21.7 119.3-61 161.4z" fill="#333333" /><path d="M806.1 587.6c-10.6 0-19.7 1.2-27.6 3.1-34.4 8.1-45.8 29.8-57.2 29.8-14.2 0-28.3-32.9-84.8-32.9-1.8 0-3.7 0-5.4 0.1-55.6 3.4-121.8 57.4-121.8 142.3 0 120.5 84.8 219.2 212 219.2s212-98.6 212-219.2c0-87.6-70.6-142.4-127.2-142.4z m57.2 286.3c-17.4 18.7-38.1 33.2-61.5 43.3-24.6 10.6-51.7 16-80.5 16-28.8 0-55.8-5.4-80.5-16-23.4-10.1-44.1-24.7-61.6-43.3-34.8-37.3-54-88.4-54-143.9 0-18.2 3.4-35.5 10-51.4 6-14.6 14.7-27.8 25.6-39.2 20-20.8 46.6-34.2 71.1-35.7 1.2-0.1 2.9-0.1 4.5-0.1 32.2 0 47.2 11.6 59.2 21 7.9 6.1 15.4 11.9 25.6 11.9 10.1 0 17.5-5.7 25.3-11.8 8.3-6.4 18.6-14.4 35.5-18.4h0.1c7.3-1.8 15.4-2.7 23.9-2.7 24.9 0 52.4 12.6 73.5 33.7 11.5 11.5 20.6 24.9 27.1 39.8 7 16.4 10.6 34.2 10.6 52.9 0.1 55.5-19.1 106.6-53.9 143.9z" fill="#333333" /><path d="M763.7 700.1c-20.7 0-34.8 10.1-42.4 17.6-7.6-7.5-21.7-17.6-42.4-17.6-33.1 0-50.4 26.1-50.4 51.9 0 37.2 31.9 73.8 64.5 73.8 14.4 0 23-4.8 28.3-10.5 5.2 5.7 13.9 10.5 28.3 10.5 32.6 0 64.5-36.6 64.5-73.8 0-25.8-17.3-51.9-50.4-51.9z m18.7 91.9c-9.7 11.3-21.6 17.8-32.8 17.8-8.6 0-14.5-2.3-17.7-6.8-2.4-3.4-2.6-7.1-2.6-7.2v0.1h-16s-0.2 3.4-2.3 6.6c-3.1 4.8-9.2 7.3-18 7.3-11.1 0-23.1-6.5-32.8-17.8-10-11.6-15.7-26.2-15.7-40 0-24.8 17.3-35.9 34.4-35.9 23.3 0 35.2 17.5 35.7 18.3 1.5 2.3 4 3.6 6.7 3.6s5.2-1.4 6.7-3.7c0.1-0.2 12-18.2 35.7-18.2 17.1 0 34.4 11.1 34.4 35.9 0 13.8-5.7 28.4-15.7 40z" fill="#333333" /></svg>