<?xml version="1.0" standalone="no"?><!DOCTYPE svg PUBLIC "-//W3C//DTD SVG 1.1//EN" "http://www.w3.org/Graphics/SVG/1.1/DTD/svg11.dtd"><svg class="icon" width="200px" height="200.00px" viewBox="0 0 1024 1024" version="1.1" xmlns="http://www.w3.org/2000/svg"><path d="M403.967437 872.807824a129.3 129.3 0 1 0 182.854622-182.861005 129.3 129.3 0 1 0-182.854622 182.861005Z" fill="#653EA3" /><path d="M575.2 883.4c-31.2 24.5-70.3 32.3-106.5 24.8 18.8-4 36.9-12.2 53-24.8 56.3-44.1 66.2-125.4 22.1-181.7-19.6-24.9-46.4-40.8-75.2-46.9 46.7-9.9 97.1 6.7 128.7 46.9 44 56.2 34.2 137.6-22.1 181.7z" fill="#492F82" opacity=".5" /><path d="M603.5 809l-8.8 3.9c-13 5.7-20.7 19.2-19.2 33.3l1 9.6-7.8-5.7c-11.4-8.4-27-8.4-38.4 0l-7.8 5.7 1-9.6c1.5-14.1-6.2-27.6-19.2-33.3l-8.8-3.9 8.8-3.9c13-5.7 20.7-19.2 19.2-33.3l-1-9.6 7.8 5.7c11.4 8.4 27 8.4 38.4 0l7.8-5.7-1 9.6c-1.5 14.1 6.2 27.6 19.2 33.3l8.8 3.9z" fill="#303051" /><path d="M186.651324 872.826925a129.3 129.3 0 1 0 182.854623-182.861005 129.3 129.3 0 1 0-182.854623 182.861005Z" fill="#653EA3" /><path d="M357.9 883.4c-31.2 24.5-70.3 32.3-106.5 24.8 18.8-4 36.9-12.2 53-24.8 56.3-44.1 66.2-125.4 22.1-181.7-19.6-24.9-46.4-40.8-75.2-46.9 46.7-9.9 97.1 6.7 128.7 46.9 44.1 56.2 34.2 137.6-22.1 181.7z" fill="#492F82" opacity=".5" /><path d="M322.5 823.9l-8.8 3.9c-13 5.7-20.7 19.2-19.2 33.3l1 9.6-7.8-5.7c-11.4-8.4-27-8.4-38.4 0l-7.8 5.7 1-9.6c1.5-14.1-6.2-27.6-19.2-33.3l-8.8-3.9 8.8-3.9c13-5.7 20.7-19.2 19.2-33.3l-1-9.6 7.8 5.7c11.4 8.4 27 8.4 38.4 0l7.8-5.7-1 9.6c-1.5 14.1 6.2 27.6 19.2 33.3l8.8 3.9z" fill="#303051" /><path d="M236.7 624.3a129.3 129.3 0 1 0 258.6 0 129.3 129.3 0 1 0-258.6 0Z" fill="#7C50B5" /><path d="M445.9 726.3c-31.2 24.5-70.3 32.3-106.5 24.8 18.8-4 36.9-12.2 53-24.8 56.3-44.1 66.2-125.4 22.1-181.7-19.6-24.9-46.4-40.8-75.2-46.9 46.7-9.9 97.1 6.7 128.7 46.9 43.9 56.1 34.1 137.5-22.1 181.7z" fill="#653EA3" opacity=".5" /><path d="M431.9 686.5l-8.8 3.9c-13 5.7-20.7 19.2-19.2 33.3l1 9.6-7.8-5.7c-11.4-8.4-27-8.4-38.4 0l-7.8 5.7 1-9.6c1.5-14.1-6.2-27.6-19.2-33.3l-8.8-3.9 8.8-3.9c13-5.7 20.7-19.2 19.2-33.3l-1-9.6 7.8 5.7c11.4 8.4 27 8.4 38.4 0l7.8-5.7-1 9.6c-1.5 14.1 6.2 27.6 19.2 33.3l8.8 3.9z" fill="#303051" /><path d="M57 150.6C58.9 192.8 69.3 260 112.7 307c43.5 47.1 109.5 62.8 151.4 68 21.6 2.7 38.2-10.7 40.2-31.1 0.2-1.9 0.2-4 0.2-6.1-1.8-42.2-12.2-109.3-55.6-156.3-43.5-47.1-109.5-62.8-151.5-68.1-0.9-0.1-1.8-0.2-2.7-0.2-22.3-1.4-38.6 14.5-37.7 37.4z" fill="#0DC6A5" /><path d="M94.5 119.3c1.9 42.3 12.2 109.3 55.7 156.4s109.5 62.8 151.4 68c0.9 0.1 1.8 0.2 2.7 0.2 0.2-1.9 0.2-4 0.2-6.1-1.8-42.2-12.2-109.3-55.6-156.3-43.5-47.1-109.5-62.8-151.5-68.1-0.9-0.1-1.8-0.2-2.7-0.2-0.2 2-0.2 4-0.2 6.1z" fill="#52DBC0" /><path d="M526.5 162c-0.8-0.3-1.7-0.5-2.6-0.6-41.6-7.9-109.2-13.3-165.1 18.1-55.8 31.4-86.3 92.1-101.1 131.6-0.7 2-1.4 3.9-1.7 5.9-4.4 20.1 7.3 37.9 28.7 42 41.5 8 109.1 13.4 165-18.1 55.8-31.4 86.3-92.1 101.1-131.6 7.9-21.6-2.7-41.8-24.3-47.3z" fill="#0DC6A5" /><path d="M526.4 162c-0.8-0.3-1.7-0.5-2.6-0.6-41.6-7.9-109.2-13.3-165.1 18.1-55.8 31.4-86.3 92.1-101.1 131.6-0.7 2-1.4 3.9-1.7 5.9 0.8 0.3 1.7 0.5 2.6 0.6 41.5 8 109.1 13.4 165-18.1s86.3-92.1 101.2-131.7c0.7-1.9 1.4-3.8 1.7-5.8z" fill="#52DBC0" /><path d="M367.257801 556.498561a129.3 129.3 0 1 0 182.854622-182.861005 129.3 129.3 0 1 0-182.854622 182.861005Z" fill="#653EA3" /><path d="M538.4 567.1c-31.2 24.5-70.3 32.3-106.5 24.8 18.8-4 36.9-12.2 53-24.8 56.3-44.1 66.2-125.4 22.1-181.7-19.6-24.9-46.4-40.8-75.2-46.9 46.7-9.9 97.1 6.7 128.7 46.9 44.1 56.2 34.3 137.6-22.1 181.7z" fill="#492F82" opacity=".5" /><path d="M485.8 465.1L477 469c-13 5.7-20.7 19.2-19.2 33.3l1 9.6-7.8-5.7c-11.4-8.4-27-8.4-38.4 0l-7.8 5.7 1-9.6c1.5-14.1-6.2-27.6-19.2-33.3l-8.8-3.9 8.8-3.9c13-5.7 20.7-19.2 19.2-33.3l-1-9.6 7.8 5.7c11.4 8.4 27 8.4 38.4 0l7.8-5.7-1 9.6c-1.5 14.1 6.2 27.6 19.2 33.3l8.8 3.9z" fill="#303051" /><path d="M226.9 348.4a129.3 129.3 0 1 0 258.6 0 129.3 129.3 0 1 0-258.6 0Z" fill="#7C50B5" /><path d="M436 450.3c-31.2 24.5-70.3 32.3-106.5 24.8 18.8-4 36.9-12.2 53-24.8 56.3-44.1 66.2-125.4 22.1-181.7-19.6-24.9-46.4-40.8-75.2-46.9 46.7-9.9 97.1 6.7 128.7 46.9 44 56.2 34.1 137.6-22.1 181.7z" fill="#653EA3" opacity=".5" /><path d="M410.2 292.7l-8.8 3.9c-13 5.7-20.7 19.2-19.2 33.3l1 9.6-7.8-5.7c-11.4-8.4-27-8.4-38.4 0l-7.8 5.7 1-9.6c1.5-14.1-6.2-27.6-19.2-33.3l-8.8-3.9 8.8-3.9c13-5.7 20.7-19.2 19.2-33.3l-1-9.6 7.8 5.7c11.4 8.4 27 8.4 38.4 0l7.8-5.7-1 9.6c-1.5 14.1 6.2 27.6 19.2 33.3l8.8 3.9z" fill="#303051" /><path d="M135.49463 539.611472a129.3 129.3 0 1 0 182.854622-182.861005 129.3 129.3 0 1 0-182.854622 182.861005Z" fill="#653EA3" /><path d="M306.6 550.2c-31.2 24.5-70.3 32.3-106.5 24.8 18.8-4 36.9-12.2 53-24.8 56.3-44.1 66.2-125.4 22.1-181.7-19.6-24.9-46.4-40.8-75.2-46.9 46.7-9.9 97.1 6.7 128.7 46.9 44.1 56.2 34.2 137.5-22.1 181.7z" fill="#492F82" opacity=".5" /><path d="M308 477.8l-8.8 3.9c-13 5.7-20.7 19.2-19.2 33.3l1 9.6-7.8-5.7c-11.4-8.4-27-8.4-38.4 0l-7.8 5.7 1-9.6c1.5-14.1-6.2-27.6-19.2-33.3l-8.8-3.9 8.8-3.9c13-5.7 20.7-19.2 19.2-33.3l-1-9.6 7.8 5.7c11.4 8.4 27 8.4 38.4 0l7.8-5.7-1 9.6c-1.5 14.1 6.2 27.6 19.2 33.3l8.8 3.9z" fill="#303051" /><path d="M97.5 616.9a129.3 129.3 0 1 0 258.6 0 129.3 129.3 0 1 0-258.6 0Z" fill="#7C50B5" /><path d="M306.7 718.8c-31.2 24.5-70.3 32.3-106.5 24.8 18.8-4 36.9-12.2 53-24.8 56.3-44.1 66.2-125.4 22.1-181.7-19.6-24.9-46.4-40.8-75.2-46.9 46.7-9.9 97.1 6.7 128.7 46.9 43.9 56.2 34.1 137.6-22.1 181.7z" fill="#653EA3" opacity=".5" /><path d="M234.7 616.8l-8.8 3.9c-13 5.7-20.7 19.2-19.2 33.3l1 9.6-7.8-5.7c-11.4-8.4-27-8.4-38.4 0l-7.8 5.7 1-9.6c1.5-14.1-6.2-27.6-19.2-33.3l-8.8-3.9 8.8-3.9c13-5.7 20.7-19.2 19.2-33.3l-1-9.6 7.8 5.7c11.4 8.4 27 8.4 38.4 0l7.8-5.7-1 9.6c-1.5 14.1 6.2 27.6 19.2 33.3l8.8 3.9z" fill="#303051" /><path d="M439.1 616.8a129.3 129.3 0 1 0 258.6 0 129.3 129.3 0 1 0-258.6 0Z" fill="#7C50B5" /><path d="M648.2 718.8c-31.2 24.5-70.3 32.3-106.5 24.8 18.8-4 36.9-12.2 53-24.8 56.3-44.1 66.2-125.4 22.1-181.7-19.6-24.9-46.4-40.8-75.2-46.9 46.7-9.9 97.1 6.7 128.7 46.9 44 56.2 34.1 137.5-22.1 181.7z" fill="#653EA3" opacity=".5" /><path d="M657.5 648.3l-8.8 3.9c-13 5.7-20.7 19.2-19.2 33.3l1 9.6-7.8-5.7c-11.4-8.4-27-8.4-38.4 0l-7.8 5.7 1-9.6c1.5-14.1-6.2-27.6-19.2-33.3l-8.8-3.9 8.8-3.9c13-5.7 20.7-19.2 19.2-33.3l-1-9.6 7.8 5.7c11.4 8.4 27 8.4 38.4 0l7.8-5.7-1 9.6c-1.5 14.1 6.2 27.6 19.2 33.3l8.8 3.9z" fill="#303051" /><path d="M708.3 777.1a129.3 129.3 0 1 0 258.6 0 129.3 129.3 0 1 0-258.6 0Z" fill="#653EA3" /><path d="M917.4 879.1c-31.2 24.5-70.3 32.3-106.5 24.8 18.8-4 36.9-12.2 53-24.8 56.3-44.1 66.2-125.4 22.1-181.7-19.6-24.9-46.4-40.8-75.2-46.9 46.7-9.9 97.1 6.7 128.7 46.9 44 56.1 34.2 137.5-22.1 181.7z" fill="#492F82" opacity=".5" /><path d="M864.7 777.1l-8.8 3.9c-13 5.7-20.7 19.2-19.2 33.3l1 9.6-7.8-5.7c-11.4-8.4-27-8.4-38.4 0l-7.8 5.7 1-9.6c1.5-14.1-6.2-27.6-19.2-33.3l-8.8-3.9 8.8-3.9c13-5.7 20.7-19.2 19.2-33.3l-1-9.6 7.8 5.7c11.4 8.4 27 8.4 38.4 0l7.8-5.7-1 9.6c-1.5 14.1 6.2 27.6 19.2 33.3l8.8 3.9z" fill="#303051" /><path d="M705.7 616.8c0-66.6-47.7-122.3-110.8-134.7 5.2-41.9-9.1-84-39.2-114.1-17.6-17.6-39.3-29.9-63.2-36-0.5-4-1.1-7.9-1.9-11.8 34.9-33.3 56-76.9 67.7-108.2 4.6-12.7 4-25.6-1.6-36.4-5.5-10.5-15.4-18-27.8-21.3-1.2-0.4-2.4-0.7-3.7-0.9-84.3-16-139.1 1.5-170.2 19-22 12.4-42 30.1-59.5 52.8-2.2 1.1-4.4 2.2-6.5 3.4-9-20.2-20.4-37.9-34.1-52.7-24.3-26.3-71.1-59.8-156.4-70.6h-0.1c-0.9-0.1-2.1-0.2-3.3-0.2-12.9-0.8-24.8 3.4-33.3 11.7-8.7 8.5-13.2 20.6-12.7 34 1.3 27.9 5.5 54.3 12.6 78.3 9.9 33.4 25.1 61.4 45.2 83.2 9.8 10.6 21.2 20.2 34.1 28.7-3.9 3.1-7.6 6.4-11.1 9.9-24.7 24.7-38.9 57.4-40.1 92.3-1.1 32.4 9.1 63.8 28.8 89.1-18.8 24-29 53.8-29 84.4 0 24.1 6.4 47.9 18.4 68.7 10.5 18.1 25.1 33.7 42.5 45.4-9.3 23.4-11.9 48.8-7.6 73.9 4.8 28 18 53.5 38.2 73.6 25.9 25.9 60.4 40.2 97.1 40.2s71.2-14.3 97.1-40.2c4.1-4.1 8-8.5 11.6-13.1 3.6 4.6 7.4 9 11.5 13.1 25.9 25.9 60.4 40.2 97.1 40.2 36.7 0 71.2-14.3 97.1-40.2 35.9-35.9 48.9-89.1 34.2-137.3 46.5-21.8 78.9-69.3 78.9-124.2zM579.1 479.9c-3.5-0.3-7.1-0.4-10.7-0.4-64.4 0-118.6 44.6-133.3 104.6-23.6-4.6-45-16-62.2-33.2-10.8-10.8-19.3-23.3-25.4-37.1 2.5-4.7 4.8-9.5 6.8-14.4 0-0.1 0.1-0.2 0.1-0.2 1.8-4.4 3.3-8.9 4.6-13.5 74.3-1.5 134.3-62.2 134.5-136.8 19.2 5.7 36.6 16.1 50.9 30.4 26.5 26.5 39.2 63.6 34.7 100.6zM400.8 740.5c-10.3 3.1-21 4.8-31.9 5H366c-21.5 0-42.2-5.6-60.5-16.2 0.6-0.4 1.1-0.8 1.7-1.2 0.5-0.4 1-0.7 1.5-1.1 1-0.7 2-1.5 2.9-2.3 0.3-0.3 0.7-0.5 1-0.8 1.3-1 2.6-2.1 3.9-3.2 0.3-0.2 0.5-0.5 0.8-0.7 1-0.9 2-1.7 2.9-2.6 0.4-0.4 0.9-0.8 1.3-1.2 0.8-0.8 1.6-1.5 2.3-2.3l1.4-1.4c0.7-0.8 1.5-1.5 2.2-2.3 0.4-0.5 0.9-0.9 1.3-1.4 0.7-0.8 1.5-1.6 2.2-2.5 0.4-0.4 0.8-0.9 1.2-1.3 0.9-1 1.7-2.1 2.6-3.1 0.2-0.3 0.4-0.5 0.6-0.8 1-1.3 2-2.6 3-4 0.3-0.4 0.6-0.8 0.8-1.2 0.7-1 1.4-1.9 2-2.9 0.3-0.5 0.7-1 1-1.6 0.6-0.9 1.1-1.8 1.7-2.7 0.3-0.6 0.7-1.1 1-1.7 0.5-0.9 1.1-1.8 1.6-2.7 0.3-0.6 0.6-1.1 0.9-1.7 0.5-1 1.1-2 1.6-3 0.3-0.5 0.5-1 0.8-1.5 0.7-1.5 1.4-2.9 2.1-4.4 0 0 0-0.1 0.1-0.1 8.2-17.9 12.3-37 12.3-56.9 0-30.6-10.2-60.3-28.9-84.3 0.8-1 1.5-2 2.3-3 6.3 11.9 14.4 22.9 24.1 32.6 19.5 19.5 43.8 32.4 70.6 37.6-0.7 5.6-1.1 11.2-1.1 17 0 31.7 10.8 60.9 28.9 84.2-15.4 18.9-36.2 32.8-59.3 39.7zM289.4 247.1s0.1 0 0 0c4.6-3.1 9.5-5.8 14.6-8.2 16.4-7.8 33.9-11.8 52.2-11.8 27.7 0 53.8 9.1 75.4 26.3 21 16.7 36.1 40.1 42.4 66 1.6 6.4 2.6 13 3.1 19.7 0.2 3 0.3 6.1 0.3 9.2 0 64.8-51 117.8-115 121.1 3.9-24.5 1.1-49.4-8.2-72.5-5.5-13.8-13.2-26.5-22.9-37.8-2.4-2.8-4.9-5.5-7.5-8.1-22.6-22.6-51.9-36.4-83.4-39.5 8.6-26.3 25.6-48.9 49-64.4z m73.3-60.6c28.9-16.2 80-32.4 159.7-17.2 0.2 0 0.4 0.1 0.6 0.1 0.3 0 0.6 0.1 0.7 0.1 0.3 0.1 0.6 0.2 0.8 0.3 8.2 2.1 14.5 6.8 18 13.4 3.6 6.7 3.8 15.1 0.8 23.4-10.4 27.7-28.6 65.7-57.7 96.1-8.6-24.1-23.9-45.7-44.1-61.7-24.5-19.5-54-29.8-85.4-29.8-10.2 0-20.2 1.1-30 3.3 11.5-11.4 23.7-20.8 36.6-28zM118.6 301.6c-22.5-24.3-50-70.3-53.6-151.3-0.3-8.8 2.4-16.6 7.9-21.9 5.3-5.2 12.9-7.7 21.3-7.2h0.5c0.4 0 1.1 0.1 1.8 0.1 80.5 10.2 124.1 41.3 146.6 65.6 12.9 14 23.7 31 32.2 50.6-24.9 18.2-42.8 43.9-51.1 73.4-24.6 0.5-48.2 7.4-69.1 20.3-14-8.6-26.3-18.5-36.5-29.6z m-12.9 142.3c1.1-30.8 13.7-59.7 35.4-81.5 5.6-5.6 11.9-10.7 18.4-15.2 20.9-14 45.2-21 70.5-20.3h0.1c31.2 0.8 60.5 13.4 82.5 35.5 2.3 2.3 4.5 4.7 6.6 7.2 8.5 10 15.3 21.3 20.2 33.4 9.3 23.2 11.2 48.4 5.5 72.8v0.1c-1.4 6-3.2 11.9-5.5 17.5 0 0.1-0.1 0.2-0.1 0.2-2.1 5.3-4.7 10.6-7.6 15.6-2.2 3.8-4.7 7.5-7.3 11.1-5.4-5.5-11.3-10.5-17.5-15-23.4-16.8-51.1-25.7-80-25.7-36.8 0-71.8 14.7-97.5 40.6-16.3-21.9-24.7-48.7-23.7-76.3z m16 233.7c-10.6-18.4-16.2-39.3-16.2-60.7 0-29.1 10.4-57.2 29.4-79.2 23.1-26.8 56.6-42.1 91.9-42.1 25.6 0 50 7.9 70.7 22.7 7.8 5.6 15 12.2 21.3 19.5 18.9 22 29.3 50.1 29.3 79.1 0 17.5-3.7 34.4-10.9 50.2-10.5 23.1-28.5 42.7-50.6 55.3-18.2 10.3-38.9 15.8-59.9 15.8-22 0-43.5-5.9-62.3-17.2-17.6-10.6-32.4-25.6-42.7-43.4z m242.2 189.6c-22.9 22.9-53.4 35.5-85.8 35.5s-62.9-12.6-85.8-35.5c-17.8-17.8-29.5-40.3-33.7-65-3.7-21.3-1.7-42.9 5.8-63 19.2 9.8 40.7 15 62.4 15 22.1 0 43.9-5.3 63.3-15.5 22.5 15 48.6 22.9 75.9 22.9h3.3c9.4-0.2 18.7-1.4 27.8-3.5 6 30.7 0 62.8-17.1 89.1-4.6 7.2-10 13.9-16.1 20z m217.2 0c-22.9 22.9-53.4 35.5-85.8 35.5s-62.9-12.6-85.8-35.5c-4.9-4.9-9.4-10.2-13.3-15.8 17.4-29.3 23.2-64.4 16.3-97.8 22.4-8.1 42.6-22.1 58.1-40.4 24.9 25.3 59.5 41 97.7 41 15.1 0 29.7-2.5 43.3-7 12.5 42.2 1 88.5-30.5 120z m-12.7-129.1c-66.9 0-121.3-54.4-121.3-121.3s54.4-121.3 121.3-121.3 121.3 54.4 121.3 121.3-54.4 121.3-121.3 121.3zM934.7 680c-53.5-53.5-140.6-53.5-194.2 0-53.5 53.5-53.5 140.6 0 194.2 25.9 25.9 60.4 40.2 97.1 40.2 36.7 0 71.2-14.3 97.1-40.2 53.5-53.6 53.5-140.7 0-194.2z m-11.3 182.9c-22.9 22.9-53.4 35.5-85.8 35.5s-62.9-12.6-85.8-35.5c-47.3-47.3-47.3-124.2 0-171.5 23.6-23.6 54.7-35.5 85.8-35.5 31.1 0 62.1 11.8 85.8 35.5 47.3 47.2 47.3 124.2 0 171.5z" fill="#333333" /></svg>