<?xml version="1.0" standalone="no"?><!DOCTYPE svg PUBLIC "-//W3C//DTD SVG 1.1//EN" "http://www.w3.org/Graphics/SVG/1.1/DTD/svg11.dtd"><svg class="icon" width="200px" height="200.00px" viewBox="0 0 1024 1024" version="1.1" xmlns="http://www.w3.org/2000/svg"><path d="M464.6 209.5c-4.4 0-8.8-2-11.8-5.7-5.1-6.5-4-15.9 2.5-21.1 9.4-7.4 20.9-17.8 31.6-29.1-13.3-2.3-25.1-6.5-32.4-13.1-10.7-9.6-16.5-23.1-16.2-38 0.2-13.1 5.3-26.4 13.9-36.5 9.1-10.7 21.6-17.1 35-18.1 10.3-0.7 26.4 1.5 44.4 16.2C543 73.5 549 86 548.8 100.3c-0.1 7.5-1.8 15.5-5.3 23.9 21.9-3.2 39.8-10.4 49.5-20.1 5.9-5.9 15.4-5.9 21.2 0 5.9 5.9 5.9 15.4 0 21.2-23.7 23.7-63.4 29.2-85 30.4-1.6 0.1-3.3 0.2-5 0.2-4.2 5.4-9 11-14.3 16.7-17.9 19.2-35.5 33.1-36.2 33.7-2.6 2.2-5.8 3.2-9.1 3.2z m26-131.6c-6 0-11.3 2.5-15.7 7.6-7.7 9-10.1 24-0.5 32.6 3 2.7 15.3 6.8 34.5 7.7 6-9.4 9.8-18.4 9.8-25.8 0-5.2-1.8-9-6.2-12.6-7.7-6.3-15.2-9.5-21.9-9.5z" fill="#088457" /><path d="M849 567.1c0 96.2-34.5 184.4-91.9 252.9-18.3 21.9-39 41.8-61.7 59.2-25.5 19.7-53.5 36.3-83.4 49.3-28.6 12.5-59 21.6-90.6 27-14.3 2.4-28.8 4.1-43.5 4.9-7.6 0.4-15.3 0.7-23 0.7-24.5 0-48.3-2.3-71.6-6.4l-4.8-0.9c-8.7-1.7-17.3-3.7-25.8-6-73.6-19.7-138.7-60.2-188.6-114.7C100 763 60.9 669.6 60.9 567.1c0-109.9 45-209.3 117.6-280.8 50.6-49.9 114.7-86.1 186.3-102.9 6.2-1.4 12.4-2.7 18.6-3.9 1.9-0.3 3.7-0.7 5.6-1 21.4-3.6 43.5-5.5 66-5.5h2.8c18.3 0.1 36.3 1.5 53.9 4 15.2 2.2 30.1 5.2 44.7 9.1 11.3 3 22.4 6.5 33.3 10.5 60.9 22.2 114.7 58.9 157.4 106C810.5 372.7 849 465.4 849 567.1z" fill="#08A36F" /><path d="M254.6 317.2l35.4 53.9c31.5 47.9 18.2 112.6-29.7 144.2L217 543.8c-9.2 6.1-14.6 15.9-14.7 27-0.1 11.1 5.1 21 14.3 27.2l12.7 8.6c26.8 18.2 43.4 47.2 45.5 79.6 2.1 32.4-10.7 63.2-35 84.7-7.1 6.3-11 14.9-11 24.3s3.8 18.1 10.9 24.4l1.6 1.4L353 947.8c-73.6-19.7-138.7-60.2-188.6-114.7-4.7-12-7.2-24.9-7.1-38.1 0.1-29.7 12.9-58.1 35.2-77.8 7.6-6.7 11.6-16.4 11-26.5s-5.8-19.2-14.2-24.9l-12.7-8.6c-28.8-19.6-45.9-52-45.7-86.9 0.2-34.8 17.7-67.1 46.9-86.3l43.3-28.5c15-9.9 19.2-30.1 9.3-45.1L195 356.5c-14.1-21.5-19.3-46.4-16.3-70.2 50.6-49.9 114.7-86.1 186.3-102.9l24.3-4.9-34.8 25.9-92 68.7c-14 10.4-17.4 29.7-7.9 44.1zM721.8 750.7c-0.9 14 3.7 27.2 12.5 36 9.5 9.5 17.3 20.8 22.9 33.2-18.3 21.9-39 41.8-61.7 59.2 2.7-14.9-1.3-31.3-11.8-41.8-23.5-23.4-35.6-56.7-33.4-91.3 2.2-34 18.1-64.7 43.7-84.4l12.7-9.7c10.1-7.8 16.1-21.2 16-36-0.1-14.7-6.2-27.9-16.4-35.5L663 548.2c-22.5-16.8-37.9-42.1-43.2-71.2-5.2-28.6-0.2-57.9 14.1-82.5l35.4-60.9c11.2-19.3 7.4-45.8-8.4-59.1l-66.7-56.3-37.8-31.9c11.3 3 22.4 6.5 33.3 10.5 60.9 22.2 114.7 58.9 157.4 106 1.2 23.5-4.3 46.8-15.9 66.8l-35.3 60.9c-11.6 20-7.1 47.7 10 60.4l43.3 32.2c28 20.9 44.9 55.4 45.2 92.4 0.3 37.1-16.2 71.9-44 93.3l-12.7 9.7c-9.3 7.1-15 18.8-15.9 32.2z" fill="#088457" /><path d="M478 960.5c-7.6 0.4-15.3 0.7-23 0.7-24.5 0-48.3-2.3-71.6-6.4l-4.8-0.9c-13.5-23.2-20-47-19.5-71.1 0.9-43.7 24.4-71.9 43.4-94.5 16.4-19.6 25.6-31.4 25.2-47.6-0.4-16.6-10.6-27.1-30.1-45.7-10.9-10.4-23.2-22.2-33.3-36.9-12.8-18.7-19.5-38.4-20.6-60.3-2.2-44.2 19.9-71.2 37.6-92.9 15.5-19 24.3-30.7 24.3-50.5 0-19.5-8.4-31.2-24.6-52-16.3-20.9-36.6-47-43.5-88-5.9-35-0.2-71.8 16.8-109.9 3.1-7 6.6-14 10.5-21.1l24.3-4.9c21.4-3.6 43.5-5.5 66-5.5h2.8c-39.2 49.1-56 92.6-49.8 129.4 3.9 23.1 15.7 38.3 29.4 55.8 17.7 22.7 39.7 51 39.7 96.1-0.1 46.1-23.4 74.7-40.4 95.6-15.1 18.5-22.3 28.1-21.5 44.1 0.9 18.5 12.1 30.1 31.8 48.9 22.7 21.7 51 48.7 52.2 95.6 1.1 44-22.7 72.5-41.8 95.3-16.8 20.1-26.4 32.4-26.7 50-0.7 28.3 23.1 56 47.2 76.7zM628.8 891.4l-16.7 37.2c-28.6 12.5-59 21.6-90.6 27l42.1-93.5c13.3-29.6 10.7-68.1-6.3-93.7-28.8-43.3-34.8-103.9-15.4-154.4l2.9-7.6c12.3-32 6.8-72.2-13.1-95.6l-2.6-3c-33-38.8-45.1-98.3-30.7-151.4l22.8-84c4.4-16.4 4.7-34.6 0.8-51.2l-10.2-43.8c15.2 2.2 30.1 5.2 44.7 9.1 11.3 3 22.4 6.5 33.3 10.5l1.8 7.9c1 4.5 1.9 9 2.6 13.6 3.7 24.2 2.3 49.1-4.1 72.7l-22.8 84c-8.3 30.6-1.8 65.3 16.1 86.4l2.6 3c37 43.5 47.2 110.9 25.4 167.6l-2.9 7.6c-11.2 29.1-7.9 64.9 8.2 89.1 31 46.2 35.7 110.1 12.1 162.5z" fill="#088457" /><path d="M849 567.1c0 96.2-34.5 184.4-91.9 252.9-18.3 21.9-39 41.8-61.7 59.2-25.5 19.7-53.5 36.3-83.4 49.3-28.6 12.5-59 21.6-90.6 27-14.3 2.4-28.8 4.1-43.5 4.9-7.6 0.4-15.3 0.7-23 0.7-18.5 0-36.6-1.3-54.4-3.7 4.1-0.6 8.3-1.2 12.4-1.9 31.6-5.4 62-14.5 90.6-27 29.9-13 57.9-29.6 83.4-49.3 22.7-17.4 43.4-37.3 61.7-59.2 57.4-68.5 91.9-156.7 91.9-252.9 0-101.7-38.5-194.4-101.9-264.5-42.7-47.1-96.5-83.8-157.4-106-10.9-4-22-7.5-33.3-10.5-14.6-3.9-29.5-6.9-44.7-9.1-0.8-0.1-1.5-0.2-2.3-0.3 17.7-2.4 35.8-3.7 54.1-3.7h2.8c18.3 0.1 36.3 1.5 53.9 4 15.2 2.2 30.1 5.2 44.7 9.1 11.3 3 22.4 6.5 33.3 10.5 60.9 22.2 114.7 58.9 157.4 106C810.5 372.7 849 465.4 849 567.1z" fill="#066D45" opacity=".6" /><path d="M963.1 766.2c0 107.7-87.3 195-195 195-8.2 0-16.4-0.5-24.4-1.5-1.3-0.2-2.5-0.4-3.8-0.5C645.5 945.6 573 864.4 573 766.3S645.5 587 739.9 573.4c1.3-0.2 2.5-0.4 3.8-0.5 8-1 16.1-1.5 24.4-1.5 107.7-0.2 195 87.1 195 194.8z" fill="#066D45" /><path d="M906.8 766.2c0 98.1-72.5 179.3-166.9 192.9C645.5 945.5 573 864.3 573 766.2s72.5-179.3 166.9-192.9c94.4 13.6 166.9 94.8 166.9 192.9z" fill="#088457" /><path d="M943.5 765.9c0 96.9-78.6 175.5-175.5 175.5-5.9 0-11.7-0.3-17.5-0.9-88.7-8.8-158-83.6-158-174.6s69.3-165.9 158-174.6c5.7-0.5 11.6-0.9 17.5-0.9 97 0.1 175.5 78.6 175.5 175.5z" fill="#D31C50" /><path d="M908.6 765.9c0 91-69.3 165.9-158 174.6-88.7-8.8-158-83.6-158-174.6s69.3-165.9 158-174.6c88.7 8.7 158 83.6 158 174.6z" fill="#F73F62" /><path d="M884.151886 702.569974a7.5 13.5 0.162 1 0 0.076341-26.999892 7.5 13.5 0.162 1 0-0.076341 26.999892Z" fill="#383842" /><path d="M688.71185 895.535824a7.5 13.5 0.162 1 0 0.07634-26.999892 7.5 13.5 0.162 1 0-0.07634 26.999892Z" fill="#383842" /><path d="M821.631886 662.389918a7.5 13.5 0.162 1 0 0.076341-26.999892 7.5 13.5 0.162 1 0-0.076341 26.999892Z" fill="#383842" /><path d="M792.081954 737.691844a7.5 13.5 0.162 1 0 0.076341-26.999892 7.5 13.5 0.162 1 0-0.076341 26.999892Z" fill="#383842" /><path d="M654.139807 709.937861a7.5 13.5 0.162 1 0 0.076341-26.999892 7.5 13.5 0.162 1 0-0.076341 26.999892Z" fill="#383842" /><path d="M719.247759 766.363836a7.5 13.5 0.162 1 0 0.076341-26.999892 7.5 13.5 0.162 1 0-0.076341 26.999892Z" fill="#383842" /><path d="MNaN NaNaNaN NaN NaN 1 0 NaN NaN NaN NaN NaN 1 0 NaN NaNZ" fill="#383842" /><path d="M646.627912 802.275932a7.5 13.5 0.162 1 0 0.07634-26.999892 7.5 13.5 0.162 1 0-0.07634 26.999892Z" fill="#383842" /><path d="M725.632912 848.370946a7.5 13.5 0.162 1 0 0.07634-26.999892 7.5 13.5 0.162 1 0-0.07634 26.999892Z" fill="#383842" /><path d="MNaN NaNaNaN NaN NaN 1 0 NaN NaN NaN NaN NaN 1 0 NaN NaNZ" fill="#383842" /><path d="M790.372903 891.437051a7.5 13.5 0.162 1 0 0.076341-26.999892 7.5 13.5 0.162 1 0-0.076341 26.999892Z" fill="#383842" /><path d="M893.464886 776.157011a7.5 13.5 0.162 1 0 0.076341-26.999892 7.5 13.5 0.162 1 0-0.076341 26.999892Z" fill="#383842" /><path d="M726.006801 671.875045a7.5 13.5 0.162 1 0 0.076341-26.999892 7.5 13.5 0.162 1 0-0.076341 26.999892Z" fill="#383842" /><path d="M509 133.8c2.7 0 5.3-1.4 6.8-3.7 7.4-11.6 11-21.5 11.1-30.1 0.1-7.7-2.8-13.7-9.2-18.9-9.2-7.5-18.3-11.3-27-11.3-8.4 0-15.9 3.6-21.7 10.4-10.1 11.9-12.9 32 0.3 43.8 5.6 5 21.1 8.8 39.4 9.8h0.3z m-29.3-21.7c-5.7-5.2-3.9-15.2 1.3-21.4 2.8-3.2 5.9-4.8 9.6-4.8 4.9 0 10.7 2.7 16.9 7.7 2.8 2.3 3.3 3.9 3.3 6.3 0 3.3-1.2 8.9-6.2 17.6-15.6-1.2-23.5-4.5-24.9-5.4z" fill="#383842" /><path d="M911.6 622.6c-16.3-16.2-34.8-29.4-54.9-39.1 0.2-5.4 0.3-10.9 0.3-16.4 0-99.9-36.9-195.7-104-269.9-43.9-48.5-99.5-85.9-160.6-108.1-11.1-4.1-22.5-7.7-34-10.7-11.5-3.1-23.5-5.7-35.8-7.7 2-2.3 3.9-4.6 5.7-6.8 0.5 0 0.9 0 1.4-0.1 22.7-1.2 64.6-7.1 90.2-32.8 4.3-4.3 6.7-10.1 6.7-16.3 0-6.1-2.4-11.9-6.7-16.3-9-9-23.6-9-32.5 0-6.5 6.5-17.9 11.9-32.2 15.4 1-4.6 1.6-9.1 1.6-13.4 0.2-16.8-6.8-31.5-20.2-42.4-20.1-16.4-38.3-18.8-50-18-15.6 1.1-30 8.5-40.5 20.8-9.8 11.5-15.6 26.6-15.8 41.5-0.3 17.3 6.4 32.9 18.9 44.1 5.4 4.8 12.8 8.7 22.1 11.6-2.5 2.4-5 4.7-7.6 7-1.9 0-3.9-0.1-5.8-0.1H443.5c-0.9 0-1.7 0-2.6 0.1h-0.1c-0.7 0-1.5 0.1-2.2 0.1h-1.1c-1.3 0-2.5 0.1-3.8 0.2h-0.1c-1.3 0.1-2.5 0.1-3.8 0.2h-0.5c-2.8 0.2-5.6 0.4-8.3 0.6-1.4 0.1-2.8 0.2-4.1 0.4-1.3 0.1-2.6 0.2-3.9 0.4h-0.4c-1.4 0.1-2.8 0.3-4.2 0.5-1.4 0.2-2.8 0.3-4.1 0.5-5.6 0.7-11.2 1.5-16.5 2.4-1 0.2-2 0.4-3 0.5-0.8 0.2-1.7 0.3-2.6 0.5h-0.3c-6.2 1.2-12.4 2.5-18.7 3.9-0.1 0-0.2 0-0.2 0.1-71.8 16.8-137.5 53.2-190.1 105-37.6 37-67.1 80.3-87.8 128.6-21.4 50-32.2 103.1-32.2 157.9 0 100.8 37.4 197.1 105.3 271.4 52 56.8 118.5 97.2 192.4 117 8.3 2.3 16.9 4.2 25.4 5.9 0.4 0.1 0.7 0.2 1.1 0.3l4.9 0.9c24.9 4.4 48.8 6.5 73 6.5 6.8 0 14.2-0.2 23.4-0.7 0.4 0 0.9-0.1 1.3-0.2 13.5-0.8 27.5-2.4 41.7-4.7h0.1c0.4 0 0.9 0 1.3-0.1 32-5.5 63.1-14.7 92.5-27.6 0.5-0.2 0.9-0.5 1.3-0.7 7.9-3.5 15.8-7.3 23.5-11.3 28.3 22.9 62.3 38 98.6 43.2 0.2 0 0.4 0 0.5 0.1 0.8 0.1 1.7 0.2 2.7 0.4l0.5 0.1h0.2c8.3 1 16.8 1.6 25.4 1.6 111.9 0 203-91.1 203-203 0.1-54-21-105-59.4-143.3z m-70.7-45.9c-15.7-6-32.2-10-49.2-12-8.4-19.3-21.4-35.9-37.7-48l-43.3-32.2c-13.7-10.2-17.4-33.5-7.8-50l35.3-60.9c8.9-15.3 14.4-32.4 16.3-50.1C810.4 392.3 841 478 841 567.1c0 3.2 0 6.4-0.1 9.6zM480.7 952.2c-20-17.7-42.5-43.2-41.9-68.3 0.3-14.9 8.7-25.7 24.8-45 18.9-22.6 44.8-53.5 43.7-100.6-1.3-50.1-32.1-79.6-54.6-101.1l-0.1-0.1c-20.3-19.4-28.6-28.7-29.3-43.5-0.6-12.5 4.6-20.1 19.8-38.7 17.7-21.8 42-51.7 42.1-100.6 0-47.9-23.9-78.6-41.4-101-13-16.6-24.2-30.9-27.8-52.2-5.7-33.6 9.7-74 45.8-120 1.6 0 3.2 0.1 4.7 0.1 12.9 0.4 25.9 1.4 38.7 3l9 38.8c3.6 15.3 3.3 32.1-0.7 47.3l-22.8 84c-15.1 55.6-2.4 117.9 32.4 158.7l2.6 2.9c18.1 21.3 23 58.1 11.7 87.6l-2.9 7.6c-20.3 52.9-14 116.4 16.2 161.7 15.6 23.4 17.9 58.8 5.7 86L516 948.3c-12 1.9-23.8 3.2-35.3 3.9z m-123.2-11.4L247.3 815.7c-0.2-0.3-0.5-0.5-0.7-0.7l-1.6-1.4c-5.3-4.7-8.2-11.2-8.2-18.4 0-7.1 3-13.6 8.3-18.3 26.2-23.2 39.9-56.4 37.7-91.2-2.3-34.9-20.1-66.1-49-85.7l-12.7-8.6c-6.9-4.7-10.8-12.1-10.8-20.5 0.1-8.3 4.1-15.8 11.1-20.4l43.3-28.5c51.6-34 65.9-103.7 32-155.3l-35.4-53.9c-7.2-10.8-4.5-25.5 6-33.3l69.7-52c-9.6 30.4-12.1 60-7.4 88.3 7.3 43.1 28.2 70 45.1 91.6 15.5 19.9 22.9 30.2 22.9 47.1 0 17.1-7.7 27.3-22.5 45.4l-0.1 0.1c-17.6 21.5-41.6 51-39.3 98.2 1.2 23.5 8.4 44.5 22 64.4 10.7 15.6 23.8 28.1 34.4 38.2 19.8 18.9 27.3 27.2 27.6 40.1 0.3 12.7-6.5 22.2-23.3 42.3-18.7 22.2-44.3 52.7-45.3 99.5-0.4 20.2 3.8 40.2 12.6 59.7-2.1-0.6-4.2-1.1-6.2-1.6z m-146-250.6c-0.7-12.6-7.2-23.9-17.7-31l-12.7-8.6c-26.6-18.1-42.4-48.1-42.2-80.2 0.2-32.2 16.4-62 43.3-79.7l43.3-28.5c9-6 15.2-15.1 17.4-25.7 2.2-10.6 0.1-21.5-5.8-30.5l-35.4-53.9a96.192 96.192 0 0 1-15.4-62.1c45.8-44.6 101.9-76.9 163.2-94.3-0.6 1.2-1.1 2.5-1.7 3.7l-90.1 67.3c-17.3 12.9-21.6 37-9.8 54.9l35.4 53.9c29.1 44.2 16.8 104-27.4 133.1l-43.3 28.5c-11.5 7.6-18.2 19.9-18.3 33.6-0.1 13.8 6.4 26.2 17.8 33.9l12.7 8.6c24.8 16.8 40.1 43.6 42 73.5 1.9 29.8-9.8 58.3-32.3 78.2-8.8 7.8-13.7 18.6-13.7 30.3 0 11.8 4.8 22.6 13.6 30.4l1.2 1.1 92.6 105.2c-59.8-20.8-113.6-56-157-103-4.1-10.9-6.1-22.3-6-33.8 0.1-27.5 11.9-53.7 32.5-71.8 9.5-8.4 14.5-20.5 13.8-33.1zM367.1 883c0.8-41.1 23.4-68 41.5-89.5 17.1-20.4 27.5-33.9 27.1-52.9-0.5-19.7-12.1-31.8-32.6-51.3-10.5-10.1-22.5-21.4-32.2-35.6-11.9-17.4-18.2-35.8-19.2-56.2-2-41 18-65.6 35.7-87.3l0.1-0.1c16.2-19.8 26.1-33.1 26.1-55.6 0-22.1-9.5-35.4-26.3-56.9-15.7-20.2-35.3-45.3-41.9-84.4-5.6-33.2-0.2-68.5 16.1-105.1 0-0.1 0-0.1 0.1-0.2 2.5-5.7 5.3-11.3 8.4-17.2l20.5-4.1c6.2-1 12.5-1.9 18.8-2.7h0.3c10.4-1.2 20.8-2 31.3-2.4h0.5c-33.4 45.7-47.3 86.8-41.3 122.5 4.3 25.3 17.2 41.8 31 59.4 16.9 21.7 38 48.7 38 91.2-0.1 43.2-22.3 70.6-38.6 90.6-16 19.5-24.2 30.6-23.3 49.5 1 21.6 13.7 34.7 34.3 54.3l0.1 0.1c22.8 21.7 48.5 46.4 49.7 89.9 1 41.1-21.7 68.2-39.9 90-17.5 20.9-28.2 34.8-28.6 54.9-0.5 22 11.4 45.3 35.4 69.5h-3.3c-23.2 0-46.2-2.1-70.2-6.3l-1-0.2c-11.5-21.1-17-42.5-16.6-63.9z m239.1 39.3c-22.7 9.7-46.5 17.2-71 22.4l35.7-79.3c3.7-8.2 6.2-17 7.7-26.1 8.5 22 20.7 42.4 36.5 60.5 0.3 0.3 0.6 0.6 0.9 1l-9.8 21.5zM565 765.6c-0.3-0.6-0.7-1.1-1-1.6-27.4-41.2-33.1-98.9-14.6-147.1l2.9-7.6c13.3-34.6 7.2-78.2-14.5-103.7l-2.6-2.9c-31.4-36.9-42.8-93.5-29.1-144.1l22.8-84c4.7-17.7 5.1-37.3 0.9-55.1l-7.5-32.2c10.5 1.8 20.8 4.1 30.7 6.7l33.7 28.5c3 22.2 1.6 45.2-4.3 66.8l-22.8 84c-8.9 33-1.8 70.6 17.8 93.7l2.6 2.9c35.2 41.3 44.8 105.5 24 159.6l-2.9 7.6c-2.8 7.3-4.8 15-5.9 23.1-19.5 31.4-30.1 67.9-30.2 105.4z m27-306.2l-2.5-2.9c-16.3-19.2-22.1-51-14.5-79.1l22.8-84c4.9-18.2 7-37.4 6.2-56.3l51.7 43.7c12.8 10.7 15.8 33.2 6.6 49L627 390.5c-15.3 26.2-20.6 57.5-15.1 88 5.7 31.1 22.1 58.1 46.3 76.2l32.4 24.1c-25.5 10.5-48.7 26.2-68.2 46.2 18-57.2 6.3-122.5-30.4-165.6z m116.7 112.8l-40.9-30.4c-20.9-15.6-35.2-39.2-40.1-66.2-4.9-26.7-0.2-54.1 13.1-77l35.4-60.9c13-22.5 8.5-53.5-10.2-69.2l-66.7-56.3-6.7-5.6c55.5 21.3 106 55.6 146.5 99.6 0.6 21.1-4.6 41.7-14.9 59.6L689 426.5c-13.6 23.4-8 55.9 12.1 70.8l43.3 32.2c11.9 8.9 21.7 20.5 28.9 33.9-1.6 0-3.2-0.1-4.8-0.1-8.6 0-17.2 0.5-25.6 1.5-1.4 0.1-2.6 0.3-3.8 0.5l-0.4 0.1c-10.2 1.6-20.2 3.8-30 6.8zM459.8 134.5c-9-8-13.8-19.3-13.6-31.9 0.2-11.3 4.6-22.8 12-31.4 7.7-9.1 18.2-14.5 29.5-15.3 8.9-0.6 22.8 1.4 38.8 14.4 9.5 7.7 14.4 18.1 14.3 29.8-0.1 6.4-1.7 13.5-4.7 21-1.1 2.7-0.7 5.7 1.1 8s4.6 3.4 7.5 3c23.9-3.5 43.1-11.5 54-22.4 2.7-2.7 7.2-2.7 9.9 0 1.3 1.3 2.1 3.1 2.1 5s-0.7 3.6-2.1 5c-21.8 21.8-59.3 27-79.8 28.1-1.6 0.1-3.2 0.2-4.8 0.2-2.4 0.1-4.6 1.2-6.1 3.1-4 5.2-8.7 10.6-13.8 16.2-0.2 0.2-0.4 0.5-0.7 0.7-5.9-0.7-11.8-1.3-17.7-1.7 2.4-2.4 4.7-4.7 6.9-7.1 2-2.1 2.7-5.2 1.8-8-0.9-2.8-3.3-4.8-6.2-5.4-12.9-2.4-22.8-6.3-28.4-11.3z m-360 280.9c17.2-40.2 40.8-76.8 70.3-109 1.2 19.3 7.4 38 18.2 54.4l35.4 53.9c7.4 11.3 4.3 26.5-7 34l-43.3 28.5c-31.4 20.7-50.3 55.4-50.5 92.9-0.2 37.5 18.2 72.4 49.2 93.6l12.7 8.6c6.4 4.3 10.3 11.1 10.7 18.8 0.5 7.7-2.6 15-8.3 20-24 21.2-37.8 51.7-37.9 83.7 0 2.8 0.1 5.6 0.3 8.5C97.4 736 68.9 653.2 68.9 567.1c0-52.6 10.4-103.7 30.9-151.7z m668.3 537.8c-7.9 0-15.7-0.5-23.3-1.4l-0.3-0.1c-1.1-0.2-2.3-0.4-3.7-0.5-44-6.4-84.3-28.4-113.7-62.1-29.7-34-46.1-77.7-46.1-122.9s16.4-88.9 46.1-122.9c29.4-33.7 69.9-55.8 114-62.1l0.5-0.1c1-0.2 1.9-0.3 2.7-0.4h0.4c7.8-1 15.8-1.4 23.8-1.4 26.6 0 52.3 5.5 75.9 16 0.4 0.3 0.9 0.5 1.4 0.7 20 9.1 38.4 21.8 54.4 37.8 35.4 35.3 54.8 82.3 54.8 132.3 0.1 103.2-83.8 187.1-186.9 187.1z" fill="#383842" /><path d="M768 590.4c-5.9 0-11.8 0.4-17.5 0.9-88.7 8.7-158 83.6-158 174.6s69.3 165.8 158 174.6c5.8 0.6 11.6 0.9 17.5 0.9 96.9 0 175.5-78.6 175.5-175.5S865 590.5 768 590.4z m112.8 288.3c-30.1 30.1-70.2 46.7-112.8 46.7-5.4 0-10.6-0.3-15.9-0.8h-0.1c-39.2-3.9-75.4-22.1-102-51.3-26.8-29.4-41.6-67.5-41.6-107.3s14.8-78 41.6-107.4c26.6-29.2 62.8-47.4 101.9-51.3 4.4-0.4 10.2-0.8 16-0.8 42.6 0 82.7 16.7 112.8 46.8 30.1 30.1 46.7 70.1 46.7 112.7s-16.5 82.5-46.6 112.7z" fill="#383842" /></svg>