<?xml version="1.0" standalone="no"?><!DOCTYPE svg PUBLIC "-//W3C//DTD SVG 1.1//EN" "http://www.w3.org/Graphics/SVG/1.1/DTD/svg11.dtd"><svg class="icon" width="200px" height="200.00px" viewBox="0 0 1024 1024" version="1.1" xmlns="http://www.w3.org/2000/svg"><path d="M489.5 157.9l-44.9 164.7-10.3-37.5-35-127.2c0-43.5 19.8-80.5 34.6-94.7 4.1-4 7.9-6.2 10.7-6.2 10.5 0 44.9 45.1 44.9 100.9z" fill="#74E6D4" /><path d="M469 157.9l-34.7 127.2-35-127.2c0-43.5 19.8-80.5 34.6-94.7 14.2 14.2 35.1 51.2 35.1 94.7z" fill="#A9EDE0" /><path d="M591.7 97s-36.8 36.6-57.5 91.7l-84.8 69.6c0-7.6 0.5-15.1 1.4-22.5 8.3-67.6 53.4-121.7 111.7-135.5 9.4-2.2 19.2-3.3 29.2-3.3z" fill="#0DC6A5" /><path d="M562.5 100.4c-9.4 10.3-37.3 43.1-54.2 88.3l-57.4 47.2c8.2-67.7 53.3-121.8 111.6-135.5z" fill="#52DBC0" /><path d="M297 97s36.8 36.6 57.5 91.7l84.8 69.6c0-7.6-0.5-15.1-1.4-22.5-8.3-67.6-53.4-121.7-111.7-135.5C316.8 98.1 307 97 297 97z" fill="#0DC6A5" /><path d="M326.2 100.4c9.4 10.3 37.3 43.1 54.2 88.3l57.4 47.2c-8.2-67.7-53.3-121.8-111.6-135.5z" fill="#52DBC0" /><path d="M269 161.9s57.2 46 86.8 114.4l38.3 35 61.9-42.7c-27.6-51.4-79.6-89.7-142.2-102.3-14.5-2.9-29.5-4.4-44.8-4.4z" fill="#088457" /><path d="M313.8 166.3c14.5 12.8 55.9 90.5 80.3 144.9l56.7-8.8 5.1-33.9c-27.5-51.3-79.5-89.6-142.1-102.2z" fill="#08A36F" /><path d="M619.8 161.9s-57.2 46-86.8 114.4l-38.3 35-61.9-42.7c27.6-51.4 79.6-89.7 142.2-102.3 14.4-2.9 29.4-4.4 44.8-4.4z" fill="#088457" /><path d="M574.9 166.3c-14.5 12.8-55.9 90.5-80.3 144.9l-53.4-7.3-8.5-35.4c27.6-51.3 79.6-89.6 142.2-102.2z" fill="#08A36F" /><path d="M644.3 219.9s-65.2 52.4-98.9 130.4l-43.7-3.4-70.5-5.4c31.4-58.6 90.7-102.3 162.1-116.6 16.4-3.3 33.5-5 51-5z" fill="#036841" /><path d="M593.2 224.9c-16.5 14.6-63.7 59.9-91.6 122l-70.5-5.4c31.4-58.6 90.7-102.3 162.1-116.6z" fill="#088457" /><path d="M244.4 219.9s65.2 52.4 98.9 130.4l43.7-3.4 70.5-5.4c-31.4-58.6-90.7-102.3-162.1-116.6-16.3-3.3-33.4-5-51-5z" fill="#036841" /><path d="M295.5 224.9c16.5 14.6 63.7 59.9 91.6 122l70.5-5.4c-31.4-58.6-90.7-102.3-162.1-116.6z" fill="#088457" /><path d="M728.4 546.7v168.9c0 16.4-1.6 32.4-4.6 48-5.5 28.2-15.8 54.8-30 78.9-7.7 13.1-16.6 25.5-26.5 37-16.9 19.5-36.7 36.5-58.7 50.1-13.4 8.3-27.6 15.3-42.4 21-27.7 10.6-57.8 16.4-89.2 16.4h-68.5c-32-0.4-62.5-6.8-90.6-18.2-14.7-5.9-28.6-13.2-41.8-21.7-21.8-14-41.2-31.3-57.7-51.1-9.7-11.7-18.4-24.2-25.9-37.5-13.8-24.5-23.7-51.6-28.6-80.2-2.4-13.9-3.6-28.1-3.6-42.6v-169c0-20.1 2.4-39.8 6.9-58.6 6.6-27.4 17.7-53.1 32.6-76.3 8.2-12.8 17.4-24.7 27.7-35.8 17.6-19 38.1-35.3 60.7-48.1 13.8-7.9 28.5-14.5 43.8-19.6 18.5-6.2 38-10.4 58.2-12.1 7.1-0.6 14.2-0.9 21.5-0.9H477c4.9 0 9.8 0.1 14.6 0.4 20.9 1.2 41 5 60.3 11 15.5 4.9 30.4 11.2 44.5 18.9 22.9 12.5 43.7 28.4 61.7 47.1 10.4 10.8 19.9 22.6 28.2 35.2 15.1 22.7 26.7 48 33.8 75.1 5.5 20.4 8.3 41.8 8.3 63.7z" fill="#FFEC40" /><path d="M728.4 546.7v168.9C728.4 853.9 615.3 967 477 967h-65.4c-4.7 0-9.4-0.1-14-0.4 131.8-7.3 237.4-117.4 237.4-251V546.7c0-133.6-105.6-243.7-237.4-251 4.6-0.3 9.3-0.4 14-0.4H477c138.3 0 251.4 113.2 251.4 251.4z" fill="#FFCE43" /><path d="M728.4 596v-49.2c0-22-2.8-43.3-8.2-63.6l-20.6 20.6-54.4-54.4 41.2-41.2c-8.4-12.6-17.8-24.3-28.2-35.2l-44.7 44.7-54.5-54.6 37.4-37.4c-14.1-7.7-29-14-44.5-18.9l-24.6 24.6-35.7-35.7c-4.8-0.3-9.7-0.4-14.6-0.4h-65.4c-7.2 0-14.4 0.3-21.5 0.9L355 331.4l-23-23c-15.3 5.1-30 11.7-43.8 19.6l35.1 35.1-54.4 54.4-41.4-41.5c-10.2 11.1-19.5 23-27.7 35.8l37.4 37.4-54.4 54.4-15.5-15.6c-4.5 18.8-6.9 38.4-6.9 58.6v42.9l22.5-22.5 54.4 54.4-54.5 54.6-22.5-22.5v62.1c0 14.5 1.2 28.7 3.6 42.6l18.8-18.8 54.4 54.4-44.6 44.6c7.5 13.3 16.2 25.9 25.9 37.5l50.4-50.5 54.4 54.4-47.1 47.1c13.1 8.5 27.1 15.8 41.8 21.7l37.1-37.1 54.4 54.4-0.9 0.9h65.2l-0.9-0.9 54.4-54.4 38.9 38.9c14.9-5.7 29.1-12.7 42.4-21L559 880l54.4-54.4 53.9 53.9c9.9-11.5 18.8-23.8 26.5-37l-48.6-48.6 54.4-54.4 24.2 24.2c3-15.5 4.6-31.6 4.6-48v-68.5L699.6 676l-54.4-54.4 54.4-54.4 28.8 28.8zM581.7 449.3l-54.4 54.4-54.4-54.4 54.4-54.4 54.4 54.4zM409.5 621.6L355.1 676l-54.4-54.4 54.4-54.4 54.4 54.4z m-22.7-86.2l54.4-54.4 54.4 54.4-54.4 54.4-54.4-54.4z m54.4 117.9l54.4 54.4-54.4 54.4-54.4-54.4 54.4-54.4z m31.7-31.7l54.4-54.4 54.4 54.4-54.4 54.4-54.4-54.4z m-31.7-312.9l54.4 54.4-54.4 54.4-54.4-54.4 54.4-54.4z m-86.1 86.2l54.4 54.4-54.4 54.4-54.4-54.4 54.4-54.4zM214.5 535.4l54.4-54.4 54.4 54.4-54.4 54.4-54.4-54.4z m0 172.3l54.4-54.4 54.4 54.4-54.4 54.4-54.4-54.4z m86.1 86.1l54.4-54.4 54.4 54.4-54.4 54.4-54.4-54.4z m140.6 140.6L386.8 880l54.4-54.4 54.4 54.4-54.4 54.4z m86.1-86.2l-54.4-54.4 54.4-54.4 54.4 54.4-54.4 54.4z m140.6-140.5l-54.4 54.4-54.5-54.4 54.4-54.4 54.5 54.4z m-54.4-117.9L559 535.4l54.4-54.4 54.4 54.4-54.3 54.4z" fill="#FFBA0D" /><path d="M863.7 770.6c0 108-87.6 195.6-195.6 195.6-11.4 0-22.7-1-33.6-2.9-92-15.9-162-96.2-162-192.7s70-176.8 162-192.7c10.9-1.9 22.1-2.9 33.6-2.9 108 0 195.6 87.6 195.6 195.6z" fill="#E8A207" /><path d="M796.5 770.6c0 96.6-70 176.8-162 192.7-92-15.9-162-96.2-162-192.7s70-176.8 162-192.7c92 15.9 162 96.1 162 192.7z" fill="#FFBA0D" /><path d="M844.1 770.6c0 90.2-67.8 164.6-155.3 174.8-6.8 0.8-13.7 1.2-20.7 1.2-97.2 0-176-78.8-176-176s78.8-176 176-176c7 0 13.9 0.4 20.7 1.2 87.4 10.2 155.3 84.6 155.3 174.8z" fill="#FFFDEE" /><path d="M796.5 770.6c0 76.4-43.8 142.6-107.7 174.8-6.8 0.8-13.7 1.2-20.7 1.2-97.2 0-176-78.8-176-176s78.8-176 176-176c7 0 13.9 0.4 20.7 1.2 63.9 32.2 107.7 98.4 107.7 174.8z" fill="#FFFFFF" /><path d="M656.3 677.4a11.1 65.5 0 1 0 22.2 0 11.1 65.5 0 1 0-22.2 0Z" fill="#FFED43" /><path d="M611.268759 695.733483a65.5 11.1 60 1 0 19.225764-11.1 65.5 11.1 60 1 0-19.225764 11.1Z" fill="#FFED43" /><path d="M581.395637 734.132722a65.5 11.1 30 1 0 11.1-19.225764 65.5 11.1 30 1 0-11.1 19.225764Z" fill="#FFED43" /><path d="M509.4 771.2a65.5 11.1 0 1 0 131 0 65.5 11.1 0 1 0-131 0Z" fill="#FFED43" /><path d="M530.962271 850.427242a11.1 65.5 60 1 0 113.449328-65.5 11.1 65.5 60 1 0-113.449328 65.5Z" fill="#FFED43" /><path d="M589.328536 908.295487a11.1 65.5 30 1 0 65.5-113.449328 11.1 65.5 30 1 0-65.5 113.449328Z" fill="#FFED43" /><path d="M657.7 863.7a11.1 65.5 0 1 0 22.2 0 11.1 65.5 0 1 0-22.2 0Z" fill="#FFED43" /><path d="M705.677527 856.432206a65.5 11.1 60 1 0 19.225764-11.1 65.5 11.1 60 1 0-19.225764 11.1Z" fill="#FFED43" /><path d="M743.465976 826.201349a65.5 11.1 30 1 0 11.1-19.225764 65.5 11.1 30 1 0-11.1 19.225764Z" fill="#FFED43" /><path d="M695.8 769.9a65.5 11.1 0 1 0 131 0 65.5 11.1 0 1 0-131 0Z" fill="#FFED43" /><path d="M691.760451 756.138447a11.1 65.5 60 1 0 113.449328-65.5 11.1 65.5 60 1 0-113.449328 65.5Z" fill="#FFED43" /><path d="M681.233421 746.261949a11.1 65.5 30 1 0 65.5-113.449328 11.1 65.5 30 1 0-65.5 113.449328Z" fill="#FFED43" /><path d="M736.4 578.8v-32.1c0-22.5-2.9-44.7-8.6-65.7-7.2-27.4-18.9-53.5-34.9-77.5-8.5-12.8-18.2-25.1-29.1-36.3-18.6-19.4-40-35.7-63.6-48.6-7.3-4-14.9-7.6-22.6-10.9 32.4-49.6 71.3-81.2 71.7-81.5 2.6-2.1 3.7-5.7 2.5-8.9s-4.2-5.3-7.5-5.3c-17.9 0-35.6 1.7-52.6 5.2-5.6 1.1-11.1 2.4-16.6 3.9 24.8-32.6 49.4-52.6 49.7-52.8 2.6-2.1 3.7-5.7 2.5-8.9-1.1-3.2-4.2-5.3-7.5-5.3-15.8 0-31.4 1.5-46.4 4.6-6.4 1.3-12.7 2.8-18.9 4.7 19.3-36.7 42.6-60.2 42.9-60.4 2.3-2.3 3-5.7 1.8-8.7-1.2-3-4.2-4.9-7.4-4.9-10.6 0-21.1 1.2-31 3.5-24.5 5.8-47.1 18.3-66 36.4-4.5-22.9-13.3-40.6-18.8-50.1-4.8-8.2-9.9-15.2-15-20.5-6.1-6.3-11.4-9.3-16.2-9.3-5 0-10.5 2.9-16.2 8.4-13.2 12.7-28.3 39.3-34.3 71.5-18.9-18.1-41.5-30.6-66-36.4-10-2.3-20.4-3.5-31-3.5-3.2 0-6.2 2-7.4 4.9s-0.5 6.4 1.7 8.7c0.3 0.3 23.5 23.7 42.8 60.4-6.2-1.8-12.5-3.3-18.8-4.6-15.1-3-30.7-4.6-46.4-4.6-3.4 0-6.4 2.1-7.5 5.3-1.1 3.2-0.1 6.8 2.5 8.9 0.3 0.2 24.9 20.3 49.7 52.9-5.5-1.5-11.1-2.8-16.7-3.9-16.9-3.4-34.6-5.2-52.6-5.2-3.4 0-6.4 2.1-7.5 5.3-1.1 3.2-0.1 6.8 2.5 8.9 0.4 0.3 39.3 31.9 71.7 81.5-9.2 3.9-18.2 8.4-26.8 13.3-23.3 13.2-44.3 29.9-62.6 49.6-10.5 11.4-20.1 23.8-28.6 36.9-15.6 24.3-26.9 50.8-33.6 78.8-4.7 19.7-7.1 40.1-7.1 60.5v169c0 14.9 1.3 29.7 3.7 44 5 29 14.9 56.8 29.5 82.8 7.6 13.4 16.5 26.4 26.7 38.7 17.2 20.7 37.3 38.4 59.5 52.7 13.9 8.9 28.4 16.5 43.1 22.4 29.7 12.1 61.2 18.4 93.5 18.8H477c31.7 0 62.7-5.7 92.1-16.9 3.5-1.4 7-2.8 10.3-4.2 16.9 8.2 35 14.1 53.7 17.3 11.5 2 23.3 3 35 3 112.3 0 203.6-91.3 203.6-203.6 0-88.7-56.5-164.1-135.3-192.2zM594.9 232.7c9-1.8 18.2-3.1 27.5-3.9-15.5 14.9-39.1 40.1-60 72.9l-8.1-2.7c-20.4-6.3-41.3-10.1-62.2-11.3-2.5-0.2-5.1-0.3-7.9-0.3 21.1-18.8 46.1-33.8 73.3-44 0.1 0 0.2-0.1 0.2-0.1 12-4.5 24.5-8 37.2-10.6z m-30.6-124.6c2.8-0.6 5.6-1.2 8.4-1.6-11 13.6-26.9 35.9-39.6 64.1-26.7 10.7-50.6 26.3-70.5 45.6 6-24.1 17-46.1 32.6-64.5v-0.1-0.1l0.1-0.1c18.8-22.1 42.7-37.1 69-43.3zM439.5 68.9c2.3-2.3 4-3.3 4.9-3.7 6.9 3.8 31.7 34.5 36.4 78.9-18.6 22.9-31.1 50.7-36.4 81-5.3-30.3-17.8-58-36.4-80.9 3.6-36.5 20.6-64.8 31.5-75.3z m-115.1 39.2c26.5 6.3 50.4 21.4 69.3 43.7 15.5 18.3 26.5 40.3 32.5 64.3-1.7-1.6-3.4-3.3-5.1-4.8-19-17.3-41-31-65.4-40.8-12.7-28.2-28.6-50.4-39.6-64 2.7 0.4 5.5 0.9 8.3 1.6zM290.9 171c7.2 0.7 14.3 1.8 21.3 3.2 11.8 2.4 23.4 5.7 34.5 10 23.8 9.2 45.1 22.2 63.5 38.9 8.1 7.3 15.5 15.3 22 23.7 1.8 2.3 3.7 4.9 5.6 7.6l0.1 0.1c0.1 0.2 0.3 0.4 0.4 0.6l0.2 0.2 0.6 0.6 0.2 0.2c0.2 0.1 0.3 0.3 0.5 0.4 0.3 0.2 0.6 0.4 1 0.6 0.1 0 0.2 0.1 0.2 0.1 0.3 0.1 0.5 0.2 0.8 0.3 0.1 0 0.3 0.1 0.4 0.1 0.2 0.1 0.5 0.1 0.7 0.2 0.1 0 0.3 0.1 0.4 0.1 0.3 0 0.7 0.1 1 0.1h0.2c0.3 0 0.7 0 1-0.1 0.1 0 0.3 0 0.4-0.1 0.2 0 0.5-0.1 0.7-0.2 0.1 0 0.3-0.1 0.4-0.1 0.3-0.1 0.5-0.2 0.8-0.3 0.1 0 0.2-0.1 0.3-0.1 0.3-0.2 0.7-0.4 1-0.6 0.2-0.1 0.3-0.3 0.5-0.4 0.1 0 0.1-0.1 0.2-0.1l0.6-0.6c0-0.1 0.1-0.1 0.1-0.2 0.2-0.2 0.3-0.4 0.5-0.6l0.1-0.1c1.7-2.4 3.6-4.9 5.5-7.4 21.6-27.8 51.2-49.5 85.5-62.7 0.1 0 0.2-0.1 0.3-0.1 11.1-4.2 22.6-7.6 34.3-9.9 7-1.4 14.1-2.5 21.3-3.2-12.9 12.7-31.4 32.7-48.3 58.3-33.6 12.9-64.1 32.9-88.5 58h-33.6c-24.3-25.1-54.7-45-88.3-58-17-25.8-35.5-45.9-48.4-58.5z m-24.6 57.8c9.4 0.8 18.6 2.1 27.5 3.9 12.7 2.5 25.2 6.1 37.3 10.6 27.2 10.2 52.3 25.2 73.4 44-5 0.1-10 0.4-15 0.8-20.2 1.7-40.4 5.9-60.1 12.5-1.1 0.4-2.1 0.7-3.1 1.1-20.9-32.7-44.5-58-60-72.9zM477 959h-68.5c-30.3-0.4-59.8-6.3-87.7-17.6-13.8-5.5-27.4-12.6-40.5-21-20.9-13.4-39.7-30.1-55.9-49.5-9.6-11.5-18-23.8-25.1-36.3-13.7-24.4-23-50.5-27.7-77.6-2.3-13.4-3.5-27.3-3.5-41.2v-169c0-19.1 2.2-38.2 6.7-56.7 6.3-26.2 16.9-51.1 31.6-73.9 7.9-12.3 16.9-24 26.8-34.7 17.2-18.5 37-34.2 58.8-46.6 10.7-6.1 22-11.5 33.7-15.9 2.7-1 5.6-2 8.7-3.1 18.4-6.2 37.4-10.1 56.3-11.7 6.9-0.6 13.8-0.9 20.8-0.9H477c5.3 0 10 0.1 14.1 0.4 19.6 1.1 39.3 4.7 58.3 10.6 4.5 1.4 9 3 13.4 4.6 10.3 3.9 20.3 8.5 29.7 13.7 22.2 12.1 42.3 27.4 59.8 45.6 10.2 10.6 19.4 22 27.3 34.1 15 22.5 26 47 32.7 72.8 5.3 19.8 8 40.5 8 61.6v27.1c-16.7-4.4-34.2-6.8-52.3-6.8-11.7 0-23.5 1-35 3-46.7 8.1-89.4 32.5-120.2 68.8-31.2 36.7-48.4 83.5-48.4 131.8 0 48.2 17.2 95 48.4 131.8 13.9 16.4 30.3 30.4 48.4 41.5-26.8 10-55.2 15.1-84.2 15.1z m191.1-0.8c-10.8 0-21.6-0.9-32.2-2.8-43-7.4-82.3-30-110.8-63.4-28.8-33.8-44.6-77-44.6-121.4s15.8-87.6 44.6-121.4c28.4-33.5 67.8-56 110.8-63.4 10.6-1.8 21.4-2.8 32.2-2.8 103.4 0 187.6 84.2 187.6 187.6 0 103.4-84.2 187.6-187.6 187.6z" fill="#333333" /></svg>