<?xml version="1.0" standalone="no"?><!DOCTYPE svg PUBLIC "-//W3C//DTD SVG 1.1//EN" "http://www.w3.org/Graphics/SVG/1.1/DTD/svg11.dtd"><svg t="1629722638157" class="icon" viewBox="0 0 1024 1024" version="1.1" xmlns="http://www.w3.org/2000/svg" p-id="6408" xmlns:xlink="http://www.w3.org/1999/xlink" width="200" height="200"><defs><style type="text/css"></style></defs><path d="M167.23 770.64c-107.06-100.82-36.38-44.23 26.71-196.12 63.09-151.89-84.12-63.09 0-233.68 84.12-170.58 169.7-248.04 303.78-236.01 133.99 12.02 210.31 42.06 254.71 182.27 44.4 140.21 100.48 203.3 44.4 287.42-56.08 84.12 38.14 87.32 70.48 145.31 0 0-313.18 415.18-700.08 50.81z" fill="#294AA4" p-id="6409"></path><path d="M649.61 354.86s-53.74 133.19-264.05 158.9c0 0 56.08 4.67 0-79.45 0 0-14.02 81.79-105.16 79.45 0 0-77.11 18.69 0 88.8 0 0 30.35 147.31 224.3 147.31 151.88 0 210.34-154.32 210.34-154.32s42.06-2.34 0-81.79-53.74-44.39-65.43-158.9z" fill="#FFFFFF" p-id="6410"></path><path d="M425.33 545.16l-6.11-0.82c-1.53 11.32-8.51 18.04-15.66 22.14-3.3-11.26-10.37-19.11-18.63-19.11-11.4 0-20.64 14.87-20.64 33.21 0 18.34 9.24 33.21 20.64 33.21s20.64-14.87 20.64-33.21c0-2.73-0.26-5.33-0.65-7.87 9.04-4.73 18.45-13.07 20.41-27.55zM638.61 545.16l-6.11-0.82c-1.53 11.32-8.51 18.04-15.66 22.14-3.3-11.26-10.37-19.11-18.63-19.11-11.4 0-20.64 14.87-20.64 33.21 0 18.34 9.24 33.21 20.64 33.21s20.65-14.87 20.65-33.21c0-2.73-0.26-5.33-0.65-7.87 9.03-4.73 18.45-13.07 20.4-27.55z" fill="#294AA4" p-id="6411"></path><path d="M566.64 261.95s-13.36-33.39-73.47-33.39-28.94-115.77 35.62-64.56c64.57 51.2 37.85 97.95 37.85 97.95zM571.09 261.95s64.56-53.43 106.86-13.36c42.31 40.07 0 100.18-106.86 13.36zM912 806.59c0 60.16-48.77 108.93-108.93 108.93s-108.93-48.77-108.93-108.93c0-60.16 48.77-108.93 108.93-108.93S912 746.43 912 806.59z" fill="#FFFFFF" p-id="6412"></path><path d="M845.92 790.96h-30.95V760c0-6.54-5.36-11.9-11.9-11.9s-11.9 5.36-11.9 11.9v30.96h-30.95c-6.54 0-11.9 5.35-11.9 11.9 0 6.55 5.36 11.9 11.9 11.9h30.95v30.96c0 6.54 5.36 11.9 11.9 11.9s11.9-5.36 11.9-11.9v-30.96h30.95c6.54 0 11.9-5.35 11.9-11.9 0-6.55-5.35-11.9-11.9-11.9z" fill="#294AA4" p-id="6413"></path></svg>