<?xml version="1.0" standalone="no"?><!DOCTYPE svg PUBLIC "-//W3C//DTD SVG 1.1//EN" "http://www.w3.org/Graphics/SVG/1.1/DTD/svg11.dtd"><svg class="icon" width="200px" height="200.00px" viewBox="0 0 1024 1024" version="1.1" xmlns="http://www.w3.org/2000/svg"><path d="M512 112v94l-195.3-94z" fill="#FFE572" /><path d="M316.7 112l-32.4 172.4-172.4 32.4z" fill="#FFAF45" /><path d="M206 511.9v0.2l-94.1 195.1V316.8z" fill="#FFC25A" /><path d="M316.7 912L111.9 707.2l172.4 32.4z" fill="#FFAF45" /><path d="M512 818v94H316.7z" fill="#FFE572" /><path d="M512 206l-121 58.2L316.7 112z" fill="#FFAF45" /><path d="M512 206v58.2H391z" fill="#FFE572" /><path d="M707.3 112l-74.4 152.2L512 206z" fill="#FF9843" /><path d="M912.1 316.8l-152.4 74.3-20-106.7z" fill="#FFAF45" /><path d="M759.7 391.1L632.9 264.2l106.8 20.2z" fill="#FFC25A" /><path d="M739.7 284.4l-106.8-20.2L707.3 112z" fill="#FFAF45" /><path d="M912.1 316.8L818 511.9l-58.3-120.8zM912.1 707.2l-152.4-74.3L818 512.1z" fill="#FF9843" /><path d="M818 511.9v0.2l-58.3 120.8V391.1z" fill="#FFC25A" /><path d="M739.7 739.6L707.3 912l-74.4-152.2z" fill="#FFAF45" /><path d="M759.7 632.9l-20 106.7-106.8 20.2z" fill="#FFC25A" /><path d="M912.1 707.2l-172.4 32.4 20-106.7zM512 818l-195.3 94L391 759.8z" fill="#FFAF45" /><path d="M512 759.8V818l-121-58.2z" fill="#FFE572" /><path d="M707.3 912L512 818l120.9-58.2z" fill="#FF9843" /><path d="M284.3 739.6l-172.4-32.4 152.2-74.3z" fill="#FFC25A" /><path d="M391 759.8l-106.7-20.2-20.2-106.7z" fill="#FFE572" /><path d="M391 759.8L316.7 912l-32.4-172.4z" fill="#FFC25A" /><path d="M264.1 391.1L206 511.9l-94.1-195.1zM264.1 632.9l-152.2 74.3L206 512.1z" fill="#FFAF45" /><path d="M264.1 391.1v241.8L206 512.1v-0.2z" fill="#FFE572" /><path d="M284.3 284.4l-20.2 106.7-152.2-74.3zM391 264.2l-106.7 20.2L316.7 112z" fill="#FFC25A" /><path d="M391 264.2L264.1 391.1l20.2-106.7zM759.7 391.1v241.8L632.9 759.8H512V264.2h120.9zM707.3 112L512 206v-94z" fill="#FFE572" /><path d="M707.3 912H512v-94z" fill="#FFC25A" /><path d="M912.1 316.8l-172.4-32.4L707.3 112z" fill="#FF9843" /><path d="M912.1 316.8v390.4L818 512.1v-0.2z" fill="#FFAF45" /><path d="M912.1 707.2L707.3 912l32.4-172.4z" fill="#FF9843" /><path d="M632.9 264.2H512V206zM632.9 759.8L512 818v-58.2z" fill="#FFC25A" /><path d="M794.5 283c-20.7-4.7-36.9-21-41.6-41.6-0.4-1.6-2.4-1.6-2.8 0-4.7 20.7-21 36.9-41.6 41.6-1.6 0.4-1.6 2.4 0 2.8 20.7 4.7 36.9 21 41.6 41.6 0.4 1.6 2.4 1.6 2.8 0 4.7-20.7 21-36.9 41.6-41.6 1.5-0.4 1.5-2.5 0-2.8zM671.1 266.3c-16.2-4.2-29-17-33.2-33.2-0.4-1.6-2.5-1.6-3 0-4.2 16.2-17 29-33.2 33.2-1.6 0.4-1.6 2.5 0 3 16.2 4.2 29 17 33.2 33.2 0.4 1.6 2.5 1.6 3 0 4.2-16.2 17-29 33.2-33.2 1.6-0.5 1.6-2.6 0-3z" fill="#FFFFFF" /><path d="M512 264.2v495.6H391L264.1 632.9V391.1L391 264.2z" fill="#FFF48A" /></svg>