<?xml version="1.0" standalone="no"?><!DOCTYPE svg PUBLIC "-//W3C//DTD SVG 1.1//EN" "http://www.w3.org/Graphics/SVG/1.1/DTD/svg11.dtd"><svg class="icon" width="200px" height="200.00px" viewBox="0 0 1024 1024" version="1.1" xmlns="http://www.w3.org/2000/svg"><path d="M512 512v463.8l-64.8-221.6L382.5 512z" fill="#CB9AFF" /><path d="M219.6 512l227.6 242.2L382.5 512z" fill="#B68DFF" /><path d="M284.5 749.3L219.6 512H72z" fill="#8A73FF" /><path d="M284.5 749.3L219.6 512l227.6 242.2L512 975.8z" fill="#A180FF" /><path d="M641.5 512l-64.7 242.2L512 975.8V512z" fill="#B68DFF" /><path d="M804.4 512L576.8 754.2 641.5 512z" fill="#A180FF" /><path d="M739.5 749.3L804.4 512H952z" fill="#785EF7" /><path d="M739.5 749.3L804.4 512 576.8 754.2 512 975.8z" fill="#8A73FF" /><path d="M512 512V48.2l-64.8 221.6L382.5 512z" fill="#EABFFF" /><path d="M382.5 512l64.7-242.2L219.6 512z" fill="#CB9AFF" /><path d="M72 512h147.6l64.9-237.3z" fill="#A180FF" /><path d="M512 48.2l-64.8 221.6L219.6 512l64.9-237.3z" fill="#B68DFF" /><path d="M641.5 512l-64.7-242.2L512 48.2V512z" fill="#CB9AFF" /><path d="M641.5 512l-64.7-242.2L804.4 512z" fill="#B68DFF" /><path d="M952 512H804.4l-64.9-237.3z" fill="#8A73FF" /><path d="M512 48.2l64.8 221.6L804.4 512l-64.9-237.3z" fill="#A180FF" /><path d="M738.4 392c-20.7-4.7-36.9-21-41.6-41.6-0.4-1.6-2.4-1.6-2.8 0-4.7 20.7-21 36.9-41.6 41.6-1.6 0.4-1.6 2.4 0 2.8 20.7 4.7 36.9 21 41.6 41.6 0.4 1.6 2.4 1.6 2.8 0 4.7-20.7 21-36.9 41.6-41.6 1.5-0.4 1.5-2.5 0-2.8zM617.4 274.7c-16.2-4.2-29-17-33.2-33.2-0.4-1.6-2.5-1.6-3 0-4.2 16.2-17 29-33.2 33.2-1.6 0.4-1.6 2.5 0 3 16.2 4.2 29 17 33.2 33.2 0.4 1.6 2.5 1.6 3 0 4.2-16.2 17-29 33.2-33.2 1.6-0.5 1.6-2.6 0-3z" fill="#FFFFFF" /></svg>