<?xml version="1.0" standalone="no"?><!DOCTYPE svg PUBLIC "-//W3C//DTD SVG 1.1//EN" "http://www.w3.org/Graphics/SVG/1.1/DTD/svg11.dtd"><svg class="icon" width="200px" height="200.00px" viewBox="0 0 1024 1024" version="1.1" xmlns="http://www.w3.org/2000/svg"><path d="M512 512zM512 512z" fill="#82D2FF" /><path d="M512 72v144.2L341.4 332.5l-106.8-76.4-0.1-0.1c0.7-1.7 1.4-3.4 2.2-5.1 16.9-38 41.7-72.6 73.2-101.2C367.3 97.9 439.7 72 512 72z" fill="#B5E668" /><path d="M788.9 254.7l-113.3 73-163.5-111.5h-0.1V72c72.3 0 144.7 25.9 202.1 77.8 32.5 29.5 57.9 65.4 74.8 104.9z" fill="#89CC5C" /><path d="M813.2 373.2v138.5H682.9v-78.5c0-2.7-0.1-5.5-0.2-8.2v-92.5l-7.1-4.8 113.3-73 0.1-0.1c15.7 37.1 24.2 77.4 24.2 118.6z" fill="#64B350" /><path d="M789.1 768.8l-1.8 4.2c-16.9 38-41.7 72.6-73.2 101.1-57.4 52-129.8 77.9-202.1 77.9V816.2h0.1l170.5-119 106.5 71.6z" fill="#35A03A" /><path d="M512 816.2V952c-72.3 0-144.7-25.9-202.1-77.8-32.7-29.6-58.2-65.7-75-105.4l106.5-71.6 170.6 119z" fill="#64B350" /><path d="M341.4 332.5v95c-0.1 1.9-0.1 3.9-0.1 5.8v78.4H210.9V373.2c0-40.7 8.2-80.4 23.7-117v-0.1l106.8 76.4z" fill="#89CC5C" /><path d="M341.4 697.2l-106.5 71.6c-15.7-36.9-24-76.9-24-117.9V511.7h130.4v79.1c0 2.2 0 4.3 0.1 6.5v99.9z" fill="#B5E668" /><path d="M813.2 511.7v139.2c0 41-8.3 81-24 117.9l-106.5-71.6v-98.3c0.1-2.7 0.2-5.5 0.2-8.2v-79h130.3z" fill="#89CC5C" /><path d="M512.1 216.2v600h-0.1l-170.6-119V332.5L512 216.2z" fill="#EAFF8B" /><path d="M682.7 332.5v364.7l-170.6 119v-600z" fill="#B5E668" /><path d="M771.7 304.3c-20.7-4.7-36.9-21-41.6-41.6-0.4-1.6-2.4-1.6-2.8 0-4.7 20.7-21 36.9-41.6 41.6-1.6 0.4-1.6 2.4 0 2.8 20.7 4.7 36.9 21 41.6 41.6 0.4 1.6 2.4 1.6 2.8 0 4.7-20.7 21-36.9 41.6-41.6 1.5-0.4 1.5-2.5 0-2.8zM681.2 353c-16.2-4.2-29-17-33.2-33.2-0.4-1.6-2.5-1.6-3 0-4.2 16.2-17 29-33.2 33.2-1.6 0.4-1.6 2.5 0 3 16.2 4.2 29 17 33.2 33.2 0.4 1.6 2.5 1.6 3 0 4.2-16.2 17-29 33.2-33.2 1.6-0.5 1.6-2.6 0-3z" fill="#FFFFFF" /></svg>