<?xml version="1.0" standalone="no"?><!DOCTYPE svg PUBLIC "-//W3C//DTD SVG 1.1//EN" "http://www.w3.org/Graphics/SVG/1.1/DTD/svg11.dtd"><svg class="icon" width="200px" height="200.00px" viewBox="0 0 1024 1024" version="1.1" xmlns="http://www.w3.org/2000/svg"><path d="M512 310.7v436.8H370l-87.7-270z" fill="#83F2C3" /><path d="M512 310.7l-203.2-31.5-26.5 198.3z" fill="#6FECC6" /><path d="M512 131.6v179.1l-203.2-31.5zM112 422.2l170.3 55.3 26.5-198.3z" fill="#53E0BB" /><path d="M512 747.5v144.9L370 747.5z" fill="#6FECC6" /><path d="M264.8 892.4l105.3-144.9L512 892.4z" fill="#31C6B8" /><path d="M653.9 747.5l105.3 144.9H512z" fill="#00B3B2" /><path d="M741.7 477.5L834.1 662l-180.2 85.5z" fill="#53E0BB" /><path d="M759.2 892.4L653.9 747.5 834.1 662z" fill="#31C6B8" /><path d="M741.7 477.5L912 422.2 834.1 662z" fill="#00B3B2" /><path d="M512 310.7l207.5-28.4 22.2 195.2z" fill="#53E0BB" /><path d="M912 422.2L719.5 282.3l22.2 195.2zM512 310.7V131.6l207.5 150.7z" fill="#31C6B8" /><path d="M370.1 747.5L189.9 662l92.4-184.5z" fill="#6FECC6" /><path d="M112 422.2l170.3 55.3L189.9 662z" fill="#31C6B8" /><path d="M264.8 892.4l105.3-144.9L189.9 662z" fill="#53E0BB" /><path d="M741.7 477.5l-87.8 270H512V310.7z" fill="#6FECC6" /><path d="M653.9 747.5L512 892.4V747.5z" fill="#53E0BB" /><path d="M660.6 380.2c-20.7-4.7-36.9-21-41.6-41.6-0.4-1.6-2.4-1.6-2.8 0-4.7 20.7-21 36.9-41.6 41.6-1.6 0.4-1.6 2.4 0 2.8 20.7 4.7 36.9 21 41.6 41.6 0.4 1.6 2.4 1.6 2.8 0 4.7-20.7 21-36.9 41.6-41.6 1.5-0.4 1.5-2.5 0-2.8zM557.6 313.6c-16.2-4.2-29-17-33.2-33.2-0.4-1.6-2.5-1.6-3 0-4.2 16.2-17 29-33.2 33.2-1.6 0.4-1.6 2.5 0 3 16.2 4.2 29 17 33.2 33.2 0.4 1.6 2.5 1.6 3 0 4.2-16.2 17-29 33.2-33.2 1.6-0.5 1.6-2.6 0-3z" fill="#FFFFFF" /></svg>