<?xml version="1.0" standalone="no"?><!DOCTYPE svg PUBLIC "-//W3C//DTD SVG 1.1//EN" "http://www.w3.org/Graphics/SVG/1.1/DTD/svg11.dtd"><svg class="icon" width="200px" height="200.00px" viewBox="0 0 1024 1024" version="1.1" xmlns="http://www.w3.org/2000/svg"><path d="M635.6 382.1l-74.7 102.8-48.9-99.1V131.6z" fill="#FFAF45" /><path d="M432.9 577.9L312 617.1 112 422.2l241.8 78.5z" fill="#FFC25A" /><path d="M759.2 892.4L512 762.4V635.3l97.7 51.4zM912 422.2L712 617.1l-120.9-39.2 79.1-77.2z" fill="#FFAF45" /><path d="M512 131.6v254.2l-48.9 99.1-74.7-102.8z" fill="#FFC25A" /><path d="M463.1 484.9l-109.3 15.8L112 422.2l276.4-40.1zM432.9 577.9l-18.7 108.8-149.4 205.7L312 617.1z" fill="#FFE572" /><path d="M512 635.3v127.1l-247.2 130 149.4-205.7zM759.2 892.4L609.7 686.7l-18.6-108.8L712 617.1zM912 422.2l-241.8 78.5-109.3-15.8 74.7-102.8z" fill="#FFC25A" /><path d="M591.1 577.9l18.6 108.8-97.7-51.3V385.9l48.9 99 109.3 15.8z" fill="#FFE572" /><path d="M512 385.9v249.5-0.1l-97.8 51.4 18.7-108.8-79.1-77.2 109.3-15.8 48.9-99.1z" fill="#FFF48A" /><path d="M721.7 507.8c-20.7-4.7-36.9-21-41.6-41.6-0.4-1.6-2.4-1.6-2.8 0-4.7 20.7-21 36.9-41.6 41.6-1.6 0.4-1.6 2.4 0 2.8 20.7 4.7 36.9 21 41.6 41.6 0.4 1.6 2.4 1.6 2.8 0 4.7-20.7 21-36.9 41.6-41.6 1.5-0.4 1.5-2.5 0-2.8zM633.4 591.4c-16.2-4.2-29-17-33.2-33.2-0.4-1.6-2.5-1.6-3 0-4.2 16.2-17 29-33.2 33.2-1.6 0.4-1.6 2.5 0 3 16.2 4.2 29 17 33.2 33.2 0.4 1.6 2.5 1.6 3 0 4.2-16.2 17-29 33.2-33.2 1.6-0.5 1.6-2.6 0-3z" fill="#FFFFFF" /></svg>