<?xml version="1.0" standalone="no"?><!DOCTYPE svg PUBLIC "-//W3C//DTD SVG 1.1//EN" "http://www.w3.org/Graphics/SVG/1.1/DTD/svg11.dtd"><svg class="icon" width="200px" height="200.00px" viewBox="0 0 1024 1024" version="1.1" xmlns="http://www.w3.org/2000/svg"><path d="M385.6 266.7H512v490.6H385.6z" fill="#FFBFFD" /><path d="M259.1 266.7h126.4v490.6H259.1zM512 266.7V72L385.6 266.7z" fill="#FF98E3" /><path d="M512 72L259.1 266.7h126.5z" fill="#FB7DC9" /><path d="M638.434 757.3h-126.4V266.7h126.4z" fill="#FF98E3" /><path d="M764.903 757.3h-126.4V266.7h126.4zM512 266.7V72l126.4 194.7z" fill="#FB7DC9" /><path d="M512 72l252.9 194.7H638.4z" fill="#FA56A2" /><path d="M512 757.3V952L385.6 757.3z" fill="#FF98E3" /><path d="M512 952L259.1 757.3h126.5zM512 757.3V952l126.4-194.7z" fill="#FB7DC9" /><path d="M512 952l252.9-194.7H638.4z" fill="#FA56A2" /><path d="M682 316.1c-20.7-4.7-36.9-21-41.6-41.6-0.4-1.6-2.4-1.6-2.8 0-4.7 20.7-21 36.9-41.6 41.6-1.6 0.4-1.6 2.4 0 2.8 20.7 4.7 36.9 21 41.6 41.6 0.4 1.6 2.4 1.6 2.8 0 4.7-20.7 21-36.9 41.6-41.6 1.5-0.4 1.5-2.5 0-2.8zM557.8 263.5c-16.2-4.2-29-17-33.2-33.2-0.4-1.6-2.5-1.6-3 0-4.2 16.2-17 29-33.2 33.2-1.6 0.4-1.6 2.5 0 3 16.2 4.2 29 17 33.2 33.2 0.4 1.6 2.5 1.6 3 0 4.2-16.2 17-29 33.2-33.2 1.6-0.5 1.6-2.6 0-3z" fill="#FFFFFF" /></svg>