<?xml version="1.0" standalone="no"?><!DOCTYPE svg PUBLIC "-//W3C//DTD SVG 1.1//EN" "http://www.w3.org/Graphics/SVG/1.1/DTD/svg11.dtd"><svg class="icon" width="200px" height="200.00px" viewBox="0 0 1024 1024" version="1.1" xmlns="http://www.w3.org/2000/svg"><path d="M512 259.4v505.2L259.4 512.1z" fill="#B0DBFA" /><path d="M340.2 340.2L259.4 512 512 259.4zM92 512l248.2-171.8L512 92z" fill="#83CAFA" /><path d="M259.4 512H92l248.2-171.8zM512 259.4V92L340.2 340.2zM683.8 683.8L512 764.6 764.6 512z" fill="#51B9F9" /><path d="M512 932l171.8-248.2L932 512z" fill="#007FE8" /><path d="M512 764.6V932l171.8-248.2z" fill="#00A7F7" /><path d="M764.6 512H932L683.8 683.8z" fill="#0091EA" /><path d="M683.8 340.2L512 259.4 764.6 512zM512 92l171.8 248.2L932 512z" fill="#51B9F9" /><path d="M512 259.4V92l171.8 248.2zM764.6 512H932L683.8 340.2z" fill="#00A7F7" /><path d="M340.2 683.8L259.4 512 512 764.6z" fill="#83CAFA" /><path d="M92 512l248.2 171.8L512 932z" fill="#0091EA" /><path d="M259.4 512H92l248.2 171.8z" fill="#00A7F7" /><path d="M512 764.6V932L340.2 683.8z" fill="#51B9F9" /><path d="M764.5 512.1L512 764.6V259.4z" fill="#83CAFA" /><path d="M699.8 325.2c-20.7-4.7-36.9-21-41.6-41.6-0.4-1.6-2.4-1.6-2.8 0-4.7 20.7-21 36.9-41.6 41.6-1.6 0.4-1.6 2.4 0 2.8 20.7 4.7 36.9 21 41.6 41.6 0.4 1.6 2.4 1.6 2.8 0 4.7-20.7 21-36.9 41.6-41.6 1.5-0.4 1.5-2.5 0-2.8zM552.7 258.6c-16.2-4.2-29-17-33.2-33.2-0.4-1.6-2.5-1.6-3 0-4.2 16.2-17 29-33.2 33.2-1.6 0.4-1.6 2.5 0 3 16.2 4.2 29 17 33.2 33.2 0.4 1.6 2.5 1.6 3 0 4.2-16.2 17-29 33.2-33.2 1.6-0.5 1.6-2.6 0-3z" fill="#FFFFFF" /></svg>