<?xml version="1.0" standalone="no"?><!DOCTYPE svg PUBLIC "-//W3C//DTD SVG 1.1//EN" "http://www.w3.org/Graphics/SVG/1.1/DTD/svg11.dtd"><svg class="icon" width="200px" height="200.00px" viewBox="0 0 1024 1024" version="1.1" xmlns="http://www.w3.org/2000/svg"><path d="M952 262.3l-392 69.4-211.4-127.4z" fill="#B5E668" /><path d="M952 262.3L447.6 819.7l143.1-317z" fill="#218E21" /><path d="M447.6 819.7L72 490.4l262.2 88z" fill="#64B350" /><path d="M348.6 204.3l-44.2 199.1-232.4 87z" fill="#EAFF8B" /><path d="M439 670.3l-104.8-91.9L226.5 484l77.9-80.6 85.1-88.1z" fill="#EAFF8B" /><path d="M730.5 348.2L590.7 502.7 439 670.3l-49.5-355L560 331.7zM389.5 315.3l-85.1 88.1 44.2-199.1zM304.4 403.4L226.5 484 72 490.4z" fill="#B5E668" /><path d="M560 331.7l-170.5-16.4-40.9-111zM952 262.3l-221.5 85.9L560 331.7z" fill="#89CC5C" /><path d="M447.6 819.7L334.2 578.4 439 670.3z" fill="#B5E668" /><path d="M334.2 578.4L72 490.4l154.5-6.4zM590.7 502.7l-143.1 317-8.6-149.4z" fill="#89CC5C" /><path d="M952 262.3L590.7 502.7l139.8-154.5z" fill="#64B350" /><path d="M599.2 330.3c-20.7-4.7-36.9-21-41.6-41.6-0.4-1.6-2.4-1.6-2.8 0-4.7 20.7-21 36.9-41.6 41.6-1.6 0.4-1.6 2.4 0 2.8 20.7 4.7 36.9 21 41.6 41.6 0.4 1.6 2.4 1.6 2.8 0 4.7-20.7 21-36.9 41.6-41.6 1.5-0.4 1.5-2.5 0-2.8zM754.8 339.6c-16.2-4.2-29-17-33.2-33.2-0.4-1.6-2.5-1.6-3 0-4.2 16.2-17 29-33.2 33.2-1.6 0.4-1.6 2.5 0 3 16.2 4.2 29 17 33.2 33.2 0.4 1.6 2.5 1.6 3 0 4.2-16.2 17-29 33.2-33.2 1.6-0.5 1.6-2.6 0-3z" fill="#FFFFFF" /></svg>