<?xml version="1.0" standalone="no"?><!DOCTYPE svg PUBLIC "-//W3C//DTD SVG 1.1//EN" "http://www.w3.org/Graphics/SVG/1.1/DTD/svg11.dtd"><svg class="icon" width="200px" height="200.00px" viewBox="0 0 1024 1024" version="1.1" xmlns="http://www.w3.org/2000/svg"><path d="M512 512v400L322.7 512z" fill="#6FECC6" /><path d="M512 512V112L322.7 512z" fill="#83F2C3" /><path d="M512 112L138.8 512h183.9z" fill="#6FECC6" /><path d="M138.8 512L512 912 322.7 512zM701.3 512L512 912V512z" fill="#53E0BB" /><path d="M701.3 512L512 112v400z" fill="#6FECC6" /><path d="M512 112l373.2 400H701.3z" fill="#53E0BB" /><path d="M885.2 512L512 912l189.3-400z" fill="#31C6B8" /><path d="M741.5 519.6c-20.7-4.7-36.9-21-41.6-41.6-0.4-1.6-2.4-1.6-2.8 0-4.7 20.7-21 36.9-41.6 41.6-1.6 0.4-1.6 2.4 0 2.8 20.7 4.7 36.9 21 41.6 41.6 0.4 1.6 2.4 1.6 2.8 0 4.7-20.7 21-36.9 41.6-41.6 1.5-0.4 1.5-2.5 0-2.8zM668.8 377.3c-16.2-4.2-29-17-33.2-33.2-0.4-1.6-2.5-1.6-3 0-4.2 16.2-17 29-33.2 33.2-1.6 0.4-1.6 2.5 0 3 16.2 4.2 29 17 33.2 33.2 0.4 1.6 2.5 1.6 3 0 4.2-16.2 17-29 33.2-33.2 1.6-0.5 1.6-2.6 0-3z" fill="#FFFFFF" /></svg>