<?xml version="1.0" standalone="no"?><!DOCTYPE svg PUBLIC "-//W3C//DTD SVG 1.1//EN" "http://www.w3.org/Graphics/SVG/1.1/DTD/svg11.dtd"><svg class="icon" width="200px" height="200.00px" viewBox="0 0 1024 1024" version="1.1" xmlns="http://www.w3.org/2000/svg"><path d="M918.8 512L644.4 379.6 512 105.2z" fill="#FFAF45" /><path d="M379.6 379.6V512H105.2z" fill="#FFE572" /><path d="M512 918.8L105.2 512l274.4 132.3z" fill="#FFAF45" /><path d="M918.8 512L512 918.8l132.4-274.5z" fill="#FF9843" /><path d="M379.6 379.6H512v264.7H379.6z" fill="#FFF48A" /><path d="M512 105.2L379.6 379.6 105.2 512z" fill="#FFC25A" /><path d="M512 105.2v274.4H379.6z" fill="#FFE572" /><path d="M644.4 379.6H512V105.2z" fill="#FFC25A" /><path d="M918.8 512L644.4 644.3V512z" fill="#FFAF45" /><path d="M918.8 512H644.4V379.6zM379.6 512v132.3L105.2 512zM644.4 644.3L512 918.8V644.3z" fill="#FFC25A" /><path d="M512 644.3v274.5L379.6 644.3zM512 379.6h132.4v264.7H512z" fill="#FFE572" /><path d="M742.3 504.8c-20.7-4.7-36.9-21-41.6-41.6-0.4-1.6-2.4-1.6-2.8 0-4.7 20.7-21 36.9-41.6 41.6-1.6 0.4-1.6 2.4 0 2.8 20.7 4.7 36.9 21 41.6 41.6 0.4 1.6 2.4 1.6 2.8 0 4.7-20.7 21-36.9 41.6-41.6 1.5-0.4 1.5-2.5 0-2.8zM679.7 377.3c-16.2-4.2-29-17-33.2-33.2-0.4-1.6-2.5-1.6-3 0-4.2 16.2-17 29-33.2 33.2-1.6 0.4-1.6 2.5 0 3 16.2 4.2 29 17 33.2 33.2 0.4 1.6 2.5 1.6 3 0 4.2-16.2 17-29 33.2-33.2 1.6-0.5 1.6-2.6 0-3z" fill="#FFFFFF" /></svg>