<?xml version="1.0" standalone="no"?><!DOCTYPE svg PUBLIC "-//W3C//DTD SVG 1.1//EN" "http://www.w3.org/Graphics/SVG/1.1/DTD/svg11.dtd"><svg class="icon" width="200px" height="200.00px" viewBox="0 0 1024 1024" version="1.1" xmlns="http://www.w3.org/2000/svg"><path d="M512.1 204.9v312.8L333.3 819h-0.3z" fill="#D8E5FE" /><path d="M691 818.7v0.3L512.1 517.7l178.7 300.7z"  /><path d="M512.1 517.7V819H333.3z" fill="#EBF2FF" /><path d="M691 818.7v0.3L512.1 517.7l178.7 300.7z"  /><path d="M690.8 818.4L512.1 517.7V204.9zM512.1 204.9L333 819l-31.7-342.6z" fill="#BCD6FD" /><path d="M333 819L90.5 731.7l210.8-255.3zM722.7 476.4L691 818.7l-0.2-0.3-178.7-613.5z" fill="#B0C5FD" /><path d="M933.5 731.7L691 819v-0.3l31.7-342.3z" fill="#98B7F9" /><path d="M691 819H512.1V517.7z" fill="#D8E5FE" /><path d="M689.7 580.2c-20.7-4.7-36.9-21-41.6-41.6-0.4-1.6-2.4-1.6-2.8 0-4.7 20.7-21 36.9-41.6 41.6-1.6 0.4-1.6 2.4 0 2.8 20.7 4.7 36.9 21 41.6 41.6 0.4 1.6 2.4 1.6 2.8 0 4.7-20.7 21-36.9 41.6-41.6 1.5-0.4 1.5-2.5 0-2.8zM561.1 522.7c-16.2-4.2-29-17-33.2-33.2-0.4-1.6-2.5-1.6-3 0-4.2 16.2-17 29-33.2 33.2-1.6 0.4-1.6 2.5 0 3 16.2 4.2 29 17 33.2 33.2 0.4 1.6 2.5 1.6 3 0 4.2-16.2 17-29 33.2-33.2 1.6-0.5 1.6-2.6 0-3z" fill="#FFFFFF" /><path d="M333 819L187.7 614 90.5 731.7z" fill="#98B7F9" /><path d="M691 819l145.3-205 97.2 117.7z" fill="#7FA9F4" /></svg>