<?xml version="1.0" standalone="no"?><!DOCTYPE svg PUBLIC "-//W3C//DTD SVG 1.1//EN" "http://www.w3.org/Graphics/SVG/1.1/DTD/svg11.dtd"><svg class="icon" width="200px" height="200.00px" viewBox="0 0 1024 1024" version="1.1" xmlns="http://www.w3.org/2000/svg"><path d="M512 325.1V512H334.4l-43.2-151.4 88-76.6z" fill="#B0DBFA" /><path d="M278.9 112l100.3 172L512 325.1V184.3z" fill="#51B9F9" /><path d="M116.5 253.4l174.7 107.2 88-76.6-100.3-172z" fill="#83CAFA" /><path d="M190.4 512l-73.9-258.6 174.7 107.2L334.4 512z" fill="#51B9F9" /><path d="M512 325.1V512h177.6l43.2-151.4-88-76.6z" fill="#83CAFA" /><path d="M745.1 112L644.8 284 512 325.1V184.3z" fill="#00A7F7" /><path d="M907.5 253.4L732.8 360.6l-88-76.6 100.3-172z" fill="#51B9F9" /><path d="M833.6 512l73.9-258.6-174.7 107.2L689.6 512z" fill="#00A7F7" /><path d="M512 698.9V512H334.4l-43.2 151.4 88 76.6z" fill="#83CAFA" /><path d="M278.9 912l100.3-172L512 698.9v140.8z" fill="#00A7F7" /><path d="M116.5 770.6l174.7-107.2 88 76.6-100.3 172z" fill="#51B9F9" /><path d="M190.4 512l-73.9 258.6 174.7-107.2L334.4 512z" fill="#00A7F7" /><path d="M512 698.9V512h177.6l43.2 151.4-88 76.6z" fill="#51B9F9" /><path d="M745.1 912L644.8 740 512 698.9v140.8z" fill="#0091EA" /><path d="M907.5 770.6L732.8 663.4l-88 76.6 100.3 172z" fill="#00A7F7" /><path d="M833.6 512l73.9 258.6-174.7-107.2L689.6 512z" fill="#0091EA" /><path d="M788.2 359.2c-20.7-4.7-36.9-21-41.6-41.6-0.4-1.6-2.4-1.6-2.8 0-4.7 20.7-21 36.9-41.6 41.6-1.6 0.4-1.6 2.4 0 2.8 20.7 4.7 36.9 21 41.6 41.6 0.4 1.6 2.4 1.6 2.8 0 4.7-20.7 21-36.9 41.6-41.6 1.5-0.4 1.5-2.5 0-2.8zM671.6 286.2c-16.2-4.2-29-17-33.2-33.2-0.4-1.6-2.5-1.6-3 0-4.2 16.2-17 29-33.2 33.2-1.6 0.4-1.6 2.5 0 3 16.2 4.2 29 17 33.2 33.2 0.4 1.6 2.5 1.6 3 0 4.2-16.2 17-29 33.2-33.2 1.6-0.5 1.6-2.6 0-3z" fill="#FFFFFF" /></svg>