<?xml version="1.0" standalone="no"?><!DOCTYPE svg PUBLIC "-//W3C//DTD SVG 1.1//EN" "http://www.w3.org/Graphics/SVG/1.1/DTD/svg11.dtd"><svg class="icon" width="200px" height="200.00px" viewBox="0 0 1024 1024" version="1.1" xmlns="http://www.w3.org/2000/svg"><path d="M512 72v269.5L368.2 616.2l-154 30.8z" fill="#FFC25A" /><path d="M512 72v269.5l143.8 274.7 154 30.8z" fill="#FF9843" /><path d="M512 341.6v431.7L368.2 616.2z" fill="#FFF48A" /><path d="M655.7 616.2L512 773.3V341.6zM368.2 616.2l-154 30.8L512 952V773.3z" fill="#FFE572" /><path d="M655.8 616.2L512 773.3V952l297.8-305z" fill="#FFC25A" /><path d="M703.7 607.9c-20.7-4.7-36.9-21-41.6-41.6-0.4-1.6-2.4-1.6-2.8 0-4.7 20.7-21 36.9-41.6 41.6-1.6 0.4-1.6 2.4 0 2.8 20.7 4.7 36.9 21 41.6 41.6 0.4 1.6 2.4 1.6 2.8 0 4.7-20.7 21-36.9 41.6-41.6 1.5-0.4 1.5-2.5 0-2.8zM615.4 691.5c-16.2-4.2-29-17-33.2-33.2-0.4-1.6-2.5-1.6-3 0-4.2 16.2-17 29-33.2 33.2-1.6 0.4-1.6 2.5 0 3 16.2 4.2 29 17 33.2 33.2 0.4 1.6 2.5 1.6 3 0 4.2-16.2 17-29 33.2-33.2 1.6-0.5 1.6-2.6 0-3z" fill="#FFFFFF" /></svg>